/* XPM */
static char *result[] = {
/* columns rows colors chars-per-pixel */
"64 64 9 1 ",
"  c #71693F",
". c #847A7C",
"X c #669344",
"o c #DEBD00",
"O c #DFBD00",
"+ c #DFBE00",
"@ c #F5DB38",
"# c #FFFF3A",
"$ c #809D49",
/* pixels */
"X$XX$$$$XXXXX$$XX$XX$$$$XXXXX$$XX$XX$$$$XXXXX$$XX$XX$$$$XXXXX$$X",
"X$X$$X$$X$XXX$$XX$X$$X$$X$XXX$$XX$X$$X$$X$XXX$$XX$X$$X$$X$XXX$$X",
"$$$$$X$XX$XX$$$$$$$$$X$XX$XX$$$$$$$$$X$XX$XX$$$$$$$$$X$XX$XX$$$$",
"$$$$$$XXX$$$$$$$$$$$$$XXX$$$$$$$$$$$$$XXX$$$$$$$$$$$$$XXX$$$$$$$",
"$$$$$XXX$$$$X$$$$$$$$XXX$$$$X$$$$$$$$XXX$$$$X$$$$$$$$XXX$$$$X$$$",
"X$$X$X$$$$$X$$$$X$$X$X$$$$$X$$$$X$$X$X$$$$$X$$$$X$$X$X$$$$$X$$$$",
"$$X$$$$$$$XX$$$X$$X$$$$$$$XX$$$X$$X$$$$$$$XX$$$X$$X$$$$$$$XX$$$X",
"$$$$$$$$$$$$$$XX$$$$$$$$$$$$$$XX$$$$$$$$$$$$$$XX$$$$$$$$$$$$$$XX",
"$$$$$$$$$$$$$$$$$$$$$$$$$$$$$$$$$$$$$$$$$$$$$$$$$$$$$$$$$$$$$$$$",
"$$$$$$$X$$$$$$$$$$$$$$$X$$$$$$$$$$$$$$$X$$$$$$$$$$$$$$$X$$$$$$$$",
"$$X$$$$X$$$$XX$$$$X$$$$X$$$$XX$$$$X$$$$X$$$$XX$$$$X$$$$X$$$$XX$$",
"$X$$$$$$$$X$X$$$$X$$$$$$$$X$X$$$$X$$$$$$$$X$X$$$$X$$$$$$$$X$X$$$",
"X$$$$$$$$$X$$$XXX$$$$$$$$$X$$$XXX$$$$$$$$$X$$$XXX$$$$$$$$$X$$$XX",
"$$$$$$$XX$$X$$XX$$$$$$$XX$$X$$XX$$$$$$$XX$$X$$XX$$$$$$$XX$$X$$XX",
"XX$$X$XX$$XXXX$$XX$$X$XX$$XXXX$$XX$$X$XX$$XXXX$$XX$$X$XX$$XXXX$$",
"X$XX$$XX$XXXXX$$X$XX$$XX$XXXXX$$X$XX$$XX$XXXXX$$X$XX$$XX$XXXXX$$",
"X$XX$$$$XXXXX$$XX$XX$$$$XXXXX$$XX$XX$$$$XXXXX$$XX$XX$$$$XXXXX$$X",
"X$X$$X$$X$XXX$$XX$X$$X$$X$XXX$$XX$X$$X$$X$XXX$$XX$X$$X$$X$XXX$$X",
"$$$$$X$XX$XX$$$$$$$$$X$XX$XX$$    $$$X$XX$XX$$$$$$$$$X$XX$XX$$$$",
"$$$$$$XXX$$$$$$$$$$$$$XXX$$$$ @@@@   $XXX$$$$$$$$$$$$$XXX$$$$$$$",
"$$$$$XXX$$$$X$$$$$$$$XXX$$$$ #@@@@@OO XX$$$$X$$$$$$$$XXX$$$$X$$$",
"X$$X$X$$$$$X$$$$X$$X$X$$$$$ #####OOOO $$$$$X$$$$X$$X$X$$$$$X$$$$",
"$$X$$$$$$$XX$$$X$$X$$$$$$$X #####OOOOO $$$XX$$$X$$X$$$$$$$XX$$$X",
"$$$$$$$$$$$$$$XX$$$$$$$$$$ #####OO  OO $$$$$$$XX$$$$$$$$$$$$$$XX",
"$$$$$$$$$$$$$$$$$$$$$$$$$$ ####OOOO OO $$$$$$$$$$$$$$$$$$$$$$$$$",
"$$$$$$$X$$$$$$$$$$$$$$$X$$ ####OOOO OO X$$$$$$$$$$$$$$$X$$$$$$$$",
"$$X$$$$X$$$$XX$$$$X$$$$X$ @@###OOOO@OO X$$$$XX$$$$X$$$$X$$$$XX$$",
"$X$$$$$$$$X$X$$$$X$$$$$$$ @@@@OOOOO#OO $$$X$X$$$$X$$$$$$$$X$X$$$",
"X$$$$$$$$$X$$$XXX$$$$$$$$ OO@@OOOOO#O $$$$X$$$XXX$$$$$$$$$X$$$XX",
"$$$$$$$XX$$X$$XX$$$$$$$XX @@@OOOOO##O $XX$$X$$XX$$$$$$$XX$$X$$XX",
"XX$$X$XX$$XXXX$$XX$$X$XX$ @@@@OOO #OO XX$$XXXX$$XX$$X$XX$$XXXX$$",
"X$XX$$XX$XXXXX$$X$XX$$XX$ @@@@OO @OO $XX$XXXXX$$X$XX$$XX$XXXXX$$",
"X$XX$$$$XXXXX$$XX$XX$$$$XX @@@OOOOO $$$$XXXXX$$XX$XX$$$$XXXXX$$X",
"X$X$$X$$X$XXX$$XX$X$$X$$X$X +oOOOOO $X$$X$XXX$$XX$X$$X$$X$XXX$$X",
"$$$$$X$XX$XX$$$$$$$$$X$XX$XX   OO  $$X$XX$XX$$$$$$$$$X$XX$XX$$$$",
"$$$$$$XXX$$$$$$$$$$$$$XXX$$$$$$  $$$$$XXX$$$$$$$$$$$$$XXX$$$$$$$",
"$$$$$XXX$$$$X$$$$$$$$XXX$$$$X$$$$$$$$XXX$$$$X$$$$$$$$XXX$$$$X$$$",
"X$$X$X$$$$$X$$$$X$$X$X$$$$$X$$$$X$$X$X$$$$$X$$$$X$$X$X$$$$$X$$$$",
"$$X$$$$$$$XX$$$X$$X$$$$$$$XX$$$X$$X$$$$$$$XX$$$X$$X$$$$$$$XX$$$X",
"$$$$$$$$$$$$$$XX$$$$$$$$$$$$$$XX$$$$$$$$$$$$$$XX$$$$$$$$$$$$$$XX",
"$$$$$$$$$$$$$$$$$$$$$$$$$$$$$$$$$$$$$$$$$$$$$$$$$$$$$$$$$$$$$$$$",
"$$$$$$$X$$$$$$$$$$$$$$$X$$$$$$$$$$$$$$$X$$$$$$$$$$$$$$$X$$$$$$$$",
"$$X$$$$X$$$$XX$$$$X$$$$X$$$$X......$$$$X$$$$XX$$$$X$$$$X$$$$XX$$",
"$X$$$$$$$$X$X$$$$X$$$$$$$$X..........$$$$$X$X$$$$X$$$$$$$$X$X$$$",
"X$$$$$$$$$X$$$XXX$$$$$$$$$X..........$$$$$X$$$XXX$$$$$$$$$X$$$XX",
"$$$$$$$XX$$X$$XX$$$$$$$XX$$..........$$XX$$X$$XX$$$$$$$XX$$X$$XX",
"XX$$X$XX$$XXXX$$XX$$X$XX$$XXX......$X$XX$$XXXX$$XX$$X$XX$$XXXX$$",
"X$XX$$XX$XXXXX$$X$XX$$XX$XXXXX$$X$XX$$XX$XXXXX$$X$XX$$XX$XXXXX$$",
"X$XX$$$$XXXXX$$XX$XX$$$$XXXXX$$XX$XX$$$$XXXXX$$XX$XX$$$$XXXXX$$X",
"X$X$$X$$X$XXX$$XX$X$$X$$X$XXX$$XX$X$$X$$X$XXX$$XX$X$$X$$X$XXX$$X",
"$$$$$X$XX$XX$$$$$$$$$X$XX$XX$$$$$$$$$X$XX$XX$$$$$$$$$X$XX$XX$$$$",
"$$$$$$XXX$$$$$$$$$$$$$XXX$$$$$$$$$$$$$XXX$$$$$$$$$$$$$XXX$$$$$$$",
"$$$$$XXX$$$$X$$$$$$$$XXX$$$$X$$$$$$$$XXX$$$$X$$$$$$$$XXX$$$$X$$$",
"X$$X$X$$$$$X$$$$X$$X$X$$$$$X$$$$X$$X$X$$$$$X$$$$X$$X$X$$$$$X$$$$",
"$$X$$$$$$$XX$$$X$$X$$$$$$$XX$$$X$$X$$$$$$$XX$$$X$$X$$$$$$$XX$$$X",
"$$$$$$$$$$$$$$XX$$$$$$$$$$$$$$XX$$$$$$$$$$$$$$XX$$$$$$$$$$$$$$XX",
"$$$$$$$$$$$$$$$$$$$$$$$$$$$$$$$$$$$$$$$$$$$$$$$$$$$$$$$$$$$$$$$$",
"$$$$$$$X$$$$$$$$$$$$$$$X$$$$$$$$$$$$$$$X$$$$$$$$$$$$$$$X$$$$$$$$",
"$$X$$$$X$$$$XX$$$$X$$$$X$$$$XX$$$$X$$$$X$$$$XX$$$$X$$$$X$$$$XX$$",
"$X$$$$$$$$X$X$$$$X$$$$$$$$X$X$$$$X$$$$$$$$X$X$$$$X$$$$$$$$X$X$$$",
"X$$$$$$$$$X$$$XXX$$$$$$$$$X$$$XXX$$$$$$$$$X$$$XXX$$$$$$$$$X$$$XX",
"$$$$$$$XX$$X$$XX$$$$$$$XX$$X$$XX$$$$$$$XX$$X$$XX$$$$$$$XX$$X$$XX",
"XX$$X$XX$$XXXX$$XX$$X$XX$$XXXX$$XX$$X$XX$$XXXX$$XX$$X$XX$$XXXX$$",
"X$XX$$XX$XXXXX$$X$XX$$XX$XXXXX$$X$XX$$XX$XXXXX$$X$XX$$XX$XXXXX$$"
};
