/* XPM */
static char *result[] = {
/* columns rows colors chars-per-pixel */
"64 64 9 1 ",
"  c #71693F",
". c #847A7C",
"X c #669344",
"o c #DFBD00",
"O c #DDBC1A",
"+ c #DFBE1A",
"@ c #F5DB38",
"# c #FFFF3A",
"$ c #809D49",
/* pixels */
"X$XX$$$$XXXXX$$XX$XX$$$$XXXXX$$XX$XX$$$$XXXXX$$XX$XX$$$$XXXXX$$X",
"X$X$$X$$X$XXX$$XX$X$$X$$X$XXX$$XX$X$$X$$X$XXX$$XX$X$$X$$X$XXX$$X",
"$$$$$X$XX$XX$$$$$$$$$X$XX$XX$$$$$$$$$X$XX$XX$$$$$$$$$X$XX$XX$$$$",
"$$$$$$XXX$$$$$$$$$$$$$XXX$$$$$$$$$$$$$XXX$$$$$$$$$$$$$XXX$$$$$$$",
"$$$$$XXX$$$$X$$$$$$$$XXX$$$$X$$$$$$$$XXX$$$$X$$$$$$$$XXX$$$$X$$$",
"X$$X$X$$$$$X$$$$X$$X$X$$$$$X$$$$X$$X$X$$$$$X$$$$X$$X$X$$$$$X$$$$",
"$$X$$$$$$$XX$$$X$$X$$$$$$$XX$$$X$$X$$$$$$$XX$$$X$$X$$$$$$$XX$$$X",
"$$$$$$$$$$$$$$XX$$$$$$$$$$$$$$XX$$$$$$$$$$$$$$XX$$$$$$$$$$$$$$XX",
"$$$$$$$$$$$$$$$$$$$$$$$$$$$$$$$$$$$$$$$$$$$$$$$$$$$$$$$$$$$$$$$$",
"$$$$$$$X$$$$$$$$$$$$$$$X$$$$$$$$$$$$$$$X$$$$$$$$$$$$$$$X$$$$$$$$",
"$$X$$$$X$$$$XX$$$$X$$$$X$$$$XX$$$$X$$$$X$$$$XX$$$$X$$$$X$$$$XX$$",
"$X$$$$$$$$X$X$$$$X$$$$$$$$X$X$$$$X$$$$$$$$X$X$$$$X$$$$$$$$X$X$$$",
"X$$$$$$$$$X$$$XXX$$$$$$$$$X$$$XXX$$$$$$$$$X$$$XXX$$$$$$$$$X$$$XX",
"$$$$$$$XX$$X$$XX$$$$$$$XX$$X$$XX$$$$$$$XX$$X$$XX$$$$$$$XX$$X$$XX",
"XX$$X$XX$$XXXX$$XX$$X$XX$$XXXX$$XX$$X$XX$$XXXX$$XX$$X$XX$$XXXX$$",
"X$XX$$XX$XXXXX$$X$XX$$XX$XXXXX$$X$XX$$XX$XXXXX$$X$XX$$XX$XXXXX$$",
"X$XX$$$$XXXXX$$XX$XX$$$$XXXXX$    XX$$$$XXXXX$$XX$XX$$$$XXXXX$$X",
"X$X$$X$$X$XXX$$XX$X$$X$$X$XX  @@@@  $X$$X$XXX$$XX$X$$X$$X$XXX$$X",
"$$$$$X$XX$XX$$$$$$$$$X$XX$  @@@@@@@@  $XX$XX$$$$$$$$$X$XX$XX$$$$",
"$$$$$$XXX$$$$$$$$$$$$$XXX @@@@@@@@@@@o XX$$$$$$$$$$$$$XXX$$$$$$$",
"$$$$$XXX$$$$X$$$$$$$$XXX @@@o####ooo@oo $$$$X$$$$$$$$XXX$$$$X$$$",
"X$$X$X$$$$$X$$$$X$$X$X$$ @@o####ooooooo $$$X$$$$X$$X$X$$$$$X$$$$",
"$$X$$$$$$$XX$$$X$$X$$$$$ @o####ooOooooo $$XX$$$X$$X$$$$$$$XX$$$X",
"$$$$$$$$$$$$$$XX$$$$$$$ #o####oooooooooo $$$$$XX$$$$$$$$$$$$$$XX",
"$$$$$$$$$$$$$$$$$$$$$$$ #####ooooooooooo $$$$$$$$$$$$$$$$$$$$$$$",
"$$$$$$$X$$$$$$$$$$$$$$$ o###+ooooooooooo $$$$$$$$$$$$$$X$$$$$$$$",
"$$X$$$$X$$$$XX$$$$X$$$$ ###ooooooooooooo $$$XX$$$$X$$$$X$$$$XX$$",
"$X$$$$$$$$X$X$$$$X$$$$$$ #ooooooooooooo $$X$X$$$$X$$$$$$$$X$X$$$",
"X$$$$$$$$$X$$$XXX$$$$$$$ ooo ooooOooooo $$X$$$XXX$$$$$$$$$X$$$XX",
"$$$$$$$XX$$X$$XX$$$$$$$XX ooo  ooooooo XX$$X$$XX$$$$$$$XX$$X$$XX",
"XX$$X$XX$$XXXX$$XX$$X$XX$ oooooooooooo X$$XXXX$$XX$$X$XX$$XXXX$$",
"X$XX$$XX$XXXXX$$X$XX$$XX$X  oooooooo  XX$XXXXX$$X$XX$$XX$XXXXX$$",
"X$XX$$$$XXXXX$$XX$XX$$$$XXXX  oooo  $$$$XXXXX$$XX$XX$$$$XXXXX$$X",
"X$X$$X$$X$XXX$$XX$X$$X$$X$XXX$    X$$X$$X$XXX$$XX$X$$X$$X$XXX$$X",
"$$$$$X$XX$XX$$$$$$$$$X$XX$XX$$$$$$$$$X$XX$XX$$$$$$$$$X$XX$XX$$$$",
"$$$$$$XXX$$$$$$$$$$$$$XXX$$$$$$$$$$$$$XXX$$$$$$$$$$$$$XXX$$$$$$$",
"$$$$$XXX$$$$X$$$$$$$$XXX$$$$X$$$$$$$$XXX$$$$X$$$$$$$$XXX$$$$X$$$",
"X$$X$X$$$$$X$$$$X$$X$X$$$$$X$$$$X$$X$X$$$$$X$$$$X$$X$X$$$$$X$$$$",
"$$X$$$$$$$XX$$$X$$X$$$$$$$XX$$$X$$X$$$$$$$XX$$$X$$X$$$$$$$XX$$$X",
"$$$$$$$$$$$$$$XX$$$$$$$$$$$$$$XX$$$$$$$$$$$$$$XX$$$$$$$$$$$$$$XX",
"$$$$$$$$$$$$$$$$$$$$$$$$$$$$$$$$$$$$$$$$$$$$$$$$$$$$$$$$$$$$$$$$",
"$$$$$$$X$$$$$$$$$$$$$$$X$$$$$$$$$$$$$$$X$$$$$$$$$$$$$$$X$$$$$$$$",
"$$X$$$$X$$$$XX$$$$X$$$$X$$$$XX....X$$$$X$$$$XX$$$$X$$$$X$$$$XX$$",
"$X$$$$$$$$X$X$$$$X$$$$$$$$X$........$$$$$$X$X$$$$X$$$$$$$$X$X$$$",
"X$$$$$$$$$X$$$XXX$$$$$$$$$X..........$$$$$X$$$XXX$$$$$$$$$X$$$XX",
"$$$$$$$XX$$X$$XX$$$$$$$XX$$X........$$$XX$$X$$XX$$$$$$$XX$$X$$XX",
"XX$$X$XX$$XXXX$$XX$$X$XX$$XXXX....$$X$XX$$XXXX$$XX$$X$XX$$XXXX$$",
"X$XX$$XX$XXXXX$$X$XX$$XX$XXXXX$$X$XX$$XX$XXXXX$$X$XX$$XX$XXXXX$$",
"X$XX$$$$XXXXX$$XX$XX$$$$XXXXX$$XX$XX$$$$XXXXX$$XX$XX$$$$XXXXX$$X",
"X$X$$X$$X$XXX$$XX$X$$X$$X$XXX$$XX$X$$X$$X$XXX$$XX$X$$X$$X$XXX$$X",
"$$$$$X$XX$XX$$$$$$$$$X$XX$XX$$$$$$$$$X$XX$XX$$$$$$$$$X$XX$XX$$$$",
"$$$$$$XXX$$$$$$$$$$$$$XXX$$$$$$$$$$$$$XXX$$$$$$$$$$$$$XXX$$$$$$$",
"$$$$$XXX$$$$X$$$$$$$$XXX$$$$X$$$$$$$$XXX$$$$X$$$$$$$$XXX$$$$X$$$",
"X$$X$X$$$$$X$$$$X$$X$X$$$$$X$$$$X$$X$X$$$$$X$$$$X$$X$X$$$$$X$$$$",
"$$X$$$$$$$XX$$$X$$X$$$$$$$XX$$$X$$X$$$$$$$XX$$$X$$X$$$$$$$XX$$$X",
"$$$$$$$$$$$$$$XX$$$$$$$$$$$$$$XX$$$$$$$$$$$$$$XX$$$$$$$$$$$$$$XX",
"$$$$$$$$$$$$$$$$$$$$$$$$$$$$$$$$$$$$$$$$$$$$$$$$$$$$$$$$$$$$$$$$",
"$$$$$$$X$$$$$$$$$$$$$$$X$$$$$$$$$$$$$$$X$$$$$$$$$$$$$$$X$$$$$$$$",
"$$X$$$$X$$$$XX$$$$X$$$$X$$$$XX$$$$X$$$$X$$$$XX$$$$X$$$$X$$$$XX$$",
"$X$$$$$$$$X$X$$$$X$$$$$$$$X$X$$$$X$$$$$$$$X$X$$$$X$$$$$$$$X$X$$$",
"X$$$$$$$$$X$$$XXX$$$$$$$$$X$$$XXX$$$$$$$$$X$$$XXX$$$$$$$$$X$$$XX",
"$$$$$$$XX$$X$$XX$$$$$$$XX$$X$$XX$$$$$$$XX$$X$$XX$$$$$$$XX$$X$$XX",
"XX$$X$XX$$XXXX$$XX$$X$XX$$XXXX$$XX$$X$XX$$XXXX$$XX$$X$XX$$XXXX$$",
"X$XX$$XX$XXXXX$$X$XX$$XX$XXXXX$$X$XX$$XX$XXXXX$$X$XX$$XX$XXXXX$$"
};
