/* XPM */
static char *result[] = {
/* columns rows colors chars-per-pixel */
"64 64 8 1 ",
"  c #71693F",
". c #847A7C",
"X c #669344",
"o c #DFBD00",
"O c #FFE900",
"+ c #FFEA00",
"@ c #FFFF3A",
"# c #809D49",
/* pixels */
"X#XX####XXXXX##XX#XX####XXXXX##XX#XX####XXXXX##XX#XX####XXXXX##X",
"X#X##X##X#XXX##XX#X##X##X#XXX##XX#X##X##X#XXX##XX#X##X##X#XXX##X",
"#####X#XX#XX#########X#XX#XX#########X#XX#XX#########X#XX#XX####",
"######XXX#############XXX#############XXX#############XXX#######",
"#####XXX####X########XXX####X########XXX####X########XXX####X###",
"X##X#X#####X####X##X#X#####X####X##X#X#####X####X##X#X#####X####",
"##X#######XX###X##X#######XX###X##X#######XX###X##X#######XX###X",
"##############XX##############XX##############XX##############XX",
"################################################################",
"#######X###############X###############X###############X########",
"##X####X####XX####X####X####XX####X####X####XX####X####X####XX##",
"#X########X#X####X########X#X####X########X#X####X########X#X###",
"X#########X###XXX#########X###XXX#########X###XXX#########X###XX",
"#######XX##X##XX#######XX##X##XX#######XX##X##XX#######XX##X##XX",
"XX##X#XX##XXXX##XX##X#XX##XXXX##XX##X#XX##XXXX##XX##X#XX##XXXX##",
"X#XX##XX#XXXXX##X#XX##XX#XXXXX##X#XX##XX#XXXXX##X#XX##XX#XXXXX##",
"X#XX####XXXXX##XX#XX####XXXXX##XX#XX####XXXXX##XX#XX####XXXXX##X",
"X#X##X##X#XXX##XX#X##X##X#XXX#   #X##X##X#XXX##XX#X##X##X#XXX##X",
"#####X#XX#XX#########X#XX#XX  OOO  ##X#XX#XX#########X#XX#XX####",
"######XXX#############XXX#  OOOOOOO ##XXX#############XXX#######",
"#####XXX####X########XXX# oooooOO+OO XXX####X########XXX####X###",
"X##X#X#####X####X##X#X### ooooooOO+OO #####X####X##X#X#####X####",
"##X#######XX###X##X##### ooo ooooOO+O ####XX###X##X#######XX###X",
"##############XX######## oo ooooooOO+O #######XX##############XX",
"######################## oo oooooo+Oo@ #########################",
"#######X###############X oo oooooooo@@@ ###############X########",
"##X####X####XX####X####X oo ooooooo@@@@ ####XX####X####X####XX##",
"#X########X#X####X####### oo ooooo@@@@@ ##X#X####X########X#X###",
"X#########X###XXX######## ooooooo@@@@@o ##X###XXX#########X###XX",
"#######XX##X##XX#######XX# ooooo@@@@@oo X##X##XX#######XX##X##XX",
"XX##X#XX##XXXX##XX##X#XX## oooo  @@@oo X##XXXX##XX##X#XX##XXXX##",
"X#XX##XX#XXXXX##X#XX##XX#XX oo@@@@@ooo X#XXXXX##X#XX##XX#XXXXX##",
"X#XX####XXXXX##XX#XX####XXXX @@@@@oo  ##XXXXX##XX#XX####XXXXX##X",
"X#X##X##X#XXX##XX#X##X##X#XXX  @@o  #X##X#XXX##XX#X##X##X#XXX##X",
"#####X#XX#XX#########X#XX#XX###   ###X#XX#XX#########X#XX#XX####",
"######XXX#############XXX#############XXX#############XXX#######",
"#####XXX####X########XXX####X########XXX####X########XXX####X###",
"X##X#X#####X####X##X#X#####X####X##X#X#####X####X##X#X#####X####",
"##X#######XX###X##X#######XX###X##X#######XX###X##X#######XX###X",
"##############XX##############XX##############XX##############XX",
"################################################################",
"#######X###############X###############X###############X########",
"##X####X####XX####X####X####XX....X####X####XX####X####X####XX##",
"#X########X#X####X########X..........#####X#X####X########X#X###",
"X#########X###XXX#########X..........#####X###XXX#########X###XX",
"#######XX##X##XX#######XX##..........##XX##X##XX#######XX##X##XX",
"XX##X#XX##XXXX##XX##X#XX##XXXX....##X#XX##XXXX##XX##X#XX##XXXX##",
"X#XX##XX#XXXXX##X#XX##XX#XXXXX##X#XX##XX#XXXXX##X#XX##XX#XXXXX##",
"X#XX####XXXXX##XX#XX####XXXXX##XX#XX####XXXXX##XX#XX####XXXXX##X",
"X#X##X##X#XXX##XX#X##X##X#XXX##XX#X##X##X#XXX##XX#X##X##X#XXX##X",
"#####X#XX#XX#########X#XX#XX#########X#XX#XX#########X#XX#XX####",
"######XXX#############XXX#############XXX#############XXX#######",
"#####XXX####X########XXX####X########XXX####X########XXX####X###",
"X##X#X#####X####X##X#X#####X####X##X#X#####X####X##X#X#####X####",
"##X#######XX###X##X#######XX###X##X#######XX###X##X#######XX###X",
"##############XX##############XX##############XX##############XX",
"################################################################",
"#######X###############X###############X###############X########",
"##X####X####XX####X####X####XX####X####X####XX####X####X####XX##",
"#X########X#X####X########X#X####X########X#X####X########X#X###",
"X#########X###XXX#########X###XXX#########X###XXX#########X###XX",
"#######XX##X##XX#######XX##X##XX#######XX##X##XX#######XX##X##XX",
"XX##X#XX##XXXX##XX##X#XX##XXXX##XX##X#XX##XXXX##XX##X#XX##XXXX##",
"X#XX##XX#XXXXX##X#XX##XX#XXXXX##X#XX##XX#XXXXX##X#XX##XX#XXXXX##"
};
