/* XPM */
static char *result[] = {
/* columns rows colors chars-per-pixel */
"64 64 7 1 ",
"  c #71693F",
". c #847A7C",
"X c #669344",
"o c #DFBD00",
"O c #F5DB38",
"+ c #FFFF3A",
"@ c #809D49",
/* pixels */
"X@XX@@@@XXXXX@@XX@XX@@@@XXXXX@@XX@XX@@@@XXXXX@@XX@XX@@@@XXXXX@@X",
"X@X@@X@@X@XXX@@XX@X@@X@@X@XXX@@XX@X@@X@@X@XXX@@XX@X@@X@@X@XXX@@X",
"@@@@@X@XX@XX@@@@@@@@@X@XX@XX@@@@@@@@@X@XX@XX@@@@@@@@@X@XX@XX@@@@",
"@@@@@@XXX@@@@@@@@@@@@@XXX@@@@@@@@@@@@@XXX@@@@@@@@@@@@@XXX@@@@@@@",
"@@@@@XXX@@@@X@@@@@@@@XXX@@@@X@@@@@@@@XXX@@@@X@@@@@@@@XXX@@@@X@@@",
"X@@X@X@@@@@X@@@@X@@X@X@@@@@X@@@@X@@X@X@@@@@X@@@@X@@X@X@@@@@X@@@@",
"@@X@@@@@@@XX@@@X@@X@@@@@@@XX@@@X@@X@@@@@@@XX@@@X@@X@@@@@@@XX@@@X",
"@@@@@@@@@@@@@@XX@@@@@@@@@@@@@@XX@@@@@@@@@@@@@@XX@@@@@@@@@@@@@@XX",
"@@@@@@@@@@@@@@@@@@@@@@@@@@@@@@@@@@@@@@@@@@@@@@@@@@@@@@@@@@@@@@@@",
"@@@@@@@X@@@@@@@@@@@@@@@X@@@@@@@@@@@@@@@X@@@@@@@@@@@@@@@X@@@@@@@@",
"@@X@@@@X@@@@XX@@@@X@@@@X@@@@XX@@@@X@@@@X@@@@XX@@@@X@@@@X@@@@XX@@",
"@X@@@@@@@@X@X@@@@X@@@@@@@@X@X@@@@X@@@@@@@@X@X@@@@X@@@@@@@@X@X@@@",
"X@@@@@@@@@X@@@XXX@@@@@@@@@X@@@XXX@@@@@@@@@X@@@XXX@@@@@@@@@X@@@XX",
"@@@@@@@XX@@X@@XX@@@@@@@XX@@X@@XX@@@@@@@XX@@X@@XX@@@@@@@XX@@X@@XX",
"XX@@X@XX@@XXXX@@XX@@X@XX@@XXXX@@XX@@X@XX@@XXXX@@XX@@X@XX@@XXXX@@",
"X@XX@@XX@XXXXX@@X@XX@@XX@XXXXX@@X@XX@@XX@XXXXX@@X@XX@@XX@XXXXX@@",
"X@XX@@@@XXXXX@@XX@XX@@@@XXXXX@@XX@XX@@@@XXXXX@@XX@XX@@@@XXXXX@@X",
"X@X@@X@@X@XXX@@XX@X@@X@@X@XXX@@XX@X@@X@@X@XXX@@XX@X@@X@@X@XXX@@X",
"@@@@@X@XX@XX@@@@@@@@@X@XX@XX@@@@@@@@@X@XX@XX@@@@@@@@@X@XX@XX@@@@",
"@@@@@@XXX@@@@@@@@@@@@@XXX@@@@@    @@@@XXX@@@@@@@@@@@@@XXX@@@@@@@",
"@@@@@XXX@@@@X@@@@@@@@XXX@@@@X OOOO @@XXX@@@@X@@@@@@@@XXX@@@@X@@@",
"X@@X@X@@@@@X@@@@X@@X@X@@@@@X@ OOOO X@X@@@@@X@@@@X@@X@X@@@@@X@@@@",
"@@X@@@@@@@XX@@@X@@X@@@@@@@XX@ ++++ @@@@@@@XX@@@X@@X@@@@@@@XX@@@X",
"@@@@@@@@@@@@@@XX@@@@@@@@@@@@@ ++++ @@@@@@@@@@@XX@@@@@@@@@@@@@@XX",
"@@@@@@@@@@@@@@@@@@@@@@@@@@@@@ ++++ @@@@@@@@@@@@@@@@@@@@@@@@@@@@@",
"@@@@@@@X@@@@@@@@@@@@@@@X@@@@@ ++++ @@@@X@@@@@@@@@@@@@@@X@@@@@@@@",
"@@X@@@@X@@@@XX@@@@X@@@@X@@@@X ++++ @@@@X@@@@XX@@@@X@@@@X@@@@XX@@",
"@X@@@@@@@@X@X@@@@X@@@@@@@@X@X ++++ @@@@@@@X@X@@@@X@@@@@@@@X@X@@@",
"X@@@@@@@@@X@@@XXX@@@@@@@@@X@@ ++++ @@@@@@@X@@@XXX@@@@@@@@@X@@@XX",
"@@@@@@@XX@@X@@XX@@@@@@@XX@@X@ oooo @@@@XX@@X@@XX@@@@@@@XX@@X@@XX",
"XX@@X@XX@@XXXX@@XX@@X@XX@@XXX oooo @X@XX@@XXXX@@XX@@X@XX@@XXXX@@",
"X@XX@@XX@XXXXX@@X@XX@@XX@XXXX OOOO X@@XX@XXXXX@@X@XX@@XX@XXXXX@@",
"X@XX@@@@XXXXX@@XX@XX@@@@XXXXX OOOO X@@@@XXXXX@@XX@XX@@@@XXXXX@@X",
"X@X@@X@@X@XXX@@XX@X@@X@@X@XXX OOOO @@X@@X@XXX@@XX@X@@X@@X@XXX@@X",
"@@@@@X@XX@XX@@@@@@@@@X@XX@XX@ OOOO @@X@XX@XX@@@@@@@@@X@XX@XX@@@@",
"@@@@@@XXX@@@@@@@@@@@@@XXX@@@@ oooo @@@XXX@@@@@@@@@@@@@XXX@@@@@@@",
"@@@@@XXX@@@@X@@@@@@@@XXX@@@@X@    @@@XXX@@@@X@@@@@@@@XXX@@@@X@@@",
"X@@X@X@@@@@X@@@@X@@X@X@@@@@X@@@@X@@X@X@@@@@X@@@@X@@X@X@@@@@X@@@@",
"@@X@@@@@@@XX@@@X@@X@@@@@@@XX@@@X@@X@@@@@@@XX@@@X@@X@@@@@@@XX@@@X",
"@@@@@@@@@@@@@@XX@@@@@@@@@@@@@@XX@@@@@@@@@@@@@@XX@@@@@@@@@@@@@@XX",
"@@@@@@@@@@@@@@@@@@@@@@@@@@@@@@@@@@@@@@@@@@@@@@@@@@@@@@@@@@@@@@@@",
"@@@@@@@X@@@@@@@@@@@@@@@X@@@@@@@@@@@@@@@X@@@@@@@@@@@@@@@X@@@@@@@@",
"@@X@@@@X@@@@XX@@@@X@@@@X@@@@X......@@@@X@@@@XX@@@@X@@@@X@@@@XX@@",
"@X@@@@@@@@X@X@@@@X@@@@@@@@X..........@@@@@X@X@@@@X@@@@@@@@X@X@@@",
"X@@@@@@@@@X@@@XXX@@@@@@@@@............@@@@X@@@XXX@@@@@@@@@X@@@XX",
"@@@@@@@XX@@X@@XX@@@@@@@XX@@..........@@XX@@X@@XX@@@@@@@XX@@X@@XX",
"XX@@X@XX@@XXXX@@XX@@X@XX@@XXX......@X@XX@@XXXX@@XX@@X@XX@@XXXX@@",
"X@XX@@XX@XXXXX@@X@XX@@XX@XXXXX@@X@XX@@XX@XXXXX@@X@XX@@XX@XXXXX@@",
"X@XX@@@@XXXXX@@XX@XX@@@@XXXXX@@XX@XX@@@@XXXXX@@XX@XX@@@@XXXXX@@X",
"X@X@@X@@X@XXX@@XX@X@@X@@X@XXX@@XX@X@@X@@X@XXX@@XX@X@@X@@X@XXX@@X",
"@@@@@X@XX@XX@@@@@@@@@X@XX@XX@@@@@@@@@X@XX@XX@@@@@@@@@X@XX@XX@@@@",
"@@@@@@XXX@@@@@@@@@@@@@XXX@@@@@@@@@@@@@XXX@@@@@@@@@@@@@XXX@@@@@@@",
"@@@@@XXX@@@@X@@@@@@@@XXX@@@@X@@@@@@@@XXX@@@@X@@@@@@@@XXX@@@@X@@@",
"X@@X@X@@@@@X@@@@X@@X@X@@@@@X@@@@X@@X@X@@@@@X@@@@X@@X@X@@@@@X@@@@",
"@@X@@@@@@@XX@@@X@@X@@@@@@@XX@@@X@@X@@@@@@@XX@@@X@@X@@@@@@@XX@@@X",
"@@@@@@@@@@@@@@XX@@@@@@@@@@@@@@XX@@@@@@@@@@@@@@XX@@@@@@@@@@@@@@XX",
"@@@@@@@@@@@@@@@@@@@@@@@@@@@@@@@@@@@@@@@@@@@@@@@@@@@@@@@@@@@@@@@@",
"@@@@@@@X@@@@@@@@@@@@@@@X@@@@@@@@@@@@@@@X@@@@@@@@@@@@@@@X@@@@@@@@",
"@@X@@@@X@@@@XX@@@@X@@@@X@@@@XX@@@@X@@@@X@@@@XX@@@@X@@@@X@@@@XX@@",
"@X@@@@@@@@X@X@@@@X@@@@@@@@X@X@@@@X@@@@@@@@X@X@@@@X@@@@@@@@X@X@@@",
"X@@@@@@@@@X@@@XXX@@@@@@@@@X@@@XXX@@@@@@@@@X@@@XXX@@@@@@@@@X@@@XX",
"@@@@@@@XX@@X@@XX@@@@@@@XX@@X@@XX@@@@@@@XX@@X@@XX@@@@@@@XX@@X@@XX",
"XX@@X@XX@@XXXX@@XX@@X@XX@@XXXX@@XX@@X@XX@@XXXX@@XX@@X@XX@@XXXX@@",
"X@XX@@XX@XXXXX@@X@XX@@XX@XXXXX@@X@XX@@XX@XXXXX@@X@XX@@XX@XXXXX@@"
};
