/* XPM */
static char *result[] = {
/* columns rows colors chars-per-pixel */
"64 64 53 1 ",
"  c #140C09",
". c #041506",
"X c #041606",
"o c #081509",
"O c #071E0A",
"+ c #160F17",
"@ c #1D131E",
"# c #24171D",
"$ c #09320B",
"% c #241D27",
"& c #281820",
"* c #172734",
"= c #2D2D2D",
"- c #23362A",
"; c #2E2533",
": c #2F2A38",
"> c #411E05",
", c #62351C",
"< c #19541D",
"1 c #3D3748",
"2 c #3B3948",
"3 c #4D4A5D",
"4 c #4A5057",
"5 c #535353",
"6 c #585361",
"7 c #686162",
"8 c #726B7E",
"9 c #897675",
"0 c #867E7F",
"q c #228236",
"w c #39AA4E",
"e c #669344",
"r c #53BF71",
"t c #809D49",
"y c #978C7B",
"u c #808080",
"i c #828A8E",
"p c #9A9A9A",
"a c #B19998",
"s c #B1B29A",
"d c #8AAAAB",
"f c gray63",
"g c #A8B3B8",
"h c #C4B59F",
"j c #A9C9CA",
"k c #C5C5C5",
"l c gray79",
"z c LightGray",
"x c #E5E6C7",
"c c #EAEAEA",
"v c #EFF3F0",
"b c gray94",
"n c gray98",
/* pixels */
"eteetttteeeeetteeteetttteeeeetteeteetttteeeeetteeteetttteeeeette",
"etettetteteeetteetettetteteeetteetettetteteeetteetettetteteeette",
"ttttteteeteettttttttteteeteettttttttteteeteettttttttteteeteetttt",
"tttttteeettttttttttttteeettttttttttttteeettttttttttttteeettttttt",
"ttttteeettttetttttttteeettttetttttttteeettttetttttttteeettttettt",
"ettetetttttettttettetetttttettttettetetttttettttettetetttttetttt",
"ttettttttteetttettettttttteetttettettttttteetttettettttttteettte",
"tttttttttttttteetttttttttttttteetttttttttttttteettttttttttttttee",
"tttttttttttttttttttttttttttttttttttttttttttttttttttttttttttttttt",
"tttttttetttttttttttttttetttttttttttttttetttttttttttttttetttttttt",
"ttettttetttteettttettttetttteettttettttetttteettttettttetttteett",
"tettttttttetettttettttttttetettttettttttttetettttettttttttetettt",
"etttttttttettteeetttttttttettteeetttttttttettteeetttttttttetttee",
"ttttttteettetteettttttteettetteettttttteettetteettttttteettettee",
"eetteteetteeeetteetteteetteeeetteetteteetteeeetteetteteetteeeett",
"eteetteeteeeeetteteetteeteeee      etteeteeeeetteteetteeteeeeett",
"eteetttteeeeetteetee..tteee  <qqqq<  tttee..etteeteetttteeeeette",
"etettetteteeetteetett..tet  <<wwww<<  tte..eetteetettetteteeette",
"ttttteteeteettttttttt.<.et <<wwwwww<< te.<.ettttttttteteeteetttt",
"tttttteeetttttttttttt.q<...<wwwwwwww<...<q.ttttttttttteeettttttt",
"ttttteeettttetttttttt.$q<$qqqq<<<<qqqq$<q$.tetttttttteeettttettt",
"ettetetttttettttettete$q$$qwwwqqqqwwwq$$q$tettttettetetttttetttt",
"ttettttttteetttettettt.w<q<<qrr<<rrq<<q<w.eetttettettttttteettte",
"tttttttttttttteetttttt.w<qq$..qqqq..$qq<w.tttteettttttttttttttee",
"tttttttttttttttttttttt.w.qql*.<<<<.*lqq.w.tttttttttttttttttttttt",
"tttttttettttttttttttttt..$ql<.twqt.<lq$..ttttttttttttttetttttttt",
"ttettttetttteettttetttte.$w<<<wwqw<<<w$.tttteettttettttetttteett",
"tettttttttetettttetttttt.$ewwww<<wwwwt$.ttetettttettttttttetettt",
"etttttttttettteeettttttt.ueqwrrwwrrwqtu.ttettteeetttttttttetttee",
"ttttttteettetteetttttt#.$ut<wrrrrrrw<tu$O&tetteettttttteettettee",
"eetteteetteeeetteettetv.<ue<<qwwwwq<<tu<oteeeetteetteteetteeeett",
"eteetteeteeeeetteteett+++<-..........-<+++@eeetteteetteeteeeeett",
"eteetttteeeeetteeteett+2+@qqwwwqqwwwqqq+2+8@@tteeteetttteeeeette",
"etettetteteeetteetet@@+76%<qqqwwwwqqq<%67+081@teetettetteteeette",
"ttttteteeteettttttt@38+967%%Xqqqqqq.%%777+008@ttttttteteeteetttt",
"tttttteeetttttttttt@8a+i67s7++++++++7i76i+008;@ttttttteeettttttt",
"ttttteeettttettttt@38a+@@@@ki777777iy772s+003;@tttttteeettttettt",
"ettetettt@@@@tttet@380+@444@kssy9ysy77727+331;@tettetetttttetttt",
"ttettttt@jjjj@@@@@@;38@444@79yks7997777:2+11@@@ettettttttteettte",
"ttttttttt@@@@4jj44@@@@d444@777is7777776%%+@==3@ettttttttttttttee",
"ttttttttttttt@@@@@444djdd4@@777y6777762%%==kk==ttttttttttttttttt",
"tttttttetttttttttt@@@4djjd44@@@>>777762%==kbzp=ttttttttetttttttt",
"ttettttetttteetttt@x0@@dd@@@444@,>>>>>2%=pcbzz=tttettttetttteett",
"tettttttttetettt@@@0==@44@66@@@@@,,,,,>>+=5nzf=ttettttttttetettt",
"etttttttttetttee@d@=pz@44@2667776@@@@@,,+=zzfp=>etttttttttetttee",
"ttttttteettetteet@d@@@44@+%266662662%%@@=ppkf=,,>>>>>tteettettee",
"eetteteetteeeette@jd4444@@@@@226222%++8;@====@@@,,,,,>>>>>eeeett",
"eteetteeteeeeettet@jddddddjj@+++++++0a03@eeeeett@@@@@,,,,,>>>>@t",
"eteetttteeeeetteet=@@jjjjj@@83@;;@80ah03@eeeetteeteet@@@@@,,,,@e",
"etettetteteeetteet=pf@@@@@0083@@@@80gx03@teeetteetettettet@@@@@e",
"ttttteteeteettttttt=fkpf=@@@@@@tt@30xxg;@teettttttttteteeteetttt",
"tttttteeettttttttttt====@@@@;@@tt&@@@@@@@ttttttttttttteeettttttt",
"ttttteeettttettttttttee@;;;;@@@tt@@;80;@ttttetttttttteeettttettt",
"ettetetttttettttettetet@80333;@tet@3gx8@tttettttettetetttttetttt",
"ttettttttteetttettettt@3;;;33;@ett@;@@@@@teetttettettttttteettte",
"tttttttttttttteetttttt@;3a3;;;@ett@@a031@ttttteettttttttttttttee",
"tttttttttttttttttttttt@@0g0;@@ttt@@8xaa0;@tttttttttttttttttttttt",
"tttttttettttttttttttttt@@@@@@tttt@18;t0;3@tttttttttttttetttttttt",
"ttettttetttteettttettttetttteettt@3;;33;1@tteettttettttetttteett",
"tettttttttetettttettttttttetetttt@;;;;;;@@etettttettttttttetettt",
"etttttttttettteeetttttttttettteeet@@@@@@@tettteeetttttttttetttee",
"ttttttteettetteettttttteettetteettttttteettetteettttttteettettee",
"eetteteetteeeetteetteteetteeeetteetteteetteeeetteetteteetteeeett",
"eteetteeteeeeetteteetteeteeeeetteteetteeteeeeetteteetteeteeeeett"
};
