/* XPM */
static char *result[] = {
/* columns rows colors chars-per-pixel */
"64 64 50 1 ",
"  c #140C09",
". c #041506",
"X c #061507",
"o c #160F17",
"O c #1D131E",
"+ c #09320B",
"@ c #241D27",
"# c #281820",
"$ c #172734",
"% c #2D2D2D",
"& c #23362A",
"* c #2E2533",
"= c #2F2A38",
"- c #411E05",
"; c #62351C",
": c #19541D",
"> c #3D3748",
", c #3B3948",
"< c #4D4A5D",
"1 c #4A5057",
"2 c #535353",
"3 c #585361",
"4 c #686162",
"5 c #726B7E",
"6 c #897675",
"7 c #867E7F",
"8 c #228236",
"9 c #39AA4E",
"0 c #669344",
"q c #53BF71",
"w c #809D49",
"e c #978C7B",
"r c #808080",
"t c #828A8E",
"y c #9A9A9A",
"u c #B19998",
"i c #B1B29A",
"p c #8AAAAB",
"a c gray63",
"s c #A8B3B8",
"d c #C4B59F",
"f c #A9C9CA",
"g c #C5C5C5",
"h c gray79",
"j c LightGray",
"k c #E5E6C7",
"l c #E6E8E6",
"z c #EAEAEA",
"x c gray94",
"c c gray98",
/* pixels */
"0w00wwww00000ww00w00wwww00000ww00w00wwww00000ww00w00wwww00000ww0",
"0w0ww0ww0w000ww00w0ww0ww0w000ww00w0ww0ww0w000ww00w0ww0ww0w000ww0",
"wwwww0w00w00wwwwwwwww0w00w00wwwwwwwww0w00w00wwwwwwwww0w00w00wwww",
"wwwwww000wwwwwwwwwwwww000wwwwwwwwwwwww000wwwwwwwwwwwww000wwwwwww",
"wwwww000wwww0wwwwwwww000wwww0wwwwwwww000wwww0wwwwwwww000wwww0www",
"0ww0w0wwwww0wwww0ww0w0wwwww0wwww0ww0w0wwwww0wwww0ww0w0wwwww0wwww",
"ww0wwwwwww00www0ww0wwwwwww00www0ww0wwwwwww00www0ww0wwwwwww00www0",
"wwwwwwwwwwwwww00wwwwwwwwwwwwww00wwwwwwwwwwwwww00wwwwwwwwwwwwww00",
"wwwwwwwwwwwwwwwwwwwwwwwwwwwwwwwwwwwwwwwwwwwwwwwwwwwwwwwwwwwwwwww",
"wwwwwww0wwwwwwwwwwwwwww0wwwwwwwwwwwwwww0wwwwwwwwwwwwwww0wwwwwwww",
"ww0wwww0wwww00wwww0wwww0wwww00wwww0wwww0wwww00wwww0wwww0wwww00ww",
"w0wwwwwwww0w0wwww0wwwwwwww0w0wwww0wwwwwwww0w0wwww0wwwwwwww0w0www",
"0wwwwwwwww0www000wwwwwwwww0www000wwwwwwwww0www000wwwwwwwww0www00",
"wwwwwww00ww0ww00wwwwwww00ww0ww00wwwwwww00ww0ww00wwwwwww00ww0ww00",
"00ww0w00ww0000ww00ww0w00ww0000ww00ww0w00ww0000ww00ww0w00ww0000ww",
"0w00ww00w00000ww0w00ww00w0000      0ww00w00000ww0w00ww00w00000ww",
"0w00wwww00000ww00w00..ww000  :8888:  www00..0ww00w00wwww00000ww0",
"0w0ww0ww0w000ww00w0ww..w0w  ::9999::  ww0..00ww00w0ww0ww0w000ww0",
"wwwww0w00w00wwwwwwwww.:.0w ::999999:: w0.:.0wwwwwwwww0w00w00wwww",
"wwwwww000wwwwwwwwwwww.8:...:99999999:...:8.wwwwwwwwwww000wwwwwww",
"wwwww000wwww0wwwwwwww.+8:+8888::::8888+:8+.w0wwwwwwww000wwww0www",
"0ww0w0wwwww0wwww0ww0w0+8++899988889998++8+w0wwww0ww0w0wwwww0wwww",
"ww0wwwwwww00www0ww0www.9:8::8qq::qq8::8:9.00www0ww0wwwwwww00www0",
"wwwwwwwwwwwwww00wwwwww.9:88+..8888..+88:9.wwww00wwwwwwwwwwwwww00",
"wwwwwwwwwwwwwwwwwwwwww.9.88h$.::::.$h88.9.wwwwwwwwwwwwwwwwwwwwww",
"wwwwwww0wwwwwwwwwwwwwww..+8h:.w98w.:h8+..wwwwwwwwwwwwww0wwwwwwww",
"ww0wwww0wwww00wwww0wwww0.+9:::9989:::9+.wwww00wwww0wwww0wwww00ww",
"w0wwwwwwww0w0wwww0wwwwww.+09999::9999w+.ww0w0wwww0wwwwwwww0w0www",
"0wwwwwwwww0www000wwwwwww.r089qq99qq98wr.ww0www000wwwwwwwww0www00",
"wwwwwww00ww0ww00wwwwwwl.+rw:9qqqqqq9:wr+Xww0ww00wwwwwww00ww0ww00",
"00ww0w00ww0000ww00ww0Oooor0::899998::wroooO000ww00ww0w00ww0000ww",
"0w00ww00w00000ww0w0OOso,o:&..........&:o,o5OO0ww0w00ww00w00000ww",
"0w00wwww00000ww00wO<5ko43@889998899988@34o75>Ow00w00wwww00000ww0",
"0w0ww0ww0w000ww00wO5u0o634@@88999988@@444o775Ow00w0ww0ww0w000ww0",
"wwwww0w00OOOwwwwwO<5ukot34i4oooooooo4t43to775*Owwwwww0w00w00wwww",
"wwwwww000OffOOOwwO<57uoOO4igt444444te44,io77<*Owwwwwww000wwwwwww",
"wwwww000wwOOfpfOOO*<57O11OOegiie6eie444,4o<<>*Owwwwww000wwww0www",
"0ww0w0wwwww0OOOfppOO<<O111O46egi4664444=,o>>OOOw0ww0w0wwwww0wwww",
"ww0wwwwwww00wwwOO111OO111O4444ti4444443@@oOOO<O0ww0wwwwwww00www0",
"wwwwwwwwwwwwww00wO11pfpp1OO4444e344443,@@oO<u7O0wwwwwwwwwwwwww00",
"wwwwwwwwwwwwwwwwwOOOppffp11OOO46344443,@ow%%%7Owwwwwwwwwwwwwwwww",
"wwwwwww0wwwwwwwOO%%yO1ppOOO111O--4433,,@ow%jy%%wwwwwwww0wwwwwwww",
"ww0wwww0wwww00wOpOygO111O,3OOO;;;---3,@@o%%ggy%www0wwww0wwww00ww",
"w0wwwwwwww0w0wwOpOycO11Oo@,334OOO;;;---o%%gxjy%ww0wwwwwwww0w0www",
"0wwwwwwwww0www0OfpOO111O<o@,3333,OOO;;;-%gzxjj%00wwwwwwwww0www00",
"wwwwwww00ww0ww00Opp1111OOOoo@,,3,,,@OOO;#%2cja%0wwwwwww00ww0ww00",
"00ww0w00ww0000ww0OppppppffO7oooooooo77uO#%jjay%-00ww0w00ww0000ww",
"0w00ww00w00000ww0wO1fffOOOu75O****O57ud7%ayga%;;---0ww00w00000ww",
"0w00wwww00000ww00w0%OOO<7ks75OOOOOO57sk7<%%%%OOO;;;---ww00000ww0",
"0w0ww0ww0w000ww00w0ww0O*sk77<Ow00wO<77ks*O000ww0OOO;;;---w000ww0",
"wwwww0w00w00wwwwwwwww0OOOOOOOwwwwwwOOOOOOO00wwwwwwwOOO;;;---wwww",
"wwwwww000wwwwwwwwwwwwwO*s5*OOwwwwwwOO*57*OwwwwwwwwwwwwOOO;;;--ww",
"wwwww000wwww0wwwwwwww0O7k7<O0wwwwwwwO<sk5Oww0wwwwwwww000wOOO;;Ow",
"0ww0w0wwwww0wwww0ww0w0OOOO*Owwww0ww0O*OOOOw0wwww0ww0w0wwwww0OOww",
"ww0wwwwwww00www0ww0wwO<s77OOOww0ww0OOOs77<O0www0ww0wwwwwww00www0",
"wwwwwwwwwwwwww00wwwwO<5**75OOw00wwwOO5k**7Owww00wwwwwwwwwwwwww00",
"wwwwwwwwwwwwwwwwwwwwO5*ws*5<OwwwwwwO<5*w7*<Owwwwwwwwwwwwwwwwwwww",
"wwwwwww0wwwwwwwwwwwwO*7ks7<*OwwwwwwO**7ks7*Owwwwwwwwwww0wwwwwwww",
"ww0wwww0wwww00wwww0wO<577<**O0wwww0wO*<775<O00wwww0wwww0wwww00ww",
"w0wwwwwwww0w0wwww0wwwO*5<*OO0wwww0wwwO*<5*Ow0wwww0wwwwwwww0w0www",
"0wwwwwwwww0www000wwwwwO**O0www000wwwwwO**O0www000wwwwwwwww0www00",
"wwwwwww00ww0ww00wwwwwwwOOww0ww00wwwwwwwOOww0ww00wwwwwww00ww0ww00",
"00ww0w00ww0000ww00ww0w00ww0000ww00ww0w00ww0000ww00ww0w00ww0000ww",
"0w00ww00w00000ww0w00ww00w00000ww0w00ww00w00000ww0w00ww00w00000ww"
};
