/* XPM */
static char *result[] = {
/* columns rows colors chars-per-pixel */
"64 64 52 1 ",
"  c #140C09",
". c #041506",
"X c #041606",
"o c #160F17",
"O c #1D131E",
"+ c #09320B",
"@ c #152517",
"# c #241D27",
"$ c #172734",
"% c #2D2D2D",
"& c #233225",
"* c #23362A",
"= c #2E2533",
"- c #2F2A38",
"; c #411E05",
": c #62351C",
"> c #19541D",
", c #3D3748",
"< c #3B3948",
"1 c #4D4A5D",
"2 c #4A5057",
"3 c #535353",
"4 c #585361",
"5 c #686162",
"6 c #726B7E",
"7 c #897675",
"8 c #867E7F",
"9 c #228236",
"0 c #39AA4E",
"q c #669344",
"w c #53BF71",
"e c #809D49",
"r c #978C7B",
"t c #808080",
"y c #828A8E",
"u c #9A9A9A",
"i c #B19998",
"p c #B1B29A",
"a c #8AAAAB",
"s c gray63",
"d c #A8B3B8",
"f c #C4B59F",
"g c #A9C9CA",
"h c #C5C5C5",
"j c gray79",
"k c LightGray",
"l c #E5E6C7",
"z c #E6E8E6",
"x c #EAEAEA",
"c c #EFF3F0",
"v c gray94",
"b c gray98",
/* pixels */
"qeqqeeeeqqqqqeeqqeqqeeeeqqqqqeeqqeqqeeeeqqqqqeeqqeqqeeeeqqqqqeeq",
"qeqeeqeeqeqqqeeqqeqeeqeeqeqqqeeqqeqeeqeeqeqqqeeqqeqeeqeeqeqqqeeq",
"eeeeeqeqqeqqeeeeeeeeeqeqqeqqeeeeeeeeeqeqqeqqeeeeeeeeeqeqqeqqeeee",
"eeeeeeqqqeeeeeeeeeeeeeqqqeeeeeeeeeeeeeqqqeeeeeeeeeeeeeqqqeeeeeee",
"eeeeeqqqeeeeqeeeeeeeeqqqeeeeqeeeeeeeeqqqeeeeqeeeeeeeeqqqeeeeqeee",
"qeeqeqeeeeeqeeeeqeeqeqeeeeeqeeeeqeeqeqeeeeeqeeeeqeeqeqeeeeeqeeee",
"eeqeeeeeeeqqeeeqeeqeeeeeeeqqeeeqeeqeeeeeeeqqeeeqeeqeeeeeeeqqeeeq",
"eeeeeeeeeeeeeeqqeeeeeeeeeeeeeeqqeeeeeeeeeeeeeeqqeeeeeeeeeeeeeeqq",
"eeeeeeeeeeeeeeeeeeeeeeeeeeeeeeeeeeeeeeeeeeeeeeeeeeeeeeeeeeeeeeee",
"eeeeeeeqeeeeeeeeeeeeeeeqeeeeeeeeeeeeeeeqeeeeeeeeeeeeeeeqeeeeeeee",
"eeqeeeeqeeeeqqeeeeqeeeeqeeeeqqeeeeqeeeeqeeeeqqeeeeqeeeeqeeeeqqee",
"eqeeeeeeeeqeqeeeeqeeeeeeeeqeqeeeeqeeeeeeeeqeqeeeeqeeeeeeeeqeqeee",
"qeeeeeeeeeqeeeqqqeeeeeeeeeqeeeqqqeeeeeeeeeqeeeqqqeeeeeeeeeqeeeqq",
"eeeeeeeqqeeqeeqqeeeeeeeqqeeqeeqqeeeeeeeqqeeqeeqqeeeeeeeqqeeqeeqq",
"qqeeqeqqeeqqqqeeqqeeqeqqeeqqqqeeqqeeqeqqeeqqqqeeqqeeqeqqeeqqqqee",
"qeqqeeqqeqqqqqeeqeqqeeqqeqqqq      qeeqqeqqqqqeeqeqqeeqqeqqqqqee",
"qeqqeeeeqqqqqeeqqeqq..eeqqq  >9999>  eeeqq..qeeqqeqqeeeeqqqqqeeq",
"qeqeeqeeqeqqqeeqqeqee..eqe  >>0000>>  eeq..qqeeqqeqeeqeeqeqqqeeq",
"eeeeeqeqqeqqeeeeeeeee.>.qe >>000000>> eq.>.qeeeeeeeeeqeqqeqqeeee",
"eeeeeeqqqeeeeeeeeeeee.9>...>00000000>...>9.eeeeeeeeeeeqqqeeeeeee",
"eeeeeqqqeeeeqeeeeeeee.+9>+9999>>>>9999+>9+.eqeeeeeeeeqqqeeeeqeee",
"qeeqeqeeeeeqeeeeqeeqeq+9++900099990009++9+eqeeeeqeeqeqeeeeeqeeee",
"eeqeeeeeeeqqeeeqeeqeee.0>9>>9ww>>ww9>>9>0.qqeeeqeeqeeeeeeeqqeeeq",
"eeeeeeeeeeeeeeqqeeeeee.0>99+..9999..+99>0.eeeeqqeeeeeeeeeeeeeeqq",
"eeeeeeeeeeeeeeeeeeeeee.0.99j$.>>>>.$j99.0.eeeeeeeeeeeeeeeeeeeeee",
"eeeeeeeqeeeeeeeeeeeeeee..+9j>.e09e.>j9+..eeeeeeeeeeeeeeqeeeeeeee",
"eeqeeeeqeeeeqqeeeeqeeeeq.+0>>>0090>>>0+.eeeeqqeeeeqeeeeqeeeeqqee",
"eqeeeeeeeeqeqeeeeqeeeeee.+q0000>>0000e+.eeqeqeeeeqeeeeeeeeqeqeee",
"qeeeeeeeeeqeeeqqqeeeeeee.tq90ww00ww09et.eeqeeeqqqeeeeeeeeeqeeeqq",
"eeeeeeeqqeeqeeqqeeeeeez.+te>0wwwwww0>et+@eeqeeqqeeeeeeeqqeeqeeqq",
"qqeeqeqqeeqqqqeeqqeeqec.>tq>>900009>>et>&eqqqqeeqqeeqeqqeeqqqqee",
"qeqqeeqqeqqqqqeeqeqqeOooo>*..........*>oooqqqqeeqeqqeeqqeqqqqqee",
"qeqqeeeeqqqqqeeqqeqOO6o<o99900099000999o<oqqqeeqqeqqeeeeqqqqqeeq",
"qeqeeqeeqeqqqeeqqeO,68o54#>9990000999>#45oOOqeeqqeqeeqeeqeqqqeeq",
"eeeeeqeqqeqqeeeeeeO688o745##X999999.##555o61Oeeeeeeeeqeqqeqqeeee",
"eeeeeeqqqeeeeeeeeO=688oy45p5oooooooo5y54yoi6Oeeeeeeeeeqqqeeeeeee",
"eeeeeqqqeeeeqeeeeO=188op<5phy555555yr55<poi61Oeeeeeeeqqqeeeeqeee",
"qeeqeqeeOOOqeeeeqO=,11o5<5yrhppr7rpr555<5o861Oeeqeeqeqeeeeeqeeee",
"eeqeeeeeOggOOOeqeOO%%%OO-5557rhp5775555-<o61=Oeqeeqeeeeeeeqqeeeq",
"eeeeeeeeeOOgagOOO%%ukO22OO5555yp5555554##o1OOOqqeeeeeeeeeeeeeeqq",
"eeeeeeeeeeeOOOgaaOOhhO222O55555r455554<##oOO1Oeeeeeeeeeeeeeeeeee",
"eeeeeeeqeeeeeeOO222OO222O5555557455554<#oO1i8Oeeeeeeeeeqeeeeeeee",
"eeqeeeeqeeeeqqeeO22agaa2OO55555545544<<#oOlf8Oeeeeqeeeeqeeeeqqee",
"eqeeeeeeeeqeqeeeeOOaagga22OOO55545544<##o%%%8Oeeeqeeeeeeeeqeqeee",
"qeeeeeeeeeqeeeOOq%uO2aaOOO222O;;4544<##oo%ku%%qqqeeeeeeeeeqeeeqq",
"eeeeeeeqqeeqeeOaOe%O222OOoOOO:::;;;<##oO%%hhu%qqeeeeeeeqqeeqeeqq",
"qqeeqeqqeeqqqqOaOqeO22OO=6oo#OOO:::;;;6%%hvku%eeqqeeqeqqeeqqqqee",
"qeqqeeqqeqqqqqOgaOO222OO18i8ooooOOO:::;%hxvkk%eeqeqqeeqqeqqqqqee",
"qeqqeeeeqqqqqeeOaa2222OOO8fi86O==O1OOO:1%3bks%eqqeqqeeeeqqqqqeeq",
"qeqeeqeeqeqqqeeqOaaaaaaggOld86OOOO1688O=%kksu%;qqeqeeqeeqeqqqeeq",
"eeeeeqeqqeqqeeeeeO2gggOOOdll81OeeOOOOOO%suhs%::;;;eeeqeqqeqqeeee",
"eeeeeeqqqeeeeeeeeeeOOOqOOOOOOOOeeOO=OOOO%%%%OOO:::;;;eqqqeeeeeee",
"eeeeeqqqeeeeqeeeeeeeeqqqO=86=OOeeOOO====OeeeqeeOOO:::;;;eeeeqeee",
"qeeqeqeeeeeqeeeeqeeqeqeeO6ld1OeeqOO11186OeeqeeeeqeOOO:::;;;qeeee",
"eeqeeeeeeeqqeeeqeeqeeeeOOOOO=OeqeO=11===1OqqeeeqeeqeeOOO:::;;eeq",
"eeeeeeeeeeeeeeqqeeeeeeeO,18iOOqqeO===1i1=OeeeeqqeeeeeeeeOOO::Oqq",
"eeeeeeeeeeeeeeeeeeeeeeO=8iil6OOeeeO==8d8OOeeeeeeeeeeeeeeeeeOOeee",
"eeeeeeeqeeeeeeeeeeeeeeO1=8e=6,OeeeeOOOOOOeeeeeeeeeeeeeeqeeeeeeee",
"eeqeeeeqeeeeqqeeeeqeeeO,=11==1Oeeeqeeeeqeeeeqqeeeeqeeeeqeeeeqqee",
"eqeeeeeeeeqeqeeeeqeeeeOO======Oeeqeeeeeeeeqeqeeeeqeeeeeeeeqeqeee",
"qeeeeeeeeeqeeeqqqeeeeeeOOOOOOOqqqeeeeeeeeeqeeeqqqeeeeeeeeeqeeeqq",
"eeeeeeeqqeeqeeqqeeeeeeeqqeeqeeqqeeeeeeeqqeeqeeqqeeeeeeeqqeeqeeqq",
"qqeeqeqqeeqqqqeeqqeeqeqqeeqqqqeeqqeeqeqqeeqqqqeeqqeeqeqqeeqqqqee",
"qeqqeeqqeqqqqqeeqeqqeeqqeqqqqqeeqeqqeeqqeqqqqqeeqeqqeeqqeqqqqqee"
};
