/* XPM */
static char *result[] = {
/* columns rows colors chars-per-pixel */
"64 64 68 1 ",
"  c #140C09",
". c #041506",
"X c #160F17",
"o c #170F18",
"O c #1D131E",
"+ c #191F1C",
"@ c #09320B",
"# c #241D27",
"$ c #251F2A",
"% c #261F2A",
"& c #172734",
"* c #2D2D2D",
"= c #23362A",
"- c #2E2533",
"; c #35323F",
": c #411E05",
"> c #62351C",
", c #493F3F",
"< c #19541D",
"1 c #3A3745",
"2 c #3B3948",
"3 c #494142",
"4 c #4D4A5D",
"5 c #534E5D",
"6 c #4A5057",
"7 c #535353",
"8 c #5E5252",
"9 c #56505F",
"0 c #615750",
"q c #635D5F",
"w c #575261",
"e c #585361",
"r c #595361",
"t c #605B68",
"y c #666061",
"u c #686162",
"i c #726B7E",
"p c #897675",
"a c #867E7F",
"s c #228236",
"d c #39AA4E",
"f c #669344",
"g c #7C857D",
"h c #53BF71",
"j c #809D49",
"k c #978C7B",
"l c #808080",
"z c #828A8E",
"x c #9C9B89",
"c c #9A9A9A",
"v c #B19998",
"b c #A2A18D",
"n c #B1B29A",
"m c #8AAAAB",
"M c gray63",
"N c #A8B3B8",
"B c #BDBBBA",
"V c #BFBEBD",
"C c #C4B59F",
"Z c #A9C9CA",
"A c #C4C2C1",
"S c #C5C5C5",
"D c gray79",
"F c LightGray",
"G c #E5E6C7",
"H c #EAEAEA",
"J c gray94",
"K c gray98",
/* pixels */
"fjffjjjjfffffjjffjffjjjjfffffjjffjffjjjjfffffjjffjffjjjjfffffjjf",
"fjfjjfjjfjfffjjffjfjjfjjfjfffjjffjfjjfjjfjfffjjffjfjjfjjfjfffjjf",
"jjjjjfjffjffjjjjjjjjjfjffjffjjjjjjjjjfjffjffjjjjjjjjjfjffjffjjjj",
"jjjjjjfffjjjjjjjjjjjjjfffjjjjjjjjjjjjjfffjjjjjjjjjjjjjfffjjjjjjj",
"jjjjjfffjjjjfjjjjjjjjfffjjjjfjjjjjjjjfffjjjjfjjjjjjjjfffjjjjfjjj",
"fjjfjfjjjjjfjjjjfjjfjfjjjjjfjjjjfjjfjfjjjjjfjjjjfjjfjfjjjjjfjjjj",
"jjfjjjjjjjffjjjfjjfjjjjjjjffjjjfjjfjjjjjjjffjjjfjjfjjjjjjjffjjjf",
"jjjjjjjjjjjjjjffjjjjjjjjjjjjjjffjjjjjjjjjjjjjjffjjjjjjjjjjjjjjff",
"jjjjjjjjjjjjjjjjjjjjjjjjjjjjjjjjjjjjjjjjjjjjjjjjjjjjjjjjjjjjjjjj",
"jjjjjjjfjjjjjjjjjjjjjjjfjjjjjjjjjjjjjjjfjjjjjjjjjjjjjjjfjjjjjjjj",
"jjfjjjjfjjjjffjjjjfjjjjfjjjjffjjjjfjjjjfjjjjffjjjjfjjjjfjjjjffjj",
"jfjjjjjjjjfjfjjjjfjjjjjjjjfjfjjjjfjjjjjjjjfjfjjjjfjjjjjjjjfjfjjj",
"fjjjjjjjjjfjjjfffjjjjjjjjjfjjjfffjjjjjjjjjfjjjfffjjjjjjjjjfjjjff",
"jjjjjjjffjjfjjffjjjjjjjffjjfjjffjjjjjjjffjjfjjffjjjjjjjffjjfjjff",
"ffjjfjffjjffffjjffjjfjffjjffffjjffjjfjffjjffffjjffjjfjffjjffffjj",
"fjffjjffjfffffjjfjffjjffjfffffjjfjffjjffjfffffjjfjffjjffjfffffjj",
"fjffjjjjfffffjjffjffjjjjfffffjjffjffjjjjfffffjjffjffjjjjfffffjjf",
"fjfjjfjjfjfffjjffjfjjfjjfjfffjjffjfjjfjjfjfffjjffjfjjfjjfjfffjjf",
"jjjjjfjffjffjjjjjjjjjfjffjff     jjjjfjffjffjjjjjjjjjfjffjffjjjj",
"jjjjjjfffjjjjjjjjjjjjjfffj  @sss@  jjjf..jjjjjjjjjjjjjfffjjjjjjj",
"jjjjjfffjjjjfjjjjjjjjfffj @sdddhh@  j...jjjjfjjjjjjjjfffjjjjfjjj",
"fjjfjfjjjjjfjjjjfjjfjfjjj dddddhhd@..<<.jjjfjjjjfjjfjfjjjjjfjjjj",
"jjfjjjjjjjffjjjfjjfjjjjj..dddddddd.@s<s.jjffjjjfjjfjjjjjjjffjjjf",
"jjjjjjjjjjjjjjffjjjjjjjj.@ddddddds<s@@s.jjjjjjffjjjjjjjjjjjjjjff",
"jjjjjjjjjjjjjjjjjjjjjjjj.dddsdddsd@@@s@jjjjjjjjjjjjjjjjjjjjjjjjj",
"jjjjjjjfjjjjjjjjjjjjjjjf.ssdhhs<<d@<d.jfjjjjjjjjjjjjjjjfjjjjjjjj",
"jjfjjjjfjjjjffjjjjfjjjjf.@<ss..@sdd<d..fjjjjffjjjjfjjjjfjjjjffjj",
"jfjjjjjjjjfjfjjjjfjjjjjjj.<<<.&Dsdd.d..jjjfjfjjjjfjjjjjjjjfjfjjj",
"fjjjjjjjjjfjjjfffjjjjjjj.<sdj.<Dsdds.@.jjjfjjjfffjjjjjjjjjfjjjff",
"jjjjjjjffjjfjjffjjjjjjjf.dddd<<<dddds..ffjjfjjffjjjjjjjffjjfjjff",
"ffjjfjffjjffffjjffjjfjff.<<sddsj@ddds@.fjjffffjjffjjfjffjjffffjj",
"fjffjjffjfffffjjfjffjjf.l.@sddsjlssdsXXfjfffffjjfjffjjffjfffffjj",
"fjffjjjjfffffjjffjffjjj.l.sddd<flsddX$;Xfffffjjffjffjjjjfffffjjf",
"fjfjjfjjfjfffjjffjfjjfj.lX+dd<<flsdX;tXXOjfffjjffjfjjfjjfjfffjjf",
"jjjjjfjffjffjjjjjjjjjfjg.X2X...=<XXeuXCv4Offjjjjjjjjjfjffjffjjjj",
"jjjjjjfffjjjjjjjjjjjjjfAX2u%XXXXo19bXjNav-Ojjjjjjjjjjjfffjjjjjjj",
"jjjjjfffjjjjfjjjjjjjjffBXepruueequ5VXNaai4Ojfjjjjjjjjfffjjjjfjjj",
"fjjfjfjjjjjfjjjjfjjfjfjjXuSuenSppu5xXaai4-Ofjjjjfjjfjfjjjjjfjjjj",
"jjfjjjjjjjffjjjfjjfjjjjjX0nuzppuuu5yXi44-OOfjjjfjjfjjjjjjjffjjjf",
"jjjjjjjjjjjjjjffjjjjjjjjX0kupuuuue32wOOOO-Ojjjffjjjjjjjjjjjjjjff",
"jjjjjjjjjjjjjjjjjOOOOjjjX0puuuuuue,2#-ii4-Ojjjjjjjjjjjjjjjjjjjjj",
"jjjjjjjfjjjjjjjjO6666OjfX0ueuuuuee,2OvCNa4Ojjjjjjjjjjjjfjjjjjjjj",
"jjfjjjjfjjjjffjjjO66OjjfXeueuuuue,2OvjGaiOjjffjjjjfjjjjfjjjjffjj",
"jfjjjjjjjjfjfjOOOO66OjjjX2ueuuue***4CNai4Ofjfjjjjfjjjjjjjjfjfjjj",
"fjjjjOOOOOOOOO666mmmOOOOOOreuuu*SHJ*4ai4O::::::::::::::::::Ojjff",
"jjjOOZZZmm6mm666mZZZm666662eee*MHFKF*i4O>>>>>>>>>>>>>>>>>>>Ojjff",
"ffjjfOOOOOOOOO666mmmOOOOOOX#22**cKFM*4OOOOOOOOOOOOOOOOOOOOOOffjj",
"fjffjjffjfffffOOOO66OjffjOaXXX*7FFMc*OOfjfffffjjfjffjjffjfffffjj",
"fjffjjjjfffffjjffO66OjjjOaCNi4*cSSM*O-Ojfffffjjffjffjjjjfffffjjf",
"fjfjjfjjfjffOOjffO66OfjjOOCa4O-****-iO4Ofjfffjjffjfjjfjjfjfffjjf",
"jjjjjfjffjffOmOOO6666OOOOCOOO-OjO-4iaaOOfjffjjjjjjjjjfjffjffjjjj",
"jjjjjjfffjjjjOZmmmmmmmmZaGN44OjjjO4iia4OOjjjjjjjjjjjjjfffjjjjjjj",
"jjjjjfffjjjjfjOOZZZZZZOOOvaiOjjjjjO4iiO4-Ojjfjjjjjjjjfffjjjjfjjj",
"fjjfjfjjjjjfjjjjOOOOOOO-4Oi4OjjjfjjO-Oia4OOfjjjjfjjfjfjjjjjfjjjj",
"jjfjjjjjjjffjjjfjjO4Naii-4OOjjjfjjfjO4aiO-4Ojjjfjjfjjjjjjjffjjjf",
"jjjjjjjjjjjjjjffjjjO-jGv-a-OjjffjjjjjOOO4a4Ojjffjjjjjjjjjjjjjjff",
"jjjjjjjjjjjjjjjjjjjjO-Ni-i4OjjjjjjjOO-8ia8-Ojjjjjjjjjjjjjjjjjjjj",
"jjjjjjjfjjjjjjjjjjjjjOO--4-OjjjjjjONi4-ai-Ojjjjjjjjjjjjfjjjjjjjj",
"jjfjjjjfjjjjffjjjjfjjjjOOOOjffjjjOfaaa4--Ojjffjjjjfjjjjfjjjjffjj",
"jfjjjjjjjjfjfjjjjfjjjjjjjjfjfjjjjOOOOOOOOjfjfjjjjfjjjjjjjjfjfjjj",
"fjjjjjjjjjfjjjfffjjjjjjjjjfjjjfffjjjjjjjjjfjjjfffjjjjjjjjjfjjjff",
"jjjjjjjffjjfjjffjjjjjjjffjjfjjffjjjjjjjffjjfjjffjjjjjjjffjjfjjff",
"ffjjfjffjjffffjjffjjfjffjjffffjjffjjfjffjjffffjjffjjfjffjjffffjj",
"fjffjjffjfffffjjfjffjjffjfffffjjfjffjjffjfffffjjfjffjjffjfffffjj"
};
