/* XPM */
static char *result[] = {
/* columns rows colors chars-per-pixel */
"64 64 71 1 ",
"  c #140C09",
". c #041506",
"X c #160F17",
"o c #160F18",
"O c #170F18",
"+ c #141015",
"@ c #161017",
"# c #141316",
"$ c #1D131E",
"% c #171B1A",
"& c #09320B",
"* c #241D27",
"= c #251F2A",
"- c #261F2A",
"; c #172734",
": c #2D2D2D",
"> c #2E2533",
", c #35323F",
"< c #411E05",
"1 c #62351C",
"2 c #493F3F",
"3 c #19541D",
"4 c #3A3745",
"5 c #3B3948",
"6 c #494142",
"7 c #4D4A5D",
"8 c #534E5D",
"9 c #4A5057",
"0 c #535353",
"q c #5E5252",
"w c #56505F",
"e c #615750",
"r c #635D5F",
"t c #575261",
"y c #585361",
"u c #595361",
"i c #605B68",
"p c #666061",
"a c #686162",
"s c #726B7E",
"d c #897675",
"f c #867E7F",
"g c #228236",
"h c #39AA4E",
"j c #669344",
"k c #7C857D",
"l c #53BF71",
"z c #809D49",
"x c #978C7B",
"c c #808080",
"v c #828A8E",
"b c #9C9B89",
"n c #9A9A9A",
"m c #B19998",
"M c #A2A18D",
"N c #B1B29A",
"B c #8AAAAB",
"V c gray63",
"C c #A8B3B8",
"Z c #BDBBBA",
"A c #BFBEBD",
"S c #C4B59F",
"D c #A9C9CA",
"F c #C4C2C1",
"G c #C5C5C5",
"H c gray79",
"J c LightGray",
"K c #E5E6C7",
"L c #EAEAEA",
"P c gray94",
"I c gray98",
/* pixels */
"jzjjzzzzjjjjjzzjjzjjzzzzjjjjjzzjjzjjzzzzjjjjjzzjjzjjzzzzjjjjjzzj",
"jzjzzjzzjzjjjzzjjzjzzjzzjzjjjzzjjzjzzjzzjzjjjzzjjzjzzjzzjzjjjzzj",
"zzzzzjzjjzjjzzzzzzzzzjzjjzjjzzzzzzzzzjzjjzjjzzzzzzzzzjzjjzjjzzzz",
"zzzzzzjjjzzzzzzzzzzzzzjjjzzzzzzzzzzzzzjjjzzzzzzzzzzzzzjjjzzzzzzz",
"zzzzzjjjzzzzjzzzzzzzzjjjzzzzjzzzzzzzzjjjzzzzjzzzzzzzzjjjzzzzjzzz",
"jzzjzjzzzzzjzzzzjzzjzjzzzzzjzzzzjzzjzjzzzzzjzzzzjzzjzjzzzzzjzzzz",
"zzjzzzzzzzjjzzzjzzjzzzzzzzjjzzzjzzjzzzzzzzjjzzzjzzjzzzzzzzjjzzzj",
"zzzzzzzzzzzzzzjjzzzzzzzzzzzzzzjjzzzzzzzzzzzzzzjjzzzzzzzzzzzzzzjj",
"zzzzzzzzzzzzzzzzzzzzzzzzzzzzzzzzzzzzzzzzzzzzzzzzzzzzzzzzzzzzzzzz",
"zzzzzzzjzzzzzzzzzzzzzzzjzzzzzzzzzzzzzzzjzzzzzzzzzzzzzzzjzzzzzzzz",
"zzjzzzzjzzzzjjzzzzjzzzzjzzzzjjzzzzjzzzzjzzzzjjzzzzjzzzzjzzzzjjzz",
"zjzzzzzzzzjzjzzzzjzzzzzzzzjzjzzzzjzzzzzzzzjzjzzzzjzzzzzzzzjzjzzz",
"jzzzzzzzzzjzzzjjjzzzzzzzzzjzzzjjjzzzzzzzzzjzzzjjjzzzzzzzzzjzzzjj",
"zzzzzzzjjzzjzzjjzzzzzzzjjzzjzzjjzzzzzzzjjzzjzzjjzzzzzzzjjzzjzzjj",
"jjzzjzjjzzjjjjzzjjzzjzjjzzjjjjzzjjzzjzjjzzjjjjzzjjzzjzjjzzjjjjzz",
"jzjjzzjjzjjjjjzzjzjjzzjjzjjjjjzzjzjjzzjjzjjjjjzzjzjjzzjjzjjjjjzz",
"jzjjzzzzjjjjjzzjjzjjzzzzjjjjjzzjjzjjzzzzjjjjjzzjjzjjzzzzjjjjjzzj",
"jzjzzjzzjzjjjzzjjzjzzjzzjzjjjzzjjzjzzjzzjzjjjzzjjzjzzjzzjzjjjzzj",
"zzzzzjzjjzjjzzzzzzzzzjzjjzjj     zzzzjzjjzjjzzzzzzzzzjzjjzjjzzzz",
"zzzzzzjjjzzzzzzzzzzzzzjjjz  &ggg&  zzzj..zzzzzzzzzzzzzjjjzzzzzzz",
"zzzzzjjjzzzzjzzzzzzzzjjjz &ghhhll&  z...zzzzjzzzzzzzzjjjzzzzjzzz",
"jzzjzjzzzzzjzzzzjzzjzjzzz hhhhhllh&..33.zzzjzzzzjzzjzjzzzzzjzzzz",
"zzjzzzzzzzjjzzzjzzjzzzzz..hhhhhhhh.&g3g.zzjjzzzjzzjzzzzzzzjjzzzj",
"zzzzzzzzzzzzzzjjzzzzzzzz.&hhhhhhhg3g&&g.zzzzzzjjzzzzzzzzzzzzzzjj",
"zzzzzzzzzzzzzzzzzzzzzzzz.hhhghhhgh&&&g&zzzzzzzzzzzzzzzzzzzzzzzzz",
"zzzzzzzjzzzzzzzzzzzzzzzj.gghllg33h&3h.zjzzzzzzzzzzzzzzzjzzzzzzzz",
"zzjzzzzjzzzzjjzzzzjzzzzj.&3gg..&ghh3h..jzzzzjjzzzzjzzzzjzzzzjjzz",
"zjzzzzzzzzjzjzzzzjzzzzzzz.333.;Hghh.h..zzzjzjzzzzjzzzzzzzzjzjzzz",
"jzzzzzzzzzjzzzjjjzzzzzzz.3ghz.3Hghhg.&.zzzjzzzjjjzzzzzzzzzjzzzjj",
"zzzzzzzjjzzjzzjjzzzzzzzj.hhhh333hhhhg..jjzzjzzjjzzzzzzzjjzzjzzjj",
"jjzzjzjjzzjjjjzzjjzzjzjj.33ghhgz&hhhg#+jzzjjjjzzjjzzjzjjzzjjjjzz",
"jzjjzzjjzjjjjjzzjzjjzzj.c.&ghhgzcgghX=,ozjjjjjzzjzjjzzjjzjjjjjzz",
"jzjjzzzzjjjjjzzjjzjjzzz.cX%hhh3jcghX,iXX$jjjjzzjjzjjzzzzjjjjjzzj",
"jzjzzjzzjzjjjzzjjzjzzjz.cX5Xh33jc@XyaXSm7$jjjzzjjzjzzjzzjzjjjzzj",
"zzzzzjzjjzjjzzzzzzzzzjzkX5a-XXXXO4wMXjCfm>$jzzzzzzzzzjzjjzjjzzzz",
"zzzzzzjjjzzzzzzzzzzzzzjFXyduaayyra8AXCffs7$zzzzzzzzzzzjjjzzzzzzz",
"zzzzzjjjzzzzjzzzzzzzzjjZXaGayNGdda8bXffs7>$zjzzzzzzzzjjjzzzzjzzz",
"jzzjzjzzzzzjzzz$$$$jzjzzXeNavddaaa8pXs77>$$jzzzzjzzjzjzzzzzjzzzz",
"z$$$$zzzzzjjzzz$999$zzzzXexadaaaay65tX$$$7$jzzzjzzjzzzzzzzjjzzzj",
"$DDDD$$$$$zzzz$999$zzzzzXedaaaaaay25*X>fff$zzzjjzzzzzzzzzzzzzzjj",
"z$$$$9DD99$$$$B999$zzzzzXeayaaaayy25*X7Kfs$zzzzzzzzzzzzzzzzzzzzz",
"zzzzz$$$$$999BDBB9$$zzzjXyayaaaay255*XsSfq$zzzzzzzzzzzzjzzzzzzzz",
"zzjzzzzjzz$$$9BDDB99$$$::5ayaaayy25**:::s7$zjjzzzzjzzzzjzzzzjjzz",
"zjzzzzzzzzjzj$$BB$$$999:G:uyaaay25**:GLP:7$zjzzzzjzzzzzzzzjzjzzz",
"jzzzzzzz$$jzzz$99$zz$$$:J:5yyyy25**:VLJIJ:$zzzjjjzzzzzzzzzjzzzjj",
"zzzzzzzj$B$jzz$99$zzzzz:n:X*5525***::nIJV:zjzzjjzzzzzzzjjzzjzzjj",
"jjzzjzjjz$B$$$99$jzzjzjj::fXXXXXXXX:0JJVn:<<<jzzjjzzjzjjzzjjjjzz",
"jzjjzzjjz$DB9999$$$$$zjjz$mSms$sSmm:nGGV:1111<<<<<jjzzjjzjjjjjzz",
"jzjjzzzzjj$DBBBBBBDD$zzzj$CKCs$7KSf7::::$$$$$11111<<<<$zjjjjjzzj",
"jzjzzjzzjzj$$DDDDD$$zjzzj$fKf7$$Sffs$7$zjzjjj$$$$$1111$zjzjjjzzj",
"zzzzzjzjjzjjz$$$$$zzzjzjjz$$$$>$fss7$>$jjzjjzzzzzz$$$$$jjzjjzzzz",
"zzzzzzjjjzzzzzzzzzzzzzjjjz$>Cs7$$$$$ss$jjzzzzzzzzzzzzzjjjzzzzzzz",
"zzzzzjjjzzzzjzzzzzzzzjjjzz$fKf7$$7fCfs$jzzzzjzzzzzzzzjjjzzzzjzzz",
"jzzjzjzzzzzjzzzzjzzjzjzzzz$$$$>$j$7ms7$zzzzjzzzzjzzjzjzzzzzjzzzz",
"zzjzzzzzzzjjzzzjzzjzzzzz$$sjm7$$z$$$$$>$zzjjzzzjzzjzzzzzzzjjzzzj",
"zzzzzzzzzzzzzzjjzzzzzz$$KC>szf7$$7sKCs7$zzzzzzjjzzzzzzzzzzzzzzjj",
"zzzzzzzzzzzzzzzzzzzzz$fzff>7ss>$>>7zff7$zzzzzzzzzzzzzzzzzzzzzzzz",
"zzzzzzzjzzzzzzzzzzzzz$$$$$$$$$$$ss>7fs>$zzzzzzzzzzzzzzzjzzzzzzzz",
"zzjzzzzjzzzzjjzzzzjzzzzjzzzzjj$szC7>7>$jzzzzjjzzzzjzzzzjzzzzjjzz",
"zjzzzzzzzzjzjzzzzjzzzzzzzzjzjz$KC7>$$$zzzzjzjzzzzjzzzzzzzzjzjzzz",
"jzzzzzzzzzjzzzjjjzzzzzzzzzjzzz$$$$$$zzzzzzjzzzjjjzzzzzzzzzjzzzjj",
"zzzzzzzjjzzjzzjjzzzzzzzjjzzjzzjjzzzzzzzjjzzjzzjjzzzzzzzjjzzjzzjj",
"jjzzjzjjzzjjjjzzjjzzjzjjzzjjjjzzjjzzjzjjzzjjjjzzjjzzjzjjzzjjjjzz",
"jzjjzzjjzjjjjjzzjzjjzzjjzjjjjjzzjzjjzzjjzjjjjjzzjzjjzzjjzjjjjjzz"
};
