/* XPM */
static char *result[] = {
/* columns rows colors chars-per-pixel */
"64 64 67 1 ",
"  c #140C09",
". c #041506",
"X c #160F17",
"o c #170F18",
"O c #161017",
"+ c #1D131E",
"@ c #09320B",
"# c #241D27",
"$ c #251F2A",
"% c #261F2A",
"& c #172734",
"* c #2D2D2D",
"= c #2E2533",
"- c #35323F",
"; c #411E05",
": c #62351C",
"> c #493F3F",
", c #19541D",
"< c #3A3745",
"1 c #3B3948",
"2 c #494142",
"3 c #4D4A5D",
"4 c #534E5D",
"5 c #4A5057",
"6 c #535353",
"7 c #5E5252",
"8 c #56505F",
"9 c #615750",
"0 c #635D5F",
"q c #575261",
"w c #585361",
"e c #595361",
"r c #605B68",
"t c #666061",
"y c #686162",
"u c #726B7E",
"i c #897675",
"p c #867E7F",
"a c #228236",
"s c #39AA4E",
"d c #669344",
"f c #7C857D",
"g c #53BF71",
"h c #809D49",
"j c #978C7B",
"k c #808080",
"l c #828A8E",
"z c #9C9B89",
"x c #9A9A9A",
"c c #B19998",
"v c #A2A18D",
"b c #B1B29A",
"n c #8AAAAB",
"m c gray63",
"M c #A8B3B8",
"N c #BDBBBA",
"B c #BFBEBD",
"V c #C4B59F",
"C c #A9C9CA",
"Z c #C4C2C1",
"A c #C5C5C5",
"S c gray79",
"D c LightGray",
"F c #E5E6C7",
"G c #EAEAEA",
"H c gray94",
"J c gray98",
/* pixels */
"dhddhhhhdddddhhddhddhhhhdddddhhddhddhhhhdddddhhddhddhhhhdddddhhd",
"dhdhhdhhdhdddhhddhdhhdhhdhdddhhddhdhhdhhdhdddhhddhdhhdhhdhdddhhd",
"hhhhhdhddhddhhhhhhhhhdhddhddhhhhhhhhhdhddhddhhhhhhhhhdhddhddhhhh",
"hhhhhhdddhhhhhhhhhhhhhdddhhhhhhhhhhhhhdddhhhhhhhhhhhhhdddhhhhhhh",
"hhhhhdddhhhhdhhhhhhhhdddhhhhdhhhhhhhhdddhhhhdhhhhhhhhdddhhhhdhhh",
"dhhdhdhhhhhdhhhhdhhdhdhhhhhdhhhhdhhdhdhhhhhdhhhhdhhdhdhhhhhdhhhh",
"hhdhhhhhhhddhhhdhhdhhhhhhhddhhhdhhdhhhhhhhddhhhdhhdhhhhhhhddhhhd",
"hhhhhhhhhhhhhhddhhhhhhhhhhhhhhddhhhhhhhhhhhhhhddhhhhhhhhhhhhhhdd",
"hhhhhhhhhhhhhhhhhhhhhhhhhhhhhhhhhhhhhhhhhhhhhhhhhhhhhhhhhhhhhhhh",
"hhhhhhhdhhhhhhhhhhhhhhhdhhhhhhhhhhhhhhhdhhhhhhhhhhhhhhhdhhhhhhhh",
"hhdhhhhdhhhhddhhhhdhhhhdhhhhddhhhhdhhhhdhhhhddhhhhdhhhhdhhhhddhh",
"hdhhhhhhhhdhdhhhhdhhhhhhhhdhdhhhhdhhhhhhhhdhdhhhhdhhhhhhhhdhdhhh",
"dhhhhhhhhhdhhhdddhhhhhhhhhdhhhdddhhhhhhhhhdhhhdddhhhhhhhhhdhhhdd",
"hhhhhhhddhhdhhddhhhhhhhddhhdhhddhhhhhhhddhhdhhddhhhhhhhddhhdhhdd",
"ddhhdhddhhddddhhddhhdhddhhddddhhddhhdhddhhddddhhddhhdhddhhddddhh",
"dhddhhddhdddddhhdhddhhddhdddddhhdhddhhddhdddddhhdhddhhddhdddddhh",
"dhddhhhhdddddhhddhddhhhhdddddhhddhddhhhhdddddhhddhddhhhhdddddhhd",
"dhdhhdhhdhdddhhddhdhhdhhdhdddhhddhdhhdhhdhdddhhddhdhhdhhdhdddhhd",
"hhhhhdhddhddhhhhhhhhhdhddhdd     hhhhdhddhddhhhhhhhhhdhddhddhhhh",
"hhhhhhdddhhhhhhhhhhhhhdddh  @aaa@  hhhd..hhhhhhhhhhhhhdddhhhhhhh",
"hhhhhdddhhhhdhhhhhhhhdddh @asssgg@  h...hhhhdhhhhhhhhdddhhhhdhhh",
"dhhdhdhhhhhdhhhhdhhdhdhhh sssssggs@..,,.hhhdhhhhdhhdhdhhhhhdhhhh",
"hhdhhhhhhhddhhhdhhdhhhhh..ssssssss.@a,a.hhddhhhdhhdhhhhhhhddhhhd",
"hhhhhhhhhhhhhhddhhhhhhhh.@sssssssa,a@@a.hhhhhhddhhhhhhhhhhhhhhdd",
"hhhhhhhhhhhhhhhhhhhhhhhh.sssasssas@@@a@hhhhhhhhhhhhhhhhhhhhhhhhh",
"hhhhhhhdhhhhhhhhhhhhhhhd.aasgga,,s@,s.hdhhhhhhhhhhhhhhhdhhhhhhhh",
"hhdhhhhdhhhhddhhhhdhhhhd.@,aa..@ass,s..dhhhhddhhhhdhhhhdhhhhddhh",
"hdhhhhhhhhdhdhhhhdhhhhhhh.,,,.&Sass.s..hhhdhdhhhhdhhhhhhhhdhdhhh",
"dhhhhhhhhhdhhhdddhhhhhhh.,ash.,Sassa.@.hhhdhhhdddhhhhhhhhhdhhhdd",
"hhhhhhhddhhdhhddhhhhhhhd.ssss,,,ssssa..ddhhdhhddhhhhhhhddhhdhhdd",
"ddhhdhddhhddddhhddhhdhdd.,,assah@sssaXXdhhddddhhddhhdhddhhddddhh",
"dhddhhddhdddddhhdhddhhd.k.@assahkaasX$-X+dddddhhdhddhhddhdddddhh",
"dhddhhhhdddddhhddhddhhh.kXOsss,dkasX-rXX3+dddhhddhddhhhhdddddhhd",
"dhdhhdhhdhdddhhddhdhhdh.kX1Xs,,dkXXwyXFVc3+ddhhddhdhhdhhdhdddhhd",
"hhhhhdhddhddhhhhhhhhhdhfX1y%XXXXo<8vXFhMpc=+hhhhhhhhhdhddhddhhhh",
"hhhhhhdddhhhhhhhhhhhhhdZXwieyyww0y4BXcMppu3+hhhhhhhhhhdddhhhhhhh",
"hhhhhdddhhhhdhhhhhhhhddNXyAywbAiiy4zXpppu3=+dhhhhhhhhdddhhhhdhhh",
"dhhdhdhhhhhdhhhhdhhdhdhhX9byliiyyy4tXuu33=+++hhhdhhdhdhhhhhdhhhh",
"hhdhhhhhhhddhhhdhhdhhhhhX9jyiyyyyw21qXX+++=3+hhdhhdhhhhhhhddhhhd",
"hhhhhhhhhhhhhhd++++hhhhhX9iyyyyyyw>1#>1X=3pu+hddhhhhhhhhhhhhhhdd",
"h++++hhhhhhhhhh+555+hhhhX9ywyyyyww>1###X3Mpu+hhhhhhhhhhhhhhhhhhh",
"+CCCC+++++hhhh+555+hhhhdXwywyyyyw>11###XuFpu+hhhhhhhhhhdhhhhhhhh",
"h++++5CC55++++n555+hhhh**1ywyyyww>1####XuVpu3+hhhhdhhhhdhhhhddhh",
"hdhhh+++++555nCnn5++hh*m6*ewyyyw>1####Xh****=+hhhdhhhhhhhhdhdhhh",
"dhhhhhhhhh+++5nCCn55++*Hm*1wwww>1#####Xh*mHG*+dddhhhhhhhhhdhhhdd",
"hhhhhhhddhhdh++nn+++55*Dmx*#11>1#####XX*xGJDx*ddhhhhhhhddhhdhhdd",
"ddhhdhdd++dddd+55+hh++*Amx*XXXXXXXXXXXd*AHDDA*hhddhhdhddhhddddhh",
"dhddhhdd+n+ddd+55+ddhh*x66*+pMVu3+3+=+;**ADAx*hhdhddhhddhdddddhh",
"dhddhhhhd+n+++55+hddhhh***+uphp3+3+=+::*6xAm*hhddhddhhhhdddddhhd",
"dhdhhdhhd+Cn5555+++++dhhdh+3uFp+3+=3++++****:;;;;;dhhdhhdhdddhhd",
"hhhhhdhddh+CnnnnnnCC+dhddh++++3+=+3=+dhd+++++:::::;;;;+ddhddhhhh",
"hhhhhhdddhh++CCCCC++hhdddh+pMu+++=3==+dddhhhh+++++::::+ddhhhhhhh",
"hhhhhdddhhhhd+++++hhhdddhh+pVp3=+=+7=+ddhhhhdhhhhh+++++dhhhhdhhh",
"dhhdhdhhhhhdhhhhdhhdhdhhhh++up3+++337++hhhhdhhhhdhhdhdhhhhhdhhhh",
"hhdhhhhhhhddhhhdhhdhhh++++=3++=++==3+=+hhhddhhhdhhdhhhhhhhddhhhd",
"hhhhhhhhhhhhhhddhhhhhh+=hcp=73++++++===+hhhhhhddhhhhhhhhhhhhhhdd",
"hhhhhhhhhhhhhhhhhhhhhhh+=7cp=p3+=3773==+hhhhhhhhhhhhhhhhhhhhhhhh",
"hhhhhhhdhhhhhhhhhhhhhhhd+=37=77+37733==+hhhhhhhhhhhhhhhdhhhhhhhh",
"hhdhhhhdhhhhddhhhhdhhhhdh++===3++++++++dhhhhddhhhhdhhhhdhhhhddhh",
"hdhhhhhhhhdhdhhhhdhhhhhhhhd++++hhdhhhhhhhhdhdhhhhdhhhhhhhhdhdhhh",
"dhhhhhhhhhdhhhdddhhhhhhhhhdhhhdddhhhhhhhhhdhhhdddhhhhhhhhhdhhhdd",
"hhhhhhhddhhdhhddhhhhhhhddhhdhhddhhhhhhhddhhdhhddhhhhhhhddhhdhhdd",
"ddhhdhddhhddddhhddhhdhddhhddddhhddhhdhddhhddddhhddhhdhddhhddddhh",
"dhddhhddhdddddhhdhddhhddhdddddhhdhddhhddhdddddhhdhddhhddhdddddhh"
};
