/* XPM */
static char *result[] = {
/* columns rows colors chars-per-pixel */
"64 64 68 1 ",
"  c #140C09",
". c #041506",
"X c #160F17",
"o c #170F18",
"O c #1D131E",
"+ c #191F1C",
"@ c #09320B",
"# c #241D27",
"$ c #251F2A",
"% c #261F2A",
"& c #172734",
"* c #2D2D2D",
"= c #23362A",
"- c #2E2533",
"; c #35323F",
": c #411E05",
"> c #62351C",
", c #493F3F",
"< c #19541D",
"1 c #3A3745",
"2 c #3B3948",
"3 c #494142",
"4 c #4D4A5D",
"5 c #534E5D",
"6 c #4A5057",
"7 c #535353",
"8 c #5E5252",
"9 c #56505F",
"0 c #615750",
"q c #635D5F",
"w c #575261",
"e c #585361",
"r c #595361",
"t c #605B68",
"y c #666061",
"u c #686162",
"i c #726B7E",
"p c #897675",
"a c #867E7F",
"s c #228236",
"d c #39AA4E",
"f c #669344",
"g c #7C857D",
"h c #53BF71",
"j c #809D49",
"k c #978C7B",
"l c #808080",
"z c #828A8E",
"x c #9C9B89",
"c c #9A9A9A",
"v c #B19998",
"b c #A2A18D",
"n c #B1B29A",
"m c #8AAAAB",
"M c gray63",
"N c #A8B3B8",
"B c #BDBBBA",
"V c #BFBEBD",
"C c #C4B59F",
"Z c #A9C9CA",
"A c #C4C2C1",
"S c #C5C5C5",
"D c gray79",
"F c LightGray",
"G c #E5E6C7",
"H c #EAEAEA",
"J c gray94",
"K c gray98",
/* pixels */
"fjffjjjjfffffjjffjffjjjjfffffjjffjffjjjjfffffjjffjffjjjjfffffjjf",
"fjfjjfjjfjfffjjffjfjjfjjfjfffjjffjfjjfjjfjfffjjffjfjjfjjfjfffjjf",
"jjjjjfjffjffjjjjjjjjjfjffjffjjjjjjjjjfjffjffjjjjjjjjjfjffjffjjjj",
"jjjjjjfffjjjjjjjjjjjjjfffjjjjjjjjjjjjjfffjjjjjjjjjjjjjfffjjjjjjj",
"jjjjjfffjjjjfjjjjjjjjfffjjjjfjjjjjjjjfffjjjjfjjjjjjjjfffjjjjfjjj",
"fjjfjfjjjjjfjjjjfjjfjfjjjjjfjjjjfjjfjfjjjjjfjjjjfjjfjfjjjjjfjjjj",
"jjfjjjjjjjffjjjfjjfjjjjjjjffjjjfjjfjjjjjjjffjjjfjjfjjjjjjjffjjjf",
"jjjjjjjjjjjjjjffjjjjjjjjjjjjjjffjjjjjjjjjjjjjjffjjjjjjjjjjjjjjff",
"jjjjjjjjjjjjjjjjjjjjjjjjjjjjjjjjjjjjjjjjjjjjjjjjjjjjjjjjjjjjjjjj",
"jjjjjjjfjjjjjjjjjjjjjjjfjjjjjjjjjjjjjjjfjjjjjjjjjjjjjjjfjjjjjjjj",
"jjfjjjjfjjjjffjjjjfjjjjfjjjjffjjjjfjjjjfjjjjffjjjjfjjjjfjjjjffjj",
"jfjjjjjjjjfjfjjjjfjjjjjjjjfjfjjjjfjjjjjjjjfjfjjjjfjjjjjjjjfjfjjj",
"fjjjjjjjjjfjjjfffjjjjjjjjjfjjjfffjjjjjjjjjfjjjfffjjjjjjjjjfjjjff",
"jjjjjjjffjjfjjffjjjjjjjffjjfjjffjjjjjjjffjjfjjffjjjjjjjffjjfjjff",
"ffjjfjffjjffffjjffjjfjffjjffffjjffjjfjffjjffffjjffjjfjffjjffffjj",
"fjffjjffjfffffjjfjffjjffjfffffjjfjffjjffjfffffjjfjffjjffjfffffjj",
"fjffjjjjfffffjjffjffjjjjfffffjjffjffjjjjfffffjjffjffjjjjfffffjjf",
"fjfjjfjjfjfffjjffjfjjfjjfjfffjjffjfjjfjjfjfffjjffjfjjfjjfjfffjjf",
"jjjjjfjffjffjjjjjjjjjfjffjffjjj     jfjffjffjjjjjjjjjfjffjffjjjj",
"jjjjjjfffjjjjjjjjjjjjjf..jjjj  @sss@  fffjjjjjjjjjjjjjfffjjjjjjj",
"jjjjjfffjjjjfjjjjjjjjfff...j  @hhddds@ fjjjjfjjjjjjjjfffjjjjfjjj",
"fjjfjfjjjjjfjjjjfjjfjfjj.<<..@dhhddddd jjjjfjjjjfjjfjfjjjjjfjjjj",
"jjfjjjjjjjffjjjfjjfjjjjj.s<s@.dddddddd..jjffjjjfjjfjjjjjjjffjjjf",
"jjjjjjjjjjjjjjffjjjjjjjj.s@@s<sddddddd@.jjjjjjffjjjjjjjjjjjjjjff",
"jjjjjjjjjjjjjjjjjjjjjjjjj@s@@@dsdddsddd.jjjjjjjjjjjjjjjjjjjjjjjj",
"jjjjjjjfjjjjjjjjjjjjjjjfjj.d<@d<<shhdss.jjjjjjjjjjjjjjjfjjjjjjjj",
"jjfjjjjfjjjjffjjjjfjjjjfj..d<dds@..ss<@.jjjjffjjjjfjjjjfjjjjffjj",
"jfjjjjjjjjfjfjjjjfjjjjjjj..d.ddsD&.<<<.jjjfjfjjjjfjjjjjjjjfjfjjj",
"fjjjjjjjjjfjjjfffjjjjjjjj.@.sddsD<.jds<.jjfjjjfffjjjjjjjjjfjjjff",
"jjjjjjjffjjfjjffjjjjjjjff..sdddd<<<dddd.fjjfjjffjjjjjjjffjjfjjff",
"ffjjfjffjjffffjjffjjfjffj.@sddd@fsdds<<.jjffffjjffjjfjffjjffffjj",
"fjffjjffjfffffjjfjffjjffjXXsdsslfsdds@.l.fffffjjfjffjjffjfffffjj",
"fjffjjjjfffffjjffjffjjjjX;$Xddslf<ddds.l.ffffjjffjffjjjjfffffjjf",
"fjfjjfjjfjfffjjffjfjjfjOXXt;Xdslf<<dd+Xl.jfffjjffjfjjfjjfjfffjjf",
"jjjjjfjffjffjjjjjjjjjfO4vCXueXX<=...X2X.gjffjjjjjjjjjfjffjffjjjj",
"jjjjjjfffjjjjjjjjjjjjO-vaNjXb91oXXXX%u2XAjjjjjjjjjjjjjfffjjjjjjj",
"jjjjjfffjjjjfjjjjjjjjO4iaaNXV5uqeeuurpeXBjjjfjjjjjjjjfffjjjjfjjj",
"fjjfjfjjjjjfjjjjfjjfjO-4iaaXx5uppSneuSuXjjjfjjjjfjjfjfjjjjjfjjjj",
"jjfjjjjjjjffjjjfjjfjjOO-44iXy5uuuppzun0Xjjffjjjfjjfjjjjjjjffjjjf",
"jjjjjjjjjjjjjjffjjjjjO-OOOOw23euuuupuk0Xjjjjjjffjjjjjjjjjjjjjjff",
"jjjjjjjjjjjjjjjjjjjjjO-4vi-#2,euuuuuup0XjjjOOOOjjjjjjjjjjjjjjjjj",
"jjjjjjjfjjjjjjjjjjjjjO4aNCvO2,eeuuuueu0XjjO6666Ojjjjjjjfjjjjjjjj",
"jjfjjjjfjjjjffjjjjfjjjOiaGjvO2,euuuueueXjjjO66Ojjjfjjjjfjjjjffjj",
"jfjjjjjjjjfjfjjjjfjjjjO4iaNC4***euuueu2XjjfO66OOOOjjjjjjjjfjfjjj",
"fjjjO::::::::::::::::::O4ia4*JHS*uuuerOOOOOOmmm666OOOOOOOOOjjjff",
"jjjjO>>>>>>>>>>>>>>>>>>>O4i*FKFHM*eee266666mZZZm666mm6mmZZZOOjff",
"ffjjOOOOOOOOOOOOOOOOOOOOOO4*MFKc**22#XOOOOOOmmm666OOOOOOOOOfffjj",
"fjffjjffjfffffjjfjffjjffjOO*cMFF7*XXXaOfjffO66OOOOffjjffjfffffjj",
"fjffjjjjfffffjjffjffjjjjfO-O*MSSc*4iNCaOfffO66Offjffjjjjfffffjjf",
"fjfjjfjjfjfffjjffjfjjfjjO4Oi-****-O4aCOOfjfO66OffjOOjfjjfjfffjjf",
"jjjjjfjffjffjjjjjjjjjfjfOOaai4-OjO-OOOCOOOO6666OOOmOjfjffjffjjjj",
"jjjjjjfffjjjjjjjjjjjjjfOO4aii4OjjjO44NGaZmmmmmmmmZOjjjfffjjjjjjj",
"jjjjjfffjjjjfjjjjjjjjfO-4Oii4OjjjjjOiavOOOZZZZZZOOjjjfffjjjjfjjj",
"fjjfjfjjjjjfjjjjfjjfjOO4aiO-OjjjfjjO4iO4-OOOOOOOfjjfjfjjjjjfjjjj",
"jjfjjjjjjjffjjjfjjfjO4-Oia4OjjjfjjfjOO4-iiaN4Ojfjjfjjjjjjjffjjjf",
"jjjjjjjjjjjjjjffjjjjO4a4OOOjjjffjjjjO-a-vGj-Ojffjjjjjjjjjjjjjjff",
"jjjjjjjjjjjjjjjjjjjjO-8ai8-OOjjjjjjjO4i-iN-Ojjjjjjjjjjjjjjjjjjjj",
"jjjjjjjfjjjjjjjjjjjjjO-ia-4iNOjjjjjjO-4--OOjjjjjjjjjjjjfjjjjjjjj",
"jjfjjjjfjjjjffjjjjfjjjO--4aaafOjjjfjjOOOOjjjffjjjjfjjjjfjjjjffjj",
"jfjjjjjjjjfjfjjjjfjjjjjOOOOOOOOjjfjjjjjjjjfjfjjjjfjjjjjjjjfjfjjj",
"fjjjjjjjjjfjjjfffjjjjjjjjjfjjjfffjjjjjjjjjfjjjfffjjjjjjjjjfjjjff",
"jjjjjjjffjjfjjffjjjjjjjffjjfjjffjjjjjjjffjjfjjffjjjjjjjffjjfjjff",
"ffjjfjffjjffffjjffjjfjffjjffffjjffjjfjffjjffffjjffjjfjffjjffffjj",
"fjffjjffjfffffjjfjffjjffjfffffjjfjffjjffjfffffjjfjffjjffjfffffjj"
};
