/* XPM */
static char *result[] = {
/* columns rows colors chars-per-pixel */
"64 64 71 1 ",
"  c #140C09",
". c #041506",
"X c #160F17",
"o c #160F18",
"O c #170F18",
"+ c #141015",
"@ c #161017",
"# c #141316",
"$ c #1D131E",
"% c #171B1A",
"& c #09320B",
"* c #241D27",
"= c #251F2A",
"- c #261F2A",
"; c #172734",
": c #2D2D2D",
"> c #2E2533",
", c #35323F",
"< c #411E05",
"1 c #62351C",
"2 c #493F3F",
"3 c #19541D",
"4 c #3A3745",
"5 c #3B3948",
"6 c #494142",
"7 c #4D4A5D",
"8 c #534E5D",
"9 c #4A5057",
"0 c #535353",
"q c #5E5252",
"w c #56505F",
"e c #615750",
"r c #635D5F",
"t c #575261",
"y c #585361",
"u c #595361",
"i c #605B68",
"p c #666061",
"a c #686162",
"s c #726B7E",
"d c #897675",
"f c #867E7F",
"g c #228236",
"h c #39AA4E",
"j c #669344",
"k c #7C857D",
"l c #53BF71",
"z c #809D49",
"x c #978C7B",
"c c #808080",
"v c #828A8E",
"b c #9C9B89",
"n c #9A9A9A",
"m c #B19998",
"M c #A2A18D",
"N c #B1B29A",
"B c #8AAAAB",
"V c gray63",
"C c #A8B3B8",
"Z c #BDBBBA",
"A c #BFBEBD",
"S c #C4B59F",
"D c #A9C9CA",
"F c #C4C2C1",
"G c #C5C5C5",
"H c gray79",
"J c LightGray",
"K c #E5E6C7",
"L c #EAEAEA",
"P c gray94",
"I c gray98",
/* pixels */
"jzjjzzzzjjjjjzzjjzjjzzzzjjjjjzzjjzjjzzzzjjjjjzzjjzjjzzzzjjjjjzzj",
"jzjzzjzzjzjjjzzjjzjzzjzzjzjjjzzjjzjzzjzzjzjjjzzjjzjzzjzzjzjjjzzj",
"zzzzzjzjjzjjzzzzzzzzzjzjjzjjzzzzzzzzzjzjjzjjzzzzzzzzzjzjjzjjzzzz",
"zzzzzzjjjzzzzzzzzzzzzzjjjzzzzzzzzzzzzzjjjzzzzzzzzzzzzzjjjzzzzzzz",
"zzzzzjjjzzzzjzzzzzzzzjjjzzzzjzzzzzzzzjjjzzzzjzzzzzzzzjjjzzzzjzzz",
"jzzjzjzzzzzjzzzzjzzjzjzzzzzjzzzzjzzjzjzzzzzjzzzzjzzjzjzzzzzjzzzz",
"zzjzzzzzzzjjzzzjzzjzzzzzzzjjzzzjzzjzzzzzzzjjzzzjzzjzzzzzzzjjzzzj",
"zzzzzzzzzzzzzzjjzzzzzzzzzzzzzzjjzzzzzzzzzzzzzzjjzzzzzzzzzzzzzzjj",
"zzzzzzzzzzzzzzzzzzzzzzzzzzzzzzzzzzzzzzzzzzzzzzzzzzzzzzzzzzzzzzzz",
"zzzzzzzjzzzzzzzzzzzzzzzjzzzzzzzzzzzzzzzjzzzzzzzzzzzzzzzjzzzzzzzz",
"zzjzzzzjzzzzjjzzzzjzzzzjzzzzjjzzzzjzzzzjzzzzjjzzzzjzzzzjzzzzjjzz",
"zjzzzzzzzzjzjzzzzjzzzzzzzzjzjzzzzjzzzzzzzzjzjzzzzjzzzzzzzzjzjzzz",
"jzzzzzzzzzjzzzjjjzzzzzzzzzjzzzjjjzzzzzzzzzjzzzjjjzzzzzzzzzjzzzjj",
"zzzzzzzjjzzjzzjjzzzzzzzjjzzjzzjjzzzzzzzjjzzjzzjjzzzzzzzjjzzjzzjj",
"jjzzjzjjzzjjjjzzjjzzjzjjzzjjjjzzjjzzjzjjzzjjjjzzjjzzjzjjzzjjjjzz",
"jzjjzzjjzjjjjjzzjzjjzzjjzjjjjjzzjzjjzzjjzjjjjjzzjzjjzzjjzjjjjjzz",
"jzjjzzzzjjjjjzzjjzjjzzzzjjjjjzzjjzjjzzzzjjjjjzzjjzjjzzzzjjjjjzzj",
"jzjzzjzzjzjjjzzjjzjzzjzzjzjjjzzjjzjzzjzzjzjjjzzjjzjzzjzzjzjjjzzj",
"zzzzzjzjjzjjzzzzzzzzzjzjjzjjzzz     zjzjjzjjzzzzzzzzzjzjjzjjzzzz",
"zzzzzzjjjzzzzzzzzzzzzzj..zzzz  &ggg&  jjjzzzzzzzzzzzzzjjjzzzzzzz",
"zzzzzjjjzzzzjzzzzzzzzjjj...z  &llhhhg& jzzzzjzzzzzzzzjjjzzzzjzzz",
"jzzjzjzzzzzjzzzzjzzjzjzz.33..&hllhhhhh zzzzjzzzzjzzjzjzzzzzjzzzz",
"zzjzzzzzzzjjzzzjzzjzzzzz.g3g&.hhhhhhhh..zzjjzzzjzzjzzzzzzzjjzzzj",
"zzzzzzzzzzzzzzjjzzzzzzzz.g&&g3ghhhhhhh&.zzzzzzjjzzzzzzzzzzzzzzjj",
"zzzzzzzzzzzzzzzzzzzzzzzzz&g&&&hghhhghhh.zzzzzzzzzzzzzzzzzzzzzzzz",
"zzzzzzzjzzzzzzzzzzzzzzzjzz.h3&h33gllhgg.zzzzzzzzzzzzzzzjzzzzzzzz",
"zzjzzzzjzzzzjjzzzzjzzzzjz..h3hhg&..gg3&.zzzzjjzzzzjzzzzjzzzzjjzz",
"zjzzzzzzzzjzjzzzzjzzzzzzz..h.hhgH;.333.zzzjzjzzzzjzzzzzzzzjzjzzz",
"jzzzzzzzzzjzzzjjjzzzzzzzz.&.ghhgH3.zhg3.zzjzzzjjjzzzzzzzzzjzzzjj",
"zzzzzzzjjzzjzzjjzzzzzzzjj..ghhhh333hhhh.jzzjzzjjzzzzzzzjjzzjzzjj",
"jjzzjzjjzzjjjjzzjjzzjzjjz+#ghhh&jghhg33.zzjjjjzzjjzzjzjjzzjjjjzz",
"jzjjzzjjzjjjjjzzjzjjzzjjo,=Xhggcjghhg&.c.jjjjjzzjzjjzzjjzjjjjjzz",
"jzjjzzzzjjjjjzzjjzjjzzz$XXi,Xhgcj3hhh%Xc.jjjjzzjjzjjzzzzjjjjjzzj",
"jzjzzjzzjzjjjzzjjzjzzj$7mSXayX@cj33hX5Xc.zjjjzzjjzjzzjzzjzjjjzzj",
"zzzzzjzjjzjjzzzzzzzzz$>mfCjXMw4OXXXX-a5Xkzjjzzzzzzzzzjzjjzjjzzzz",
"zzzzzzjjjzzzzzzzzzzzz$7sffCXA8aryyaaudyXFzzzzzzzzzzzzzjjjzzzzzzz",
"zzzzzjjjzzzzjzzzzzzzz$>7sffXb8addGNyaGaXZzzzjzzzzzzzzjjjzzzzjzzz",
"jzzjzjzzzzzjzzzzjzzjz$$>77sXp8aaaddvaNeXzzzjz$$$$zzjzjzzzzzjzzzz",
"zzjzzzzzzzjjzzzjzzjzz$7$$$Xt56yaaaadaxeXzzjj$999$zjzzzzzzzj$$$$j",
"zzzzzzzzzzzzzzjjzzzzz$fff>X*52yaaaaaadeXzzzzz$999$zzzz$$$$$DDDD$",
"zzzzzzzzzzzzzzzzzzzzz$sfK7X*52yyaaaayaeXzzzzz$999B$$$$99DD9$$$$z",
"zzzzzzzjzzzzzzzzzzzzz$qfSsX*552yaaaayayXzzzz$$9BBDB999$$$$$zzzzz",
"zzjzzzzjzzzzjjzzzzjzz$7s:::**52yyaaaya5::$$$99BDDB9$$$zjzzzzjjzz",
"zjzzzzzzzzjzjzzzzjzzz$7:PLG:**52yaaayu:G:999$$$BB$$zzzzzzzjzjzzz",
"jzzzzzzzzzjzzzjjjzzzz$:JIJLV:**52yyyy5:J:$$$zz$99$zzzz$$zzjzzzjj",
"zzzzzzzjjzzjzzjjzzzzzz:VJIn::***5255*X:n:zzjzz$99$zzz$B$jzzjzzjj",
"jjzzjzjjzzjjjjzzjjz<<<:nVJJ0:XXXXXXXXf::zzjjjjz$99$$$B$jzzjjjjzz",
"jzjjzzjjzjjjjj<<<<<1111:VGGn:mmSs$smSm$jzjj$$$$$9999BD$jzjjjjjzz",
"jzjjzzzzj$<<<<11111$$$$$::::7fSK7$sCKC$zjjj$DDBBBBBBD$zzjjjjjzzj",
"jzjzzjzzj$1111$$$$$zzjzzj$7$sffS$$7fKf$zjzjj$$DDDDD$$jzzjzjjjzzj",
"zzzzzjzjj$$$$$zzzzzzzjzjj$>$7ssf$>$$$$zjjzjjzz$$$$$zzjzjjzjjzzzz",
"zzzzzzjjjzzzzzzzzzzzzzjjj$ss$$$$$7sC>$jjjzzzzzzzzzzzzzjjjzzzzzzz",
"zzzzzjjjzzzzjzzzzzzzzjjjz$sfCf7$$7fKf$jjzzzzjzzzzzzzzjjjzzzzjzzz",
"jzzjzjzzzzzjzzzzjzzjzjzzz$7sm7$z$>$$$$zzzzzjzzzzjzzjzjzzzzzjzzzz",
"zzjzzzzzzzjjzzzjzzjzzzzz$>$$$$$j$$7mzs$$zzjjzzzjzzjzzzzzzzjjzzzj",
"zzzzzzzzzzzzzzjjzzzzzzzz$7sCKs7$$7fzs>CK$$zzzzjjzzzzzzzzzzzzzzjj",
"zzzzzzzzzzzzzzzzzzzzzzzz$7ffz7>>$>ss7>ffzf$zzzzzzzzzzzzzzzzzzzzz",
"zzzzzzzjzzzzzzzzzzzzzzzj$>sf7>ss$$$$$$$$$$$zzzzzzzzzzzzjzzzzzzzz",
"zzjzzzzjzzzzjjzzzzjzzzzjz$>7>7Czs$jzzzzjzzzzjjzzzzjzzzzjzzzzjjzz",
"zjzzzzzzzzjzjzzzzjzzzzzzzz$$$>7CK$zzzzzzzzjzjzzzzjzzzzzzzzjzjzzz",
"jzzzzzzzzzjzzzjjjzzzzzzzzzjz$$$$$$zzzzzzzzjzzzjjjzzzzzzzzzjzzzjj",
"zzzzzzzjjzzjzzjjzzzzzzzjjzzjzzjjzzzzzzzjjzzjzzjjzzzzzzzjjzzjzzjj",
"jjzzjzjjzzjjjjzzjjzzjzjjzzjjjjzzjjzzjzjjzzjjjjzzjjzzjzjjzzjjjjzz",
"jzjjzzjjzjjjjjzzjzjjzzjjzjjjjjzzjzjjzzjjzjjjjjzzjzjjzzjjzjjjjjzz"
};
