/* XPM */
static char *result[] = {
/* columns rows colors chars-per-pixel */
"64 64 67 1 ",
"  c #140C09",
". c #041506",
"X c #160F17",
"o c #170F18",
"O c #161017",
"+ c #1D131E",
"@ c #09320B",
"# c #241D27",
"$ c #251F2A",
"% c #261F2A",
"& c #172734",
"* c #2D2D2D",
"= c #2E2533",
"- c #35323F",
"; c #411E05",
": c #62351C",
"> c #493F3F",
", c #19541D",
"< c #3A3745",
"1 c #3B3948",
"2 c #494142",
"3 c #4D4A5D",
"4 c #534E5D",
"5 c #4A5057",
"6 c #535353",
"7 c #5E5252",
"8 c #56505F",
"9 c #615750",
"0 c #635D5F",
"q c #575261",
"w c #585361",
"e c #595361",
"r c #605B68",
"t c #666061",
"y c #686162",
"u c #726B7E",
"i c #897675",
"p c #867E7F",
"a c #228236",
"s c #39AA4E",
"d c #669344",
"f c #7C857D",
"g c #53BF71",
"h c #809D49",
"j c #978C7B",
"k c #808080",
"l c #828A8E",
"z c #9C9B89",
"x c #9A9A9A",
"c c #B19998",
"v c #A2A18D",
"b c #B1B29A",
"n c #8AAAAB",
"m c gray63",
"M c #A8B3B8",
"N c #BDBBBA",
"B c #BFBEBD",
"V c #C4B59F",
"C c #A9C9CA",
"Z c #C4C2C1",
"A c #C5C5C5",
"S c gray79",
"D c LightGray",
"F c #E5E6C7",
"G c #EAEAEA",
"H c gray94",
"J c gray98",
/* pixels */
"dhddhhhhdddddhhddhddhhhhdddddhhddhddhhhhdddddhhddhddhhhhdddddhhd",
"dhdhhdhhdhdddhhddhdhhdhhdhdddhhddhdhhdhhdhdddhhddhdhhdhhdhdddhhd",
"hhhhhdhddhddhhhhhhhhhdhddhddhhhhhhhhhdhddhddhhhhhhhhhdhddhddhhhh",
"hhhhhhdddhhhhhhhhhhhhhdddhhhhhhhhhhhhhdddhhhhhhhhhhhhhdddhhhhhhh",
"hhhhhdddhhhhdhhhhhhhhdddhhhhdhhhhhhhhdddhhhhdhhhhhhhhdddhhhhdhhh",
"dhhdhdhhhhhdhhhhdhhdhdhhhhhdhhhhdhhdhdhhhhhdhhhhdhhdhdhhhhhdhhhh",
"hhdhhhhhhhddhhhdhhdhhhhhhhddhhhdhhdhhhhhhhddhhhdhhdhhhhhhhddhhhd",
"hhhhhhhhhhhhhhddhhhhhhhhhhhhhhddhhhhhhhhhhhhhhddhhhhhhhhhhhhhhdd",
"hhhhhhhhhhhhhhhhhhhhhhhhhhhhhhhhhhhhhhhhhhhhhhhhhhhhhhhhhhhhhhhh",
"hhhhhhhdhhhhhhhhhhhhhhhdhhhhhhhhhhhhhhhdhhhhhhhhhhhhhhhdhhhhhhhh",
"hhdhhhhdhhhhddhhhhdhhhhdhhhhddhhhhdhhhhdhhhhddhhhhdhhhhdhhhhddhh",
"hdhhhhhhhhdhdhhhhdhhhhhhhhdhdhhhhdhhhhhhhhdhdhhhhdhhhhhhhhdhdhhh",
"dhhhhhhhhhdhhhdddhhhhhhhhhdhhhdddhhhhhhhhhdhhhdddhhhhhhhhhdhhhdd",
"hhhhhhhddhhdhhddhhhhhhhddhhdhhddhhhhhhhddhhdhhddhhhhhhhddhhdhhdd",
"ddhhdhddhhddddhhddhhdhddhhddddhhddhhdhddhhddddhhddhhdhddhhddddhh",
"dhddhhddhdddddhhdhddhhddhdddddhhdhddhhddhdddddhhdhddhhddhdddddhh",
"dhddhhhhdddddhhddhddhhhhdddddhhddhddhhhhdddddhhddhddhhhhdddddhhd",
"dhdhhdhhdhdddhhddhdhhdhhdhdddhhddhdhhdhhdhdddhhddhdhhdhhdhdddhhd",
"hhhhhdhddhddhhhhhhhhhdhddhddhhh     hdhddhddhhhhhhhhhdhddhddhhhh",
"hhhhhhdddhhhhhhhhhhhhhd..hhhh  @aaa@  dddhhhhhhhhhhhhhdddhhhhhhh",
"hhhhhdddhhhhdhhhhhhhhddd...h  @ggsssa@ dhhhhdhhhhhhhhdddhhhhdhhh",
"dhhdhdhhhhhdhhhhdhhdhdhh.,,..@sggsssss hhhhdhhhhdhhdhdhhhhhdhhhh",
"hhdhhhhhhhddhhhdhhdhhhhh.a,a@.ssssssss..hhddhhhdhhdhhhhhhhddhhhd",
"hhhhhhhhhhhhhhddhhhhhhhh.a@@a,asssssss@.hhhhhhddhhhhhhhhhhhhhhdd",
"hhhhhhhhhhhhhhhhhhhhhhhhh@a@@@sasssasss.hhhhhhhhhhhhhhhhhhhhhhhh",
"hhhhhhhdhhhhhhhhhhhhhhhdhh.s,@s,,aggsaa.hhhhhhhhhhhhhhhdhhhhhhhh",
"hhdhhhhdhhhhddhhhhdhhhhdh..s,ssa@..aa,@.hhhhddhhhhdhhhhdhhhhddhh",
"hdhhhhhhhhdhdhhhhdhhhhhhh..s.ssaS&.,,,.hhhdhdhhhhdhhhhhhhhdhdhhh",
"dhhhhhhhhhdhhhdddhhhhhhhh.@.assaS,.hsa,.hhdhhhdddhhhhhhhhhdhhhdd",
"hhhhhhhddhhdhhddhhhhhhhdd..assss,,,ssss.dhhdhhddhhhhhhhddhhdhhdd",
"ddhhdhddhhddddhhddhhdhddhXXasss@dassa,,.hhddddhhddhhdhddhhddddhh",
"dhddhhddhdddddhhdhddhhd+X-$Xsaakdassa@.k.dddddhhdhddhhddhdddddhh",
"dhddhhhhdddddhhddhddhh+3XXr-Xsakd,sssOXk.ddddhhddhddhhhhdddddhhd",
"dhdhhdhhdhdddhhddhdhh+3cVFXywXXkd,,sX1Xk.hdddhhddhdhhdhhdhdddhhd",
"hhhhhdhddhddhhhhhhhh+=cpMhFXv8<oXXXX%y1Xfhddhhhhhhhhhdhddhddhhhh",
"hhhhhhdddhhhhhhhhhhh+3uppMcXB4y0wwyyeiwXZhhhhhhhhhhhhhdddhhhhhhh",
"hhhhhdddhhhhdhhhhhhh+=3upppXz4yiiAbwyAyXNhhhdhhhhhhhhdddhhhhdhhh",
"dhhdhdhhhhhdhhhhdhh+++=33uuXt4yyyiilyb9Xhhhdhhhhdhhdhdhhhhhdhhhh",
"hhdhhhhhhhddhhhdhhd+3=+++XXq12wyyyyiyj9Xhhddhhhdhhdhhhhhhhddhhhd",
"hhhhhhhhhhhhhhddhhh+up3=X1>#1>wyyyyyyi9Xhhhhh++++hhhhhhhhhhhhhdd",
"hhhhhhhhhhhhhhhhhhh+upM3X###1>wwyyyywy9Xhhhh+555+hhhhhhhhhh++++h",
"hhhhhhhdhhhhhhhhhhh+upFuX###11>wyyyywywXhhhhh+555+hhhh+++++CCCC+",
"hhdhhhhdhhhhddhhhh+3upVuX####1>wwyyywy1**hhhd+555n++++55CC5++++h",
"hdhhhhhhhhdhdhhhhd+=****hX####1>wyyywe*6m*dh++5nnCn555+++++hdhhh",
"dhhhhhhhhhdhhhdddh+*GHm*hX#####1>wwww1*mH*++55nCCn5+++hhhhdhhhdd",
"hhhhhhhddhhdhhddhh*xDJGx*XX#####1>11#*xmD*55+++nn++hhhhddhhdhhdd",
"ddhhdhddhhddddhhdd*ADDHA*hXXXXXXXXXXX*xmA*++dd+55+hhdh++hhddddhh",
"dhddhhddhdddddhhdh*xADA**;+=+3+3uVMp+*66x*dddd+55+ddh+n+hdddddhh",
"dhddhhhhdddddhhddhd*mAx6*::+=+3+3pdpu+***ddddhh+55+++n+hdddddhhd",
"dhdhhdhhdhdddh;;;;;:****++++3=+3+pFu3+hhdhd+++++5555nC+hdhdddhhd",
"hhhhhdhdd+;;;;:::::+++++dhd+=3+=+3++++hddhd+CCnnnnnnC+hddhddhhhh",
"hhhhhhddd+::::+++++hhhdddh+==3=+++uMp+dddhhh++CCCCC++hdddhhhhhhh",
"hhhhhdddh+++++hhhhhhhdddhh+=7+=+=3pVp+ddhhhhdh+++++hhdddhhhhdhhh",
"dhhdhdhhhhhdhhhhdhhdhdhhh++733+++3pu++hhhhhdhhhhdhhdhdhhhhhdhhhh",
"hhdhhhhhhhddhhhdhhdhhhhhh+=+3==++=++3=++++ddhhhdhhdhhhhhhhddhhhd",
"hhhhhhhhhhhhhhddhhhhhhhh+===++++++37=pch=+hhhhddhhhhhhhhhhhhhhdd",
"hhhhhhhhhhhhhhhhhhhhhhhh+==3773=+3p=pc7=+hhhhhhhhhhhhhhhhhhhhhhh",
"hhhhhhhdhhhhhhhhhhhhhhhd+==33773+77=73=+hhhhhhhhhhhhhhhdhhhhhhhh",
"hhdhhhhdhhhhddhhhhdhhhhdh++++++++3===++dhhhhddhhhhdhhhhdhhhhddhh",
"hdhhhhhhhhdhdhhhhdhhhhhhhhdhdhhhh++++hhhhhdhdhhhhdhhhhhhhhdhdhhh",
"dhhhhhhhhhdhhhdddhhhhhhhhhdhhhdddhhhhhhhhhdhhhdddhhhhhhhhhdhhhdd",
"hhhhhhhddhhdhhddhhhhhhhddhhdhhddhhhhhhhddhhdhhddhhhhhhhddhhdhhdd",
"ddhhdhddhhddddhhddhhdhddhhddddhhddhhdhddhhddddhhddhhdhddhhddddhh",
"dhddhhddhdddddhhdhddhhddhdddddhhdhddhhddhdddddhhdhddhhddhdddddhh"
};
