/* XPM */
static char *result[] = {
/* columns rows colors chars-per-pixel */
"64 64 48 1 ",
"  c #0C0303",
". c #140C09",
"X c #041506",
"o c #160F17",
"O c #1D131E",
"+ c #09320B",
"@ c #241D27",
"# c #281820",
"$ c #2D2D2D",
"% c #2E2533",
"& c #2F2A38",
"* c #411E05",
"= c #62351C",
"- c #144A18",
"; c #19541D",
": c #1A5D21",
"> c #3D3748",
", c #3B3948",
"< c #445146",
"1 c #4D4A5D",
"2 c #4A5057",
"3 c #535353",
"4 c #585361",
"5 c #686162",
"6 c #726B7E",
"7 c #897675",
"8 c #867E7F",
"9 c #228236",
"0 c #39AA4E",
"q c #669344",
"w c #7A837B",
"e c #53BF71",
"r c #809D49",
"t c #978C7B",
"y c #828A8E",
"u c #9A9A9A",
"i c #B19998",
"p c #B1B29A",
"a c #8AAAAB",
"s c gray63",
"d c #A8B3B8",
"f c #C4B59F",
"g c #A9C9CA",
"h c #C5C5C5",
"j c LightGray",
"k c #E5E6C7",
"l c gray94",
"z c gray98",
/* pixels */
"qrqqrrrrqqqqqrrqqrqqrrrrqqqqqrrqqrqqrrrrqqqqqrrqqrqqrrrrqqqqqrrq",
"qrqrrqrrqrqqqrrqqrqrrqrrqrqqqrrqqrqrrqrrqrqqqrrqqrqrrqrrqrqqqrrq",
"rrrrrqrqqrqqrrrrrrrrrqrqqrqqrrrrrrrrrqrqqrqqrrrrrrrrrqrqqrqqrrrr",
"rrrrrrqqqrrrrrrrrrrrrrqqqrrrrrrrrrrrrrqqqrrrrrrrrrrrrrqqqrrrrrrr",
"rrrrrqqqrrrrqrrrrrrrrqqqrrrrqrrrrrrrrqqqrrrrqrrrrrrrrqqqrrrrqrrr",
"qrrqrqrrrrrqrrrrqrrqrqrrrrrqrrrrqrrqrqrrrrrqrrrrqrrqrqrrrrrqrrrr",
"rrqrrrrrrrqqrrrqrrqrrrrrrrqqrrrqrrqrrrrrrrqqrrrqrrqrrrrrrrqqrrrq",
"rrrrrrrrrrrrrrqqrrrrrrrrrrrrrrqqrrrrrrrrrrrrrrqqrrrrrrrrrrrrrrqq",
"rrrrrrrrrrrrrrrrrrrrrrrrrrrrrrrrrrrrrrrrrrrrrrrrrrrrrrrrrrrrrrrr",
"rrrrrrrqrrrrrrrrrrrrrrrqrrrrrrrrrrrrrrrqrrrrrrrrrrrrrrrqrrrrrrrr",
"rrqrrrrqrrrrqqrrrrqrrrrqrrrrqqrrrrqrrrrqrrrrqqrrrrqrrrrqrrrrqqrr",
"rqrrrrrrrrqrqrrrrqrrrrrrrrqrqrrrrqrrrrrrrrqrqrrrrqrrrrrrrrqrqrrr",
"qrrrrrrrrrqrrrqqqrrrrrrrrrqrrrqqqrrrrrrrrrqrrrqqqrrrrrrrrrqrrrqq",
"rrrrrrrqqrrqrrqqrrrrrrrqqrrqrrqqrrrrrrrqqrrqrrqqrrrrrrrqqrrqrrqq",
"qqrrqrqqrrqqqqrrqqrrqrqqrrqqqqrrqqrrqrqqrrqqqqrrqqrrqrqqrrqqqqrr",
"qrqqrrqqrqqqqqrrqrqqrrqqrqqqqqrrqrqqrrqqrqqqqqrrqrqqrrqqrqqqqqrr",
"qrqqrrrrqqqqqrrqqrqqrrrrqqqqq......qrrrrqqqqqrrqqrqqrrrrqqqqqrrq",
"qrqrrqrrqrqqqrrqqrqrXXrrqrq..;9009;..qrrqrXXqrrqqrqrrqrrqrqqqrrq",
"rrrrrqrqqrqqrrrrrrrrrXXqqr.;99000099;.rqqXXqrrrrrrrrrqrqqrqqrrrr",
"rrrrrrqqqrrrrrrrrrrrrX;Xqr.9000000009.qqX;Xrrrrrrrrrrrqqqrrrrrrr",
"rrrrrqqqrrrrqrrrrrrrrX9;XX000ee0000000XX;9Xrqrrrrrrrrqqqrrrrqrrr",
"qrrqrqrrrrrqrrrrqrrqrX+9;+000ee0000000+;9+Xqrrrrqrrqrqrrrrrqrrrr",
"rrqrrrrrrrqqrrrqrrqrrr+9++000000000000++9+qqrrrqrrqrrrrrrrqqrrrq",
"rrrrrrrrrrrrrrqqrrrrrrX0;90000000000009;0Xrrrrqqrrrrrrrrrrrrrrqq",
"rrrrrrrrrrrrrrrrrrrrrrX0;90000000000009;0Xrrrrrrrrrrrrrrrrrrrrrr",
"rrrrrrrqrrrrrrrrrrrrrrX0X90000000000009X0Xrrrrrrrrrrrrrqrrrrrrrr",
"rrqrrrrqrrrrqqrrrrqrrrrXX+900000000009+XXrrrqqrrrrqrrrrqrrrrqqrr",
"rqrrrrrrrrqrqrrrrqrrrrrrX+900099990009+Xrrqrqrrrrqrrrrrrrrqrqrrr",
"qrrrrrrrrrqrrrqqqrrrrrrrX+999999999999+Xrrqrrrqqqrrrrrrrrrqrrrqq",
"rrrrOOOqqrrqrrqqrrrrrrrX++999999999999++Xrrqrrqqrrrrrrrqqrrqrrqq",
"qqrrOggOOOqqqqrrqqOOqrqw++;9999;;9999;++<rqqqqrrqqrrqrqqrrqqqqrr",
"qrqqrOOgagOOOqrrqO22OOooo+;999;;;;999;+ooo qqqrrqrqqrrqqrqqqqqrr",
"qrqqrrrOOOgaaOOqqO222Oo,5oo-:999999;;oo5,oOOqrrqqrqqrrrrqqqqqrrq",
"qrqrrqrrqrOO222OO222Odo5554oooooooooo4555o6>Orrqqrqrrqrrqrqqqrrq",
"rrrrrqrqqrqqO22agaa16ko54754,@@@@@@,44547o86Orrrrrrrrqrqqrqqrrrr",
"rrrrrrqqqrrrrOOaagg6iroy475554,,,,444554yo86%Orrrrrrrrqqqrrrrrrr",
"rrrrrqqqrrOOqrrO2a16ikop,5t754444445555,po81%Orrrrrrrqqqrrrrqrrr",
"qrrqrqrrrrOaOrrO22168io5,5ty77754547555,5o1>%Orrqrrqrqrrrrrqrrrr",
"rrqrrrrrrrOaOrrO22%168o,,5ypt4574545p75&,o>OOOrqrrqrrrrrrrqqrrrq",
"rrrrrrrrrrOgaOO22OOO11o@,5p7,55t455,7t4@@$$$$$qqrrrrrrrrrrrrrrqq",
"rrrrrrrrrrrOaa222O8OOOoo,45,545t4555,54@o3ljj$rrrrrrrrrrrrrrrrrr",
"rrrrrrrqrrrrOaaaaOr61OOo@,,5445745554,,@o3zjs$rrrrrrrrrqrrrrrrrr",
"rrqrrrrqrrrrqO2ggOk86Oro@,,445554554,@@@ojjsu$rrrrqrrrrqrrrrqqrr",
"rqrrrrrrrrqrqrrOOO8d6O#o@,,445554554,@@@ouhs$=***qrrrrrrrrqrqrrr",
"qrrrrrrrrrqrrrqqq$$$$$#oo@,,4455454,@@@oo$$$OO===***rrrrrrqrrrqq",
"rrrrrrrqqrrqrrqqr$jzj3$OOo@,,444,4,@@@oOOrrqrrOOO===***qqrrqrrqq",
"qqrrqrqqrrqqqqrrq$sjz3u$%6oo@,,,,,@@oo6%OrqqqqrrqOOO===**rqqqqrr",
"qrqqrrqqrqqqqqrrq$usjjj$1686oooooooo8i81OqqqqqrrqrqqOOO==Oqqqqrr",
"qrqqrrrrqqqqqrrqqr$shu3$188861O%%O68if81OqqqqrrqqrqqrrrOOqqqqrrq",
"qrqrrqrrqrqqqrrqqrq$$$$O%68861OOOO68dk81Orqqqrrqqrqrrqrrqrqqqrrq",
"rrrrrqrqqrqqrrrrrrrrrqOOOOOOOOrrrO18kkd%Orqqrrrrrrrrrqrqqrqqrrrr",
"rrrrrrqqqrrrrrrrrrrrrrO%OOOO%OrrrrOOOOOOOrrrrrrrrrrrrrqqqrrrrrrr",
"rrrrrqqqrrrrqrrrrrrrrqO%1166OOrrrrO%68%Orrrrqrrrrrrrrqqqrrrrqrrr",
"qrrqrqrrrrrqrrrrqrrqrqO%16881OrrqrO%68%Orrrqrrrrqrrqrqrrrrrqrrrr",
"rrqrrrrrrrqqrrrqrrqrrrO%18i81OrqrrO1dk6OOrqqrrrqrrqrrrrrrrqqrrrq",
"rrrrrrrrrrrrrrqqrrrrrrrO%686%OqqrrO%OOOO%Orrrrqqrrrrrrrrrrrrrrqq",
"rrrrrrrrrrrrrrrrrrrrrrrrOOOOOrrrrrOO8r81%Orrrrrrrrrrrrrrrrrrrrrr",
"rrrrrrrqrrrrrrrrrrrrrrrqrrrrrrrrrrO8iki11Orrrrrrrrrrrrrqrrrrrrrr",
"rrqrrrrqrrrrqqrrrrqrrrrqrrrrqqrrrrO6ird81Orrqqrrrrqrrrrqrrrrqqrr",
"rqrrrrrrrrqrqrrrrqrrrrrrrrqrqrrrrqO%8i8%Orqrqrrrrqrrrrrrrrqrqrrr",
"qrrrrrrrrrqrrrqqqrrrrrrrrrqrrrqqqrrOOOOOrrqrrrqqqrrrrrrrrrqrrrqq",
"rrrrrrrqqrrqrrqqrrrrrrrqqrrqrrqqrrrrrrrqqrrqrrqqrrrrrrrqqrrqrrqq",
"qqrrqrqqrrqqqqrrqqrrqrqqrrqqqqrrqqrrqrqqrrqqqqrrqqrrqrqqrrqqqqrr",
"qrqqrrqqrqqqqqrrqrqqrrqqrqqqqqrrqrqqrrqqrqqqqqrrqrqqrrqqrqqqqqrr"
};
