/* XPM */
static char *result[] = {
/* columns rows colors chars-per-pixel */
"64 64 43 1 ",
"  c #140C09",
". c #041506",
"X c #160F17",
"o c #1D131E",
"O c #09320B",
"+ c #241D27",
"@ c #281820",
"# c #2D2D2D",
"$ c #2E2533",
"% c #2F2A38",
"& c #411E05",
"* c #62351C",
"= c #19541D",
"- c #3D3748",
"; c #3B3948",
": c #4D4A5D",
"> c #4A5057",
", c #535353",
"< c #585361",
"1 c #686162",
"2 c #726B7E",
"3 c #897675",
"4 c #867E7F",
"5 c #228236",
"6 c #39AA4E",
"7 c #669344",
"8 c #53BF71",
"9 c #809D49",
"0 c #978C7B",
"q c #828A8E",
"w c #9A9A9A",
"e c #B19998",
"r c #B1B29A",
"t c #8AAAAB",
"y c gray63",
"u c #A8B3B8",
"i c #C4B59F",
"p c #A9C9CA",
"a c #C5C5C5",
"s c LightGray",
"d c #E5E6C7",
"f c gray94",
"g c gray98",
/* pixels */
"7977999977777997797799997777799779779999777779977977999977777997",
"7979979979777997797997997977799779799799797779977979979979777997",
"9999979779779999999997977977999999999797797799999999979779779999",
"9999997779999999999999777999999999999977799999999999997779999999",
"9999977799997999999997779999799999999777999979999999977799997999",
"7997979999979999799797999997999979979799999799997997979999979999",
"9979999999779997997999999977999799799999997799979979999999779997",
"9999999999999977999999999999997799999999999999779999999999999977",
"9999999999999999999999999999999999999999999999999999999999999999",
"9999999799999999999999979999999999999997999999999999999799999999",
"9979999799997799997999979999779999799997999977999979999799997799",
"9799999999797999979999999979799997999999997979999799999999797999",
"7999999999799977799999999979997779999999997999777999999999799977",
"9999999779979977999999977997997799999997799799779999999779979977",
"7799797799777799779979779977779977997977997777997799797799777799",
"7977997797777799797799779777779979779977977777997977997797777799",
"79779999777779977977999977777      79999777779977977999977777997",
"79799799797779977979..99797  =5665=  79979..79977979979979777997",
"999997977977999999999..779 =55666655= 977..799999999979779779999",
"999999777999999999999.=.79 5666666665 77.=.999999999997779999999",
"999997779999799999999.5=..666886666666..=5.979999999977799997999",
"799797999997999979979.O5=O666886666666O=5O.799997997979999979999",
"9979999999779997997999O5OO666666666666OO5O7799979979999999779997",
"9999999999999977999999.6=56666666666665=6.9999779999999999999977",
"9999999999999999999999.6=56666666666665=6.9999999999999999999999",
"9999999799999999999999.6.56666666666665.6.9999999999999799999999",
"99799997999977999979999..O566666666665O..99977999979999799997799",
"979999999979799997999999.O566655556665O.997979999799999999797999",
"799999999979997779999999.O555555555555O.997999777999999999799977",
"99999997799799779999999.OO555555555555OO.99799779999999779979977",
"779979779977779977997oXXXO=5555==5555=OXXXo777997799797799777799",
"7977997797777799797oouX;1XX555====555XX1;X2oo7997977997797777799",
"79779ooo7777799779o:2dX111<XXXXXXXXXX<111X42-o977977999977777997",
"79799oppooo7799779o2e7X1<31<;++++++;<<1<3X442o977979979979777997",
"999997ooptpooo999o:2edXq<3111<;;;;<<<11<qX442$o99999979779779999",
"99999977ooopttoo9o:24eXr;1031<<<<<<1111;rX44:$o99999997779999999",
"99999777999oo>>>oo$:24X1;10q3331<1<3111;1X::-$o99999977799997999",
"7997979999979o>>tooo::X;;1qr0<13<1<1r31%;X--ooo97997979999979999",
"99799999997799ooto4oooX+;1r3;110<11;30<++Xooo:o79979999999779997",
"99999999999oo977oo92:ooX;<1;1<10<111;1<+XXo:e4o79999999999999977",
"99999999999oto99ood42o9o+;;1<<13<111<;;+X9odi4o99999999999999999",
"99999997999oto99oo4u2o@X+;;<<111<11<;+++X@oie4o99999999799999999",
"99799997999optoo>#####@X+;;<<111<11<;+++X@#####99979999799997799",
"979999999979ott>>#sgs,#XX+;;<<11<1<;+++XX#,fss#99799999999797999",
"7999999999799ottt#ysg,w#:X+;;<<<;<;+++X:#w,gsy#77999999999799977",
"99999997799799o>p#wysss#24XX+;;;;;++XX42#sssyw#79999999779979977",
"7799797799777799oo#yaw,#4e44XXXXXXXX44e4#,way#*&&&99797799777799",
"7977997797777799797####:4ie42o$$$$o24ei4:####oo***&&&97797777799",
"7977999977777997797799o:4du42oooooo24ud4:o77799ooo***&&&77777997",
"7979979979777997797997o$ud44:o9779o:44du$o77799779ooo***&&777997",
"9999979779779999999997ooooooo999999ooooooo77999999999ooo**o79999",
"9999997779999999999999o$u2$oo999999oo$24$o99999999999977oo999999",
"999997779999799999999oo4d4:o79999999o:ud2oo979999999977799997999",
"79979799999799997997o$oooo$o99997997o$oooo$o99997997979999979999",
"99799999997799979979o$:294oo99979979oo492:$o99979979999999779997",
"99999999999999779999o::ede4o99779999o4ede::o99779999999999999977",
"99999999999999999999o:4u9e2o99999999o2e9u4:o99999999999999999999",
"999999979999999999999o$4e4$o99999999o$4e4$o999999999999799999999",
"9979999799997799997999ooooo9779999799ooooo9977999979999799997799",
"9799999999797999979999999979799997999999997979999799999999797999",
"7999999999799977799999999979997779999999997999777999999999799977",
"9999999779979977999999977997997799999997799799779999999779979977",
"7799797799777799779979779977779977997977997777997799797799777799",
"7977997797777799797799779777779979779977977777997977997797777799"
};
