/* XPM */
static char *result[] = {
/* columns rows colors chars-per-pixel */
"64 64 46 1 ",
"  c #140C09",
". c #041506",
"X c #160F17",
"o c #1D131E",
"O c #09320B",
"+ c #241D27",
"@ c #281820",
"# c #2D2D2D",
"$ c #2E2533",
"% c #2F2A38",
"& c #411E05",
"* c #62351C",
"= c #144A18",
"- c #19541D",
"; c #1A5D21",
": c #3D3748",
"> c #3B3948",
", c #445146",
"< c #4D4A5D",
"1 c #4A5057",
"2 c #535353",
"3 c #585361",
"4 c #686162",
"5 c #726B7E",
"6 c #897675",
"7 c #867E7F",
"8 c #228236",
"9 c #39AA4E",
"0 c #669344",
"q c #53BF71",
"w c #809D49",
"e c #978C7B",
"r c #828A8E",
"t c #9A9A9A",
"y c #B19998",
"u c #B1B29A",
"i c #8AAAAB",
"p c gray63",
"a c #A8B3B8",
"s c #C4B59F",
"d c #A9C9CA",
"f c #C5C5C5",
"g c LightGray",
"h c #E5E6C7",
"j c gray94",
"k c gray98",
/* pixels */
"0w00wwww00000ww00w00wwww00000ww00w00wwww00000ww00w00wwww00000ww0",
"0w0ww0ww0w000ww00w0ww0ww0w000ww00w0ww0ww0w000ww00w0ww0ww0w000ww0",
"wwwww0w00w00wwwwwwwww0w00w00wwwwwwwww0w00w00wwwwwwwww0w00w00wwww",
"wwwwww000wwwwwwwwwwwww000wwwwwwwwwwwww000wwwwwwwwwwwww000wwwwwww",
"wwwww000wwww0wwwwwwww000wwww0wwwwwwww000wwww0wwwwwwww000wwww0www",
"0ww0w0wwwww0wwww0ww0w0wwwww0wwww0ww0w0wwwww0wwww0ww0w0wwwww0wwww",
"ww0wwwwwww00www0ww0wwwwwww00www0ww0wwwwwww00www0ww0wwwwwww00www0",
"wwwwwwwwwwwwww00wwwwwwwwwwwwww00wwwwwwwwwwwwww00wwwwwwwwwwwwww00",
"wwwwwwwwwwwwwwwwwwwwwwwwwwwwwwwwwwwwwwwwwwwwwwwwwwwwwwwwwwwwwwww",
"wwwwwww0wwwwwwwwwwwwwww0wwwwwwwwwwwwwww0wwwwwwwwwwwwwww0wwwwwwww",
"ww0wwww0wwww00wwww0wwww0wwww00wwww0wwww0wwww00wwww0wwww0wwww00ww",
"w0wwwwwwww0w0wwww0wwwwwwww0w0wwww0wwwwwwww0w0wwww0wwwwwwww0w0www",
"0wwwwwwwww0www000wwwwwwwww0www000wwwwwwwww0www000wwwwwwwww0www00",
"wwwwwww00ww0ww00wwwwwww00ww0ww00wwwwwww00ww0ww00wwwwwww00ww0ww00",
"00ww0w00ww0000ww00ww0w00ww0000ww00ww0w00ww0000ww00ww0w00ww0000ww",
"0w00ww00w00000ww0w00ww00w00000ww0w00ww00w00000ww0w00ww00w00000ww",
"0w00wwww00000ww00w00wwww00000      0wwww00000ww00w00wwww00000ww0",
"0w0ww0ww0w000ww00w0w..ww0w0  -8998-  0ww0w..0ww00w0ww0ww0w000ww0",
"wwwww0w00w00wwwwwwwww..00w -88999988- w00..0wwwwwwwww0w00w00wwww",
"wwwwww000wwwwwwwwwwww.-.0w 8999999998 00.-.wwwwwwwwwww000wwwwwww",
"wwwww000wwww0wwwwwwww.8-..999qq9999999..-8.w0wwwwwwww000wwww0www",
"0ww0w0wwwww0wwww0ww0w.O8-O999qq9999999O-8O.0wwww0ww0w0wwwww0wwww",
"ww0wwwwwww00www0ww0wwwO8OO999999999999OO8O00www0ww0wwwwwww00www0",
"wwwwwwwwwwwwww00wwwwww.9-89999999999998-9.wwww00wwwwwwwwwwwwww00",
"wwwwwwwwwwwwwwwwwwwwww.9-89999999999998-9.wwwwwwwwwwwwwwwwwwwwww",
"wwwwwww0wwwwwwwwwwwwww.9.89999999999998.9.wwwwwwwwwwwww0wwwwwwww",
"ww0wwww0wwww00wwww0wwww..O899999999998O..www00wwww0wwww0wwww00ww",
"w0wwwwwwww0w0wwww0wwwwww.O899988889998O.ww0w0wwww0wwwwwwww0w0www",
"0wwwwwwwww0www000wwwwwww.O888888888888O.ww0www000wwwwwwwww0www00",
"wwwwwww00ww0ww00wwwwwww.OO888888888888OO.ww0ww00wwwwwww00ww0ww00",
"00ww0w00ww0000ww00ww0woooO-8888--8888-OO,w0000ww00ww0w00ww0000ww",
"0w00ww00w00000ww0w00ooXXXo-888----888-OXXXo000ww0w00ww00w00000ww",
"0w00wwww00000ww00w0o:5X>4XX=;888888--XX4>Xaooww00w00wwww00000ww0",
"0w0ww0ww0w000ww00w0o57X4443XXXXXXXXXX3444Xh5<ow00w0ww0ww0w000ww0",
"wwwwwooo0w00wwwwwwo$57X43643>++++++>33436X0y5owwwwwww0w00w00wwww",
"wwwwwoddooowwwwwwwo$<7Xr364443>>>>333443rXhy5<owwwwwww000wwwwwww",
"wwwww0oodidooowwwwo$:<Xu>4e643333334444>uXy75<owwwwww000wwww0www",
"0ww0w0wwooodiioo0wooo:X4>4er66643436444>4X75<$ow0ww0w0wwwww0wwww",
"ww0wwwwwww0oo111ooo<ooX>>4rue3463434u64%>X<<ooo0ww0wwwwwww00www0",
"wwwwwwwwwwwwwo11id#####+>4u6>44e344>6e3++Xooo<o0wwwwwwwwwwwwww00",
"wwwwwwwwwwwwwwooii#gkg2X>34>434e3444>43+XXo<y7owwwwwwwwwwwwwwwww",
"wwwwwww0wwwoowwwo1#pgk2X+>>4334634443>>+X@ohs7owwwwwwww0wwwwwwww",
"ww0wwww0wwwoiowwo1#tpggX+>>334443443>+++Xwosy7owww0wwww0wwww00ww",
"w0wwwwwwww0oiowwo11#pftX+>>334443443>+++X@osy7oww0wwwwwwww0w0www",
"0wwwwwwwww0odioo111o###XX+>>3344343>+++XX@#####00wwwwwwwww0www00",
"wwwwwww00ww0oii1111ooowooX+>>333>3>+++Xoo#2jgg#0wwwwwww00ww0ww00",
"00ww0w00ww000oiiiiiiddoo$5XX+>>>>>++XX5$#t2kgp#w00ww0w00ww0000ww",
"0w00ww00w00000o1dddooo0o<7y7XXXXXXXX575<#gggpt#w0w00ww00w00000ww",
"0w00wwww00000ww0ooo0wwwo<7sy75o$$o<5777<#2tfp#*&&&00wwww00000ww0",
"0w0ww0ww0w000ww00w0ww0wo<7ha75oooo<5775$o####oo***&&&0ww0w000ww0",
"wwwww0w00w00wwwwwwwww0wo$ahh7<owwwoooooooo00wwwooo***&&&0w00wwww",
"wwwwww000wwwwwwwwwwwww0ooooooowwwwo$oooo$owwwwwwwwooo***&&wwwwww",
"wwwww000wwww0wwwwwwww000o$75$owwwwoo55<<$oww0wwwwwwwwooo**ow0www",
"0ww0w0wwwww0wwww0ww0w0wwo5ha<oww0wo<775<$ow0wwww0ww0w0wwoow0wwww",
"ww0wwwwwww00www0ww0wwwwooooo$ow0wwo<7y7<$o00www0ww0wwwwwww00www0",
"wwwwwwwwwwwwww00wwwwwwo$$<77oo00wwo$575$owwwww00wwwwwwwwwwwwww00",
"wwwwwwwwwwwwwwwwwwwwwwo$<7w75owwwwwooooowwwwwwwwwwwwwwwwwwwwwwww",
"wwwwwww0wwwwwwwwwwwwwwo<<yhy7owwwwwwwww0wwwwwwwwwwwwwww0wwwwwwww",
"ww0wwww0wwww00wwww0wwwo<7awy5owwww0wwww0wwww00wwww0wwww0wwww00ww",
"w0wwwwwwww0w0wwww0wwwwwo$7y7$owww0wwwwwwww0w0wwww0wwwwwwww0w0www",
"0wwwwwwwww0www000wwwwwwwooooow000wwwwwwwww0www000wwwwwwwww0www00",
"wwwwwww00ww0ww00wwwwwww00ww0ww00wwwwwww00ww0ww00wwwwwww00ww0ww00",
"00ww0w00ww0000ww00ww0w00ww0000ww00ww0w00ww0000ww00ww0w00ww0000ww",
"0w00ww00w00000ww0w00ww00w00000ww0w00ww00w00000ww0w00ww00w00000ww"
};
