/* XPM */
static char *result[] = {
/* columns rows colors chars-per-pixel */
"64 64 34 1 ",
"  c #121111",
". c #191A21",
"X c #381C24",
"o c #2E2C2C",
"O c #7E1F1C",
"+ c #452A2F",
"@ c #663F39",
"# c #40713C",
"$ c #444140",
"% c #4C4B4A",
"& c #5A5C59",
"* c #766E68",
"= c #98251A",
"- c #A73419",
"; c #C34329",
": c #935D54",
"> c #AC7053",
", c #C66151",
"< c #55864A",
"1 c #669344",
"2 c #809D49",
"3 c #90A440",
"4 c #878074",
"5 c #A68A6C",
"6 c #C9955A",
"7 c #D7A36D",
"8 c #8F8882",
"9 c #958F83",
"0 c #9D9885",
"q c #B2AD96",
"w c #E5B181",
"e c #C9C3A9",
"r c #DCC8A7",
"t c white",
/* pixels */
"1211222211111221121122221111122121122221111122121122221111122112",
"1212212212111221121221221211122121221221211122121221221211122112",
"2222212112112222222221211211222222221211211222222221211211222222",
"2222221112222222222222111222222222222111222222222222111222222222",
"2222211122221222222221112222122222221112222122222221112222122222",
"1221212222212222122121222221222122121222221222122121222221222212",
"2212222222112221221222222211222221222222211222221222222211222122",
"2222222222222211222222222222221222222222222221222222222222221122",
"2222222222222222222222222222222222222222222222222222222222222222",
"2222222122222222222222212222222222222212222222222222212222222222",
"221222212222112222X222X12X22X12X2X22X21X2X21X22X1222212222112222",
"212222222212122X21wX2Xw2Xw1Xw2XwXw2Xw2XwXw2Xw2Xw22X2222212122221",
"122222222212X2XwX:w6X>w:>w@>w@>w>w@>w@  @6@>w@>w2Xw22X2212221112",
"22222221122XwX>wX:6:X:6@:6X:6@:6:6@:6 ;; @@:6X:6@>w2Xw1221221122",
"112212112X1XwX:6@@>:X@:X@:X@:X@:@:X@ ,;;- X@:X@:@:6@6w:2X1112211",
"12112211XwX>6X:>@X>: X              ;,;O=-         X:6:XwX112212",
"1211222XXw6@:X@>@X::  &$$o$$o$$o&& ,,,;==OOO--,,;- X:>@XwX2X2111",
"1212212Xw6>@:X@:XX@:  $o$o&&oo$$& ,;,-;==O==-;,,;- X@>X@6>XX2211",
"222222X>w>:X: X@ X@@  $&&$&&o&&o& ,,;,;=====-;;;;- X@:X@:@6wX222",
"22222Xw>6@:X@  X  X@  $&&&&&$&&o$ ,,;,**;=O=;,,;,; X@  @:@>wX222",
"22222Xw@:X@ X  ;;  X $$$$&&$$**o& ,,,000*OO=;,,;,,   -- :X:6>X12",
"1221X>6@@ X   ;;;;   $&&$&**$8*$* ,,00  0*;;-;;,,;  -;;; X@::X11",
"2212X::XX   ;;;;,,,  $&&$$$$$$$$$ ,000  00*;@@@@@@ -;;-;; @@wX12",
"2222Xw@ X  ;;q*;,,,,   000000000*  q00qq00q**00000 ;;,,--; Xw>X2",
"222X>wX  ;;;q%r;,,,,,  qq0  0000** @:::::@@*0@@000 *;,,;;,, 6>X2",
"222X>6X ;;--*q0,,,,,,; qq0  0::00* q00  00q00::000 0*;;,;,,;::X2",
"221X:: %%;;-%00,,,,;*  qq0qq0::0q0 q00  00q00::000 00*;,,;;;w@X2",
"212X@w%%%%;,,0,;;;*00& qq0000::0q0 q00qq00q&&&&%***0:0*;,,;Xw>X2",
"12<X>w %&*&,,,,;*000q&&&&&&&&&&&&& q000000q*44&&*44*::0*;;XX>6X1",
"2<<X>6  &**&;;*0qq00q&&&&&****44*&&&&&&&****44&&444**:0 0XtX@wX2",
"1<<X:: ;  **%00  q0@0&444*....*****44484*4894*44444**  & **X>wX1",
"1<<XXw ;;; *%qq  0@:0&444.0000.*4899848888899*444**  -&8* *X>6X1",
"1<<X>w ;;;; *re000::&*88.00&&0q.88998448888994444* --&8**; XXwX1",
"1<<X>6 ;;,, &qq000:&448.00&&&&qr**4449989**44444* -O&8**,;;X>wX1",
"2<#X:: ;;,, &re00&&4448.qq&..&0r4499899994499*** OO&08*,-,,X>6X2",
"2<#X@w ,,;; &00&&**4448.0q....rr4449889004449** OO&08*,-,,,X::X2",
"2<#X>w ,,;;  *    *444*.&r0&&qrq4*9888*884*98* OO&088;-,,;;X@wX2",
"1<#X>6 ;;,, & $$o   44*..&0rr0q0**9984**8**99 OO&e88-;;;,;;X>wX1",
"2<#X@w *;,,  $$$  .. *8*.&&88qq.48944484*489 OO&e88-,,--;;-X>6X2",
"2<#X>w ***; $&&$ &..q  8*.&880.*8899848888* OO&e08-;,;;;;-  w@X2",
"2<#X>6 %%% $*&&$ &&0q o ******44889984488* -O oo8-,,;;,;- * w>X2",
"2<#X@w  % $&**$$$$&00 o 4488*499**44499898 O ***o,,,;,,- ** 6>X2",
"2<#X@w X % oo&$$**$0oo& 88849999449989999*8 * 00*o;;;;- *** w@X2",
"2<#X@6Xw  %%*oo$&*$oo&q 99448889444988900*8 0  0 * --- ***X w@X2",
"1<#X+>>w X %***ooooo&0q 994888884*9888*88** q0 0  * - ***XwX6@X1",
"2<#X++>6Xw X*****%o&00q 88*888444*9984**8** qq000 0* ***XXw>>+X2",
"1<#X+X@@>wX6X*X***Xq000 *44444444*88*5888*5 qq000qq0**XXwX6>++X1",
"1<#X+X:@6w>wXXwX*X6X0X0 *X*44***>5555666655 qX000qqX*X6Xw>@@X+X1",
"1<#++X:@@@6wwXwXXXwXXwXXXwX*X*XXX5556555566 X6XX0qXwXXw>w6@:X+X1",
"1<#+++:@:@:w@6w7@6wwXwXwXwXXwXwXX>6665555565XwXwXXXwXww6@@@:X++1",
"2<#+++:+:@:>@@w@@@w@6w6w6ww6w6w6X55565555565X@6w6@7w6@w:@:@:+++2",
"2<#+++:+:@:>:@:@:@@@@6::@w@@w+:@X55566655565X:@:+@@w@@>:@:+:+++2",
"2<##++@#:@:>:@>@>@:>@:>:::+:>@>@X55566666666X>@>@:@:@:>:@:+:+++2",
"1<##+++#:@:>:@>@>@:>+>>:>>@><:>:X55666666666X>:>:>@>@:>:@:1@++11",
"2<<##+#+:+:>@@>+>@>>@>>:><:<<@>:X66666666666X>:>@>@>@:>:@:1++112",
"22<<###+@+::@@>+>@>>:>>>>>2<>@>:X26667777776X>:>@>+>@@>:+:+3+112",
"222<<##+++@:@:>+>@:>::>@:>@22+>+X27777777776X>+>+>+>@@::+@+33322",
"2222<<##+++@+:>@>+@:+:>+<<+@2X>@X27777777776X>@>X>+>:@:@+++32322",
"22122<<###++++@@:@@@X@:+@:<@22@2X1777www7776X>2>2>@>:+@3++122322",
"212222<<<<<<<+++:+#@++@+@@<<<22#1277wwwww7711>#22:@@++3+#2321322",
"122222222212221112222@+<+++<<###227wwwwwww7221###:+++<3322322221",
"22222221122122112222222112212211227wwwwwww7222112111222222322222",
"11221211221111221122121122111122127wwwwwww7112211211222223322221",
"12112211211111221211221121111122217wwwwwww7112212112211211111221"
};
