/* XPM */
static char *result[] = {
/* columns rows colors chars-per-pixel */
"64 64 53 1 ",
"  c black",
". c #090609",
"X c #1E0C08",
"o c #101010",
"O c #111111",
"+ c #101414",
"@ c gray8",
"# c gray11",
"$ c gray12",
"% c #232017",
"& c #181825",
"* c #13112D",
"= c #281821",
"- c #1C2222",
"; c #272727",
": c #26222D",
"> c #22282A",
", c #29292F",
"< c #2C2C2C",
"1 c #2D2D2D",
"2 c #2A3034",
"3 c gray19",
"4 c #313131",
"5 c #353535",
"6 c #31333B",
"7 c gray23",
"8 c #3A393C",
"9 c gray24",
"0 c #3E3E3E",
"q c #4F2313",
"w c #544C2E",
"e c #7E4E20",
"r c #3F3E40",
"t c #37394B",
"y c #2B225A",
"u c gray25",
"i c #4A5057",
"p c #DC6F35",
"a c #FF7D2C",
"s c #A96B4C",
"d c #669344",
"f c #A49831",
"g c #809D49",
"h c #B3A84D",
"j c #D98E60",
"k c #FFC95A",
"l c #FFFF61",
"z c #402E82",
"x c #7141B2",
"c c #A966DD",
"v c #E7C7BF",
"b c #D085ED",
"n c #FFFFDF",
/* pixels */
"dgddggggdddddggddgddggggdddddggddgddggggdddddggddgddggggdddddggd",
"dgdggdggdgdddggddgdggdggdgdddggddgdggdggdgdddggddgdggdggdgdddggd",
"gggggdgddgddgggggggggdgddgddgggggggggdgddgddgggggggggdgddgddgggg",
"ggggggdddgggggggggggggdddgggggggggggggdddgggggggggggggdddggggggg",
"gggggdddggggdggggggggdddggggdggggggggdddggggdggggggggdddggggdggg",
"dggdgdgggggdggggdggdgdgggggdggg dggdgdgggggdggggdggdgdgggggdgggg",
"ggdgggggggddgggdggdgggggggddgg # gdgggggggddgggdggdgggggggddgggd",
"ggggggggggggggddggggggggggggg #0# ggggggggggggddggggggggggggggdd",
"ggggggggggggggggggggggggggggg <0< gggggggggggggggggggggggggggggg",
"gggggggdgggggggggggggggdgggg #00<# ggggdgggggggggggggggdgggggggg",
"ggdggggdggggddggggdggggdggg  <000# ggggdggggddggggdggggdggggddgg",
"gdggggggggdgdggggdgggggggg #<0000<# ggggggdgdggggdggggggggdgdggg",
"dgggggggggdgggdddggggggggg <000000<# gggggdgggdddgggggggggdgggdd",
"gggggggddggdggddgggggggdd #00000000<# gddggdggddgggggggddggdggdd",
"ddggdgddggddddggddggdgddg <999999999<# dggddddggddggdgddggddddgg",
"dgddggddgdddddggdgddggdd #<<<<<<<<<<<< dgdddddggdgddggddgdddddgg",
"dgddggggdddddggddgddggg #<<<<<<<<<<<<<# dddddggddgddggggdddddggd",
"dgdggdggdgdddggddgdggd  #<<<<<<<<<<<<<<# gdddggddgdggdggdgdddggd",
"gggggdgddgddgggggggggd ##<<<<<<<<<<<<<<<  ddgggggggggdgddgddgggg",
"ggggggdddggggggggggggg ##<<<<<<<<<<<<<<<# ggggggggggggdddggggggg",
"gggggdddggggdgggggggg*    <<<<<<<<<<<<    ggdggggggggdddggggdggg",
"dggdgdgggggdggggdggd          hhff          ggggdggdgdgggggdgggg",
"ggdgggggggddgggdggd 33        h  f        33 ggdggdgggggggddgggd",
"ggggggggggggggddgg 33003      h  f      33333 ddggggggggggggggdd",
"gggggggggggggggggg 3300003    hhff    3333333 gggggggggggggggggg",
"gggggggdggggggggggg 333000000000000000033333 ggggggggggdgggggggg",
"ggdggggdggggddggggdg    33300000000000r8    ddggggdggggdggggddgg",
"gdggggggggdgdggggdggg*j*                *j*gdggggdggggggggdgdggg",
"dgggggggggdgggdddgggg*jyzse==esjjse==e*zyj*gggdddgggggggggdgggdd",
"gggggggddggdggddggggg*zyzsv=wvjjjjvw=vszyzy*ggddgggggggddggdggdd",
"ddggdgddggddddggddgg*yz*yzj%%vjzzjv%%jyy*x*yddggddggdgddggddddgg",
"dgddggddgdddddggdgdd**yx*bzjjjzbbzjjjyx*x**yddggdgddggddgdddddgg",
"dgddggggdddddggddgddgg*c*bxzzzcyyczzzz*z**.=dggddgddggggdddddggd",
"dgdggdggdgdddggddgdgg==xybxbxyzjjzyxxz*y*O&.=ggddgdggdggdgdddggd",
"gggggdgddgddgggggggg=..*ybbbxzxzzxzcx***$Ot&.ggggggggdgddgddgggg",
"ggggggdddgggggggggg=.&OO*xbbxbxbzxbcx*z*1Ot,.=ggggggggdddggggggg",
"gggggdddggggdgggggg.&6O$*zbxbbbbbbbcxzz*uO66&.gggggggdddggggdggg",
"dggdgdgggggdggggdg=.,tO11yxzbxbxbbccxzy7uO,,:.ggdggdgdgggggdgggg",
"ggdgggggggddgggdgg.&6tO77*yxzxbxbczxxy*u7O:::.=dggdgggggggddgggd",
"ggggggggggggggddgg.:66Ou71**zyxzbxyz**7u7O:XX..dggggggggggggggdd",
"gggggggggggggggggg.:,,Ou7111********17u71XXkkXXggggggggggggggggg",
"gggggggdgggggggggg.,,,O7u711111$$1117u77XXkglpXggggggggdgggggggg",
"ggdggggdggggddgggg.,,,O1u711111111177711XpngllXgggdggggdggggddgg",
"gdggggggggdgdggggd.6XXX$7u77711111777111OXqglaXggdggggggggdgdggg",
"dgggggggggdgggdddgXXplXO17uuu71111771171OXllapXddgggggggggdgggdd",
"gggggggddggdggddggXpkkXX111117111771111$XppkaXddgggggggddggdggdd",
"ddggdgddggddddggddXpdnkXX71111111111$71OOXXXXdggddggdgddggddddgg",
"dgddggddgdddddggdgXlglnkX17711111111171$O+ddddggdgddggddgdddddgg",
"dgddggggdddddggddgXalgqXO$11$11111$$711$O+dddggddgddggggdddddggd",
"dgdggdggdgdddggddgXpallX$$$11$$$$$$171$$O+dddggddgdggdggdgdddggd",
"gggggdgddgddgggggggXakpaX11711$$$$1711$O>+ddgggggggggdgddgddgggg",
"ggggggdddgggggggggggXXXXO$11711111111$O>2+ggggggggggggdddggggggg",
"gggggdddggggdggggggggd++O$11177777111O>2i+ggdggggggggdddggggdggg",
"dggdgdgggggdggggdggdgdgoOOOOOOOOOOOOO>>2i+gdggggdggdgdgggggdgggg",
"ggdgggggggddgggdggdgggoO444++++dg+-->>22i+ddgggdggdgggggggddgggd",
"ggggggggggggggddggggggo444444;odg++--+++++ggggddggggggggggggggdd",
"ggggggggggggggggggggggo;45554oggg++++44;@ogggggggggggggggggggggg",
"gggggggdgggggggggggggggooooooggggoO4444;Oogggggggggggggdgggggggg",
"ggdggggdggggddggggdggggdggggddgggoO45554;oggddggggdggggdggggddgg",
"gdggggggggdgdggggdggggggggdgdggggoOOOOOOOodgdggggdggggggggdgdggg",
"dgggggggggdgggdddgggggggggdgggdddgooooooogdgggdddgggggggggdgggdd",
"gggggggddggdggddgggggggddggdggddgggggggddggdggddgggggggddggdggdd",
"ddggdgddggddddggddggdgddggddddggddggdgddggddddggddggdgddggddddgg",
"dgddggddgdddddggdgddggddgdddddggdgddggddgdddddggdgddggddgdddddgg"
};
