/* XPM */
static char *result[] = {
/* columns rows colors chars-per-pixel */
"64 64 52 1 ",
"  c black",
". c #090609",
"X c #1E0C08",
"o c #101010",
"O c #111111",
"+ c #101414",
"@ c gray11",
"# c gray12",
"$ c #232017",
"% c #181825",
"& c #13112D",
"* c #281821",
"= c #1C2222",
"- c #272727",
"; c #26222D",
": c #22282A",
"> c #29292F",
", c #2C2C2C",
"< c #2D2D2D",
"1 c #2A3034",
"2 c gray19",
"3 c #313131",
"4 c #353535",
"5 c #31333B",
"6 c gray23",
"7 c #3A393C",
"8 c gray24",
"9 c #3E3E3E",
"0 c #4F2313",
"q c #544C2E",
"w c #7E4E20",
"e c #3F3E40",
"r c #37394B",
"t c #2B225A",
"y c gray25",
"u c #4A5057",
"i c #DC6F35",
"p c #FF7D2C",
"a c #A96B4C",
"s c #669344",
"d c #A49831",
"f c #809D49",
"g c #B3A84D",
"h c #D98E60",
"j c #FFC95A",
"k c #FFFF61",
"l c #402E82",
"z c #7141B2",
"x c #A966DD",
"c c #E7C7BF",
"v c #D085ED",
"b c #FFFFDF",
/* pixels */
"sfssffffsssssffssfssffffsssssffssfssffffsssssffssfssffffsssssffs",
"sfsffsffsfsssffssfsffsffsfsssffssfsffsffsfsssffssfsffsffsfsssffs",
"fffffsfssfssfffffffffsfssfssfffffffffsfssfssfffffffffsfssfssffff",
"ffffffsssfffffffffffffsssfffffffffffffsssfffffffffffffsssfffffff",
"fffffsssffffsffffffffsssffffsff fffffsssffffsffffffffsssffffsfff",
"sffsfsfffffsffffsffsfsfffffsff @ ffsfsfffffsffffsffsfsfffffsffff",
"ffsfffffffssfffsffsfffffffssf @9@ sfffffffssfffsffsfffffffssfffs",
"ffffffffffffffssfffffffffffff ,9, ffffffffffffssffffffffffffffss",
"ffffffffffffffffffffffffffff @99,@ fffffffffffffffffffffffffffff",
"fffffffsfffffffffffffffsfff  ,999@ ffffsfffffffffffffffsffffffff",
"ffsffffsffffssffffsffffsff @,9999,@ fffsffffssffffsffffsffffssff",
"fsffffffffsfsffffsffffffff ,999999,@ fffffsfsffffsffffffffsfsfff",
"sfffffffffsfffsssffffffff @99999999,@ ffffsfffsssfffffffffsfffss",
"fffffffssffsffssfffffffss ,888888888,@ ssffsffssfffffffssffsffss",
"ssffsfssffssssffssffsfss @,,,,,,,,,,,, sffssssffssffsfssffssssff",
"sfssffssfsssssffsfssffs @,,,,,,,,,,,,,@ fsssssffsfssffssfsssssff",
"sfssffffsssssffssfssff  @,,,,,,,,,,,,,,@ ssssffssfssffffsssssffs",
"sfsffsffsfsssffssfsffs @@,,,,,,,,,,,,,,,  sssffssfsffsffsfsssffs",
"fffffsfssfssfffffffffs @@,,,,,,,,,,,,,,,@ ssfffffffffsfssfssffff",
"ffffffsssffffffffffff&    ,,,,,,,,,,,,    ffffffffffffsssfffffff",
"fffffsssffffsfffffff          ggdd          sffffffffsssffffsfff",
"sffsfsfffffsffffsff 22        g  d        22 fffsffsfsfffffsffff",
"ffsfffffffssfffsff 22992      g  d      22222 fsffsfffffffssfffs",
"ffffffffffffffssff 2299992    ggdd    2222222 ssffffffffffffffss",
"fffffffffffffffffff 222999999999999999922222 fffffffffffffffffff",
"fffffffsffffffffffff    22299999999999e7    fffffffffffsffffffff",
"ffsffffsffffssffffsff&h&                &h&fssffffsffffsffffssff",
"fsffffffffsfsffffsfff&htlaw**wahhaw**w&lth&fsffffsffffffffsfsfff",
"sfffffffffsfffsssffff&ltlac*qchhhhcq*caltlt&ffsssfffffffffsfffss",
"fffffffssffsffssffff&tl&tlh$$chllhc$$htt&z&tffssfffffffssffsffss",
"ssffsfssffssssffssff&&tz&vlhhhlvvlhhhtz&z&&tssffssffsfssffssssff",
"sfssffssfsssssffsfss*.&x&vzlllxttxllll&l&&.*ssffsfssffssfsssssff",
"sfssffffsssssffssfs*.%Oztvzvztlhhltzzl&t&O%.*ffssfssffffsssssffs",
"sfsffsffsfsssffssfs.%rO&tvvvzlzllzlxz&&&#Or%.ffssfsffsffsfsssffs",
"fffffsfssfssffffff*.>rO<&zvvzvzvlzvxz&l&<Or>.*fffffffsfssfssffff",
"ffffffsssfffffffff.;5rO6&lvzvvvvvvvxzll&yOr5;.ffffffffsssfffffff",
"fffffsssffffsfffff.;55Oy6tzlvzvzvvxxzlt6yO55;.fffffffsssffffsfff",
"sffsfsfffffsffffs*.;>>Oy6&tzlzvzvxlzzt&y6O>>;.*fsffsfsfffffsffff",
"ffsfffffffssfffsf.%>>;O6y6&&ltzlvztl&&6y6O;>>%.sffsfffffffssfffs",
"ffffffffffffffssf.>>>>O<y6<<&&&&&&&&<6y6<O>>>>.sffffffffffffffss",
"fffffffffffffffff.rXXXO#6y6<<<###<<<6y66#OXXXr.fffffffffffffffff",
"fffffffsfffffffffXXikXOO<6y66<<##<<666<<OOXkiXXffffffffsffffffff",
"ffsffffsffffssfffXijjXXO<<<yy6<<<<666<<<OXXjjiXfffsffffsffffssff",
"fsffffffffsfsffffXifbjXX#6<<<6<<<66<<<6<XXjfkiXffsffffffffsfsfff",
"sfffffffffsfffsssXkfkbjX#<6<<<<<<<<<<<<#XjbfkkXssfffffffffsfffss",
"fffffffssffsffssfXpkf0XOO#<6<<<<<<<<#6<OOX0skpXsfffffffssffsffss",
"ssffsfssffssssffsXipkkXO###<#<<<<<##<6<#OXkkpiXfssffsfssffssssff",
"sfssffssfsssssffsfXpjipX#<<<<######<6<<#XpijpXffsfssffssfsssssff",
"sfssffffsssssffssfsXXXX=O#<6<<####<66<##OXXXXffssfssffffsssssffs",
"sfsffsffsfsssffssfsffs+:O#<<6<<<<<<<<<#O:+sssffssfsffsffsfsssffs",
"fffffsfssfssfffffffff+=1:O#<<66666<<<#O:1=+sfffffffffsfssfssffff",
"ffffffsssffffffffffff+u11:OOOOOOOOOOOO:11u+fffffffffffsssfffffff",
"fffffsssffffsffffffff+1:::=:=+ffff+=:=:::1+fsffffffffsssffffsfff",
"sffsfsfffffsffffsffsf++:1::==+ffsf+==::1:++sffffsffsfsfffffsffff",
"ffsfffffffssfffsffsffoO+++==++fsff++==+++Oosfffsffsfffffffssfffs",
"ffffffffffffffssfffffo-333++++ssff++++333-offfssffffffffffffffss",
"ffffffffffffffffffffoO33333-offffffo-33333Ooffffffffffffffffffff",
"fffffffsffffffffffffo333333-offffffo-333333offfffffffffsffffffff",
"ffsffffsffffssffffsfo-34443ossffffsfo34443-ossffffsffffsffffssff",
"fsffffffffsfsffffsfffoooooofsffffsfffoooooofsffffsffffffffsfsfff",
"sfffffffffsfffsssfffffffffsfffsssfffffffffsfffsssfffffffffsfffss",
"fffffffssffsffssfffffffssffsffssfffffffssffsffssfffffffssffsffss",
"ssffsfssffssssffssffsfssffssssffssffsfssffssssffssffsfssffssssff",
"sfssffssfsssssffsfssffssfsssssffsfssffssfsssssffsfssffssfsssssff"
};
