/* XPM */
static char *result[] = {
/* columns rows colors chars-per-pixel */
"64 64 53 1 ",
"  c black",
". c #090609",
"X c #1E0C08",
"o c #101010",
"O c #111111",
"+ c #101414",
"@ c gray8",
"# c gray11",
"$ c gray12",
"% c #232017",
"& c #181825",
"* c #13112D",
"= c #281821",
"- c #1C2222",
"; c #272727",
": c #26222D",
"> c #22282A",
", c #29292F",
"< c #2C2C2C",
"1 c #2D2D2D",
"2 c #2A3034",
"3 c gray19",
"4 c #313131",
"5 c #353535",
"6 c #31333B",
"7 c gray23",
"8 c #3A393C",
"9 c gray24",
"0 c #3E3E3E",
"q c #4F2313",
"w c #544C2E",
"e c #7E4E20",
"r c #3F3E40",
"t c #37394B",
"y c #2B225A",
"u c gray25",
"i c #4A5057",
"p c #DC6F35",
"a c #FF7D2C",
"s c #A96B4C",
"d c #669344",
"f c #A49831",
"g c #809D49",
"h c #B3A84D",
"j c #D98E60",
"k c #FFC95A",
"l c #FFFF61",
"z c #402E82",
"x c #7141B2",
"c c #A966DD",
"v c #E7C7BF",
"b c #D085ED",
"n c #FFFFDF",
/* pixels */
"dgddggggdddddggddgddggggdddddggddgddggggdddddggddgddggggdddddggd",
"dgdggdggdgdddggddgdggdggdgdddggddgdggdggdgdddggddgdggdggdgdddggd",
"gggggdgddgddgggggggggdgddgddgggggggggdgddgddgggggggggdgddgddgggg",
"ggggggdddgggggggggggggdddgggggggggggggdddgggggggggggggdddggggggg",
"gggggdddggggdggggggggdddggggdggggggggdddggggdggggggggdddggggdggg",
"dggdgdgggggdggggdggdgdgggggdggggdggdgdgggggdggggdggdgdgggggdgggg",
"ggdgggggggddgggdggdgggggggddgg dggdgggggggddgggdggdgggggggddgggd",
"ggggggggggggggddggggggggggggg # ggggggggggggggddggggggggggggggdd",
"gggggggggggggggggggggggggggg #0# ggggggggggggggggggggggggggggggg",
"gggggggdgggggggggggggggdgggg <0< ggggggdgggggggggggggggdgggggggg",
"ggdggggdggggddggggdggggdggg #00<# dggggdggggddggggdggggdggggddgg",
"gdggggggggdgdggggdgggggggg  <000# ggggggggdgdggggdggggggggdgdggg",
"dgggggggggdgggdddgggggggg #<0000<# gggggggdgggdddgggggggggdgggdd",
"gggggggddggdggddgggggggdd <000000<# gggddggdggddgggggggddggdggdd",
"ddggdgddggddddggddggdgdd #00000000<# gddggddddggddggdgddggddddgg",
"dgddggddgdddddggdgddggdd <999999999<# ddgdddddggdgddggddgdddddgg",
"dgddggggdddddggddgddggg #<<<<<<<<<<<< ggdddddggddgddggggdddddggd",
"dgdggdggdgdddggddgdggd #<<<<<<<<<<<<<# gdgdddggddgdggdggdgdddggd",
"gggggdgddgddggggggggg  #<<<<<<<<<<<<<<# dgddgggggggggdgddgddgggg",
"ggggggdddgggggggggggg ##<<<<<<<<<<<<<<<  gggggggggggggdddggggggg",
"gggggdddggggdgggggggg ##<<<<<<<<<<<<<<<# gggdggggggggdddggggdggg",
"dggdgdgggggdggggdggd*    <<<<<<<<<<<<    ggdggggdggdgdgggggdgggg",
"ggdgggggggddgggdggd          hhff          dgggdggdgggggggddgggd",
"ggggggggggggggddgg 33        h  f        33 ggddggggggggggggggdd",
"ggggggggggggggggg 33003      h  f      33333 ggggggggggggggggggg",
"gggggggdggggggggg 3300003    hhff    3333333 ggggggggggdgggggggg",
"ggdggggdggggddgggg 333000000000000000033333 ddggggdggggdggggddgg",
"gdggggggggdgdggggdg    33300000000000r8    gdggggdggggggggdgdggg",
"dgggggggggdgggdddggg*j*                *j*dgggdddgggggggggdgggdd",
"gggggggddggdggddgggg*jyzse==esjjse==e*zyj*gdggddgggggggddggdggdd",
"ddggdgddggddddggddgg*zyzsv=wvjjjjvw=vszyzy*dddggddggdgddggddddgg",
"dgddggddgdddddggdgd*yz*yzj%%vjzzjv%%jyy*x*ydddggdgddggddgdddddgg",
"dgddggggdddddggddgd**yx*bzjjjzbbzjjjyx*x**yddggddgddggggdddddggd",
"dgdggdggdgdddggddgd=.*c*bxzzzcyyczzzz*z**gdddggddgdggdggdgdddggd",
"gggggdgddgddgggggg=.&Oxybxbxyzjjzyxxz*y*==ddgggggggggdgddgddgggg",
"ggggggdddggggggggg.&tO*ybbbxzxzzxzcx***...=gggggggggggdddggggggg",
"gggggdddggggdgggg=.,tO1*xbbxbxbzxbcx*z*OO&.=dggggggggdddggggdggg",
"dggdgdgggggdggggd.&66O7*zbxbbbbbbbcxzz*$O6&.ggggdggdgdgggggdgggg",
"ggdgggggggddgggdg.:,,Ou7yxzbxbxbbccxzy11Ot,.=ggdggdgggggggddgggd",
"ggggggggggggggdd=.XXXOu7*yxzxbxbczxxy*7uOt6&.gddggggggggggggggdd",
"ggggggggggggggggXXplXO7u7**zyxzbxyz**77uO66:.ggggggggggggggggggg",
"gggggggdggggggggXpkkXX1u711********117u7O,,:.ggggggggggdgggggggg",
"ggdggggdggggddggXpdnkXX7u71111$$111177u7O,,,.dggggdggggdggggddgg",
"gdggggggggdgdgggXlglnkX17u7111111117uu71O,,,.ggggdggggggggdgdggg",
"dgggggggggdgggddXalgqXO111u711111177777$XXX6.gdddgggggggggdgggdd",
"gggggggddggdggddXpallXO$711u71111777111OXlpXXgddgggggggddggdggdd",
"ddggdgddggddddggdXakpaX$171171117711111XXkkpXdggddggdgddggddddgg",
"dgddggddgdddddggdgXXXXOO$1711111111117XXkdlpXdggdgddggddgdddddgg",
"dgddggggdddddggddgddg+O$$$111111111$71XkndllXggddgddggggdddddggd",
"dgdggdggdgdddggddgdgg+O$111$11111$$171OXqglaXggddgdggdggdgdddggd",
"gggggdgddgddggggggggg+-O$171$$$$$$1711$XllapXggggggggdgddgddgggg",
"ggggggdddgggggggggggg+>O$1111$$$$17711XapkaXggggggggggdddggggggg",
"gggggdddggggdgggggggg+2>O$17111111111$$XXXXgdggggggggdddggggdggg",
"dggdgdgggggdggggdggdg+i2>OO1777771111$O++ggdggggdggdgdgggggdgggg",
"ggdgggggggddgggdggdgg+i2>>OOOOOOOOOOOO;oggddgggdggdgggggggddgggd",
"ggggggggggggggddggggg+i22>>--+dd++++444Oogggggddggggggggggggggdd",
"ggggggggggggggggggggg+++++--++ggo;444444oggggggggggggggggggggggg",
"gggggggdgggggggggggggo@;44++++gggo45554;oggggggggggggggdgggggggg",
"ggdggggdggggddggggdggoO;4444Ooggggooooooggggddggggdggggdggggddgg",
"gdggggggggdgdggggdgggo;45554Oogggdggggggggdgdggggdggggggggdgdggg",
"dgggggggggdgggdddggggoOOOOOOOodddgggggggggdgggdddgggggggggdgggdd",
"gggggggddggdggddggggggooooooogddgggggggddggdggddgggggggddggdggdd",
"ddggdgddggddddggddggdgddggddddggddggdgddggddddggddggdgddggddddgg",
"dgddggddgdddddggdgddggddgdddddggdgddggddgdddddggdgddggddgdddddgg"
};
