/* XPM */
static char *result[] = {
/* columns rows colors chars-per-pixel */
"64 64 54 1 ",
"  c black",
". c #090609",
"X c #1E0C08",
"o c #101010",
"O c #111111",
"+ c #101414",
"@ c gray8",
"# c gray11",
"$ c gray12",
"% c #232017",
"& c #181825",
"* c #13112D",
"= c #281821",
"- c #1C2222",
"; c #272727",
": c #26222D",
"> c #22282A",
", c #29292F",
"< c #2C2C2C",
"1 c #2D2D2D",
"2 c #2A3034",
"3 c gray19",
"4 c #313131",
"5 c #353535",
"6 c #31333B",
"7 c gray23",
"8 c gray24",
"9 c #3E3E3E",
"0 c #4F2313",
"q c #544C2E",
"w c #41403F",
"e c #7E4E20",
"r c #37394B",
"t c #2B225A",
"y c gray25",
"u c #4E4642",
"i c #4A5057",
"p c #DC6F35",
"a c #FF7D2C",
"s c #905E51",
"d c #A96B4C",
"f c #669344",
"g c #A49831",
"h c #809D49",
"j c #B3A84D",
"k c #D98E60",
"l c #FFC95A",
"z c #FFFF61",
"x c #402E82",
"c c #7141B2",
"v c #A966DD",
"b c #E7C7BF",
"n c #D085ED",
"m c #FFFFDF",
/* pixels */
"fhffhhhhfffffhhffhffhhhhfffffhhffhffhhhhfffffhhffhffhhhhfffffhhf",
"fhfhhfhhfhfffhhffhfhhfhhfhfffhhffhfhhfhhfhfffhhffhfhhfhhfhfffhhf",
"hhhhhfhffhffhhhhhhhhhfhffhffhhhhhhhhhfhffhffhhhhhhhhhfhffhffhhhh",
"hhhhhhfffhhhhhhhhhhhhhfffhhhhhhhhhhhhhfffhhhhhhhhhhhhhfffhhhhhhh",
"hhhhhfffhhhhfhhhhhhhhfffhhhhfhhhhhhhhfffhhhhfhhhhhhhhfffhhhhfhhh",
"fhhfhfhhhhhfhhhhfhhfhfhhhhhfhh hfhhfhfhhhhhfhhhhfhhfhfhhhhhfhhhh",
"hhfhhhhhhhffhhhfhhfhhhhhhhffh # hhfhhhhhhhffhhhfhhfhhhhhhhffhhhf",
"hhhhhhhhhhhhhhffhhhhhhhhhhhh #9# hhhhhhhhhhhhhffhhhhhhhhhhhhhhff",
"hhhhhhhhhhhhhhhhhhhhhhhhhhhh <9< hhhhhhhhhhhhhhhhhhhhhhhhhhhhhhh",
"hhhhhhhfhhhhhhhhhhhhhhhfhhh #99<# hhhhhfhhhhhhhhhhhhhhhfhhhhhhhh",
"hhfhhhhfhhhhffhhhhfhhhhfhh  <999# fhhhhfhhhhffhhhhfhhhhfhhhhffhh",
"hfhhhhhhhhfhfhhhhfhhhhhhh #<9999<# hhhhhhhfhfhhhhfhhhhhhhhfhfhhh",
"fhhhhhhhhhfhhhfffhhhhhhhh <999999<# hhhhhhfhhhfffhhhhhhhhhfhhhff",
"hhhhhhhffhhfhhffhhhhhhhf #99999999<# hhffhhfhhffhhhhhhhffhhfhhff",
"ffhhfhffhhffffhhffhhfhff <888888888<# ffhhffffhhffhhfhffhhffffhh",
"fhffhhffhfffffhhfhffhhf #<<<<<<<<<<<< *fhfffffhhfhffhhffhfffffhh",
"fhffhhhhfffffhhffhffhh #<<<<<<<<<<<<<# *fffffhhffhffhhhhfffffhhf",
"fhfhhfhhfhfffhhffhfhh  #<<<<<<<<<<<<<<# *hfffhhffhfhhfhhfhfffhhf",
"hhhhhfhffhffhhhhhhhhh ##<<<<<<<<<<<<<<<  hffhhhhhhhhhfhffhffhhhh",
"hhhhhhfffhhhhhhhhhhhh ##<<<<<<<<<<<<<<<#j*hhhhhhhhhhhhfffhhhhhhh",
"hhhhhfffhhhhfhhhhhhhh    <<<<<<<<<<<<  j *hhfhhhhhhhhfffhhhhfhhh",
"fhhfhfhhhhhfhhhhfhh                    j g fhhhhfhhfhfhhhhhfhhhh",
"hhfhhhhhhhffhhhfhh 33                  jj33 hhhfhhfhhhhhhhffhhhf",
"hhhhhhhhhhhhhhffh 33993                33333 hffhhhhhhhhhhhhhhff",
"hhhhhhhhhhhhhhhhh 3399993            3333333 hhhhhhhhhhhhhhhhhhh",
"hhhhhhhfhhhhhhhhhh 333999999999999999933333 hhhhhhhhhhhfhhhhhhhh",
"hhfhhhhfhhhhffhhhhf    33399999999999wu    hffhhhhfhhhhfhhhhffhh",
"hfhhhhhhhhfhfhhhhfhhhh*                d=hfhfhhhhfhhhhhhhhfhfhhh",
"fhhhhhhhhhfhhhfffhhhhh*xt*kkkdktee==kkk=thfhhhfffhhhhhhhhhfhhhff",
"hhhhhhhffhhfhhffhhhhhhh*t*sttdk*bb=qkxx=thhfhhffhhhhhhhffhhfhhff",
"ffhhfhffhhffffhhffhhfhf*xt*cxtdkkb%%xnnxthffffhhffhhfhffhhffffhh",
"fhffhhffhfffffhhfhffhhf*xxt*cxtkkkkkvttvtfffffhhfhffhhffhfffffhh",
"fhffhhhhfffffhhffhffhhh*txx*cxxttxxxts=x*ffffhhffhffhhhhfffffhhf",
"fhfhhfhhfhfffhhffhfhhfh*t*xt*xccxccxxcc**hfffhhffhfhhfhhfhfffhhf",
"hhhhhfhffhffhhhhhhhhhf*t*,*x*ccvxcncvn*t*hffhhhhhhhhhfhffhffhhhh",
"hhhhhhfffhhhhhhhhhhhhh**rrr**cvvncnnvn*t*hhhhhhhhhhhhhfffhhhhhhh",
"hhhhhfffhhhhfhhhhhhhh=*,rrr**xcvnnnnnv***hhhfhhhhhhhhfffhhhhfhhh",
"fhhfhfhhhhhfhhhhfhhfh.*6rr6O*xcnvnncnx**hhhfhhhhfhhfhfhhhhhfhhhh",
"hhfhhhhhhhffhhhfhhfhh.:6666O*tccxvncnc**hhffhhhfhhfhhhhhhhffhhhf",
"hhhhhhhhhhhhhhffhhhhh.6666,O7**xtcnxc**hhhhhhhffhhhhhhhhhhhhhhff",
"hhhhhhhhhhhhhhhhhhhhh.6666O1711********hhhhhhhhhhhhhhhhhhhhhhhhh",
"hhhhhhhfhhhhhhhhhhhhh.:666&$y7111111y1Ofhhhhhhhhhhhhhhhfhhhhhhhh",
"hhfhhhhfhhhhffhhhhfhh.&666:O7y7111171$Ofhhhhffhhhhfhhhhfhhhhffhh",
"hfhhhhhhhhfhfhhhhfhhhh.:6r6&1XXX11117$Ohhhfhfhhhhfhhhhhhhhfhfhhh",
"fhhhhhhhhhfhhhfffhhhhh.&66r:XhmlX11$$$Ohhhfhhhfffhhhhhhhhhfhhhff",
"hhhhhhhffhhfhhffhhhhhhh.:,6XzhzmaX$$1Ohffhhfhhffhhhhhhhffhhfhhff",
"ffhhfhffhhffffhhffhhfhff.:.XazhpXX11$O+fhhffffhhffhhfhffhhffffhh",
"fhffhhffhfffffhhfhffhhfOh..Xpazz0X$$$O+fhfffffhhfhffhhffhfffffhh",
"fhffhhhhfffffhhffhffhhhO$+.-XallpX$$1Oi+fffffhhffhffhhhhfffffhhf",
"fhfhhfhhfhfffhhffhfhhfhO$O$--XXXX-$111O+fhfffhhffhfhhfhhfhfffhhf",
"hhhhhfhffhffhhhhhhhhhfhO$O$$---++-$$$OOi+hffhhhhhhhhhfhffhffhhhh",
"hhhhhhfffhhhhhhhhhhhhhf+OO$$$>>++$$OO>>2+hhhhhhhhhhhhhfffhhhhhhh",
"hhhhhfffhhhhfhhhhhhhhf+2>OOO$$$$$$O>>>>2>+hhfhhhhhhhhfffhhhhfhhh",
"fhhfhfhhhhhfhhhhfhhfh+>>>>>OOOOOOO->>>>>+ooohhhhfhhfhfhhhhhfhhhh",
"hhfhhhhhhhffhhhfhhfho@+>>----+hfh+-->>>+O;5;ohhfhhfhhhhhhhffhhhf",
"hhhhhhhhhhhhhhffhhhhoO;++++++hffhh+--++OO4;@ohffhhhhhhhhhhhhhhff",
"hhhhhhhhhhhhhhhhhhhhoO;44;@oohhhhh+++OOO;;@ohhhhhhhhhhhhhhhhhhhh",
"hhhhhhhfhhhhhhhhhhhhhoO44444OohhhhhhoOOO@oohhhhhhhhhhhhfhhhhhhhh",
"hhfhhhhfhhhhffhhhhfhhhoO;555;ohhhhfhhoooohhhffhhhhfhhhhfhhhhffhh",
"hfhhhhhhhhfhfhhhhfhhhhhoooooohhhhfhhhhhhhhfhfhhhhfhhhhhhhhfhfhhh",
"fhhhhhhhhhfhhhfffhhhhhhhhhfhhhfffhhhhhhhhhfhhhfffhhhhhhhhhfhhhff",
"hhhhhhhffhhfhhffhhhhhhhffhhfhhffhhhhhhhffhhfhhffhhhhhhhffhhfhhff",
"ffhhfhffhhffffhhffhhfhffhhffffhhffhhfhffhhffffhhffhhfhffhhffffhh",
"fhffhhffhfffffhhfhffhhffhfffffhhfhffhhffhfffffhhfhffhhffhfffffhh"
};
