/* XPM */
static char *result[] = {
/* columns rows colors chars-per-pixel */
"64 64 55 1 ",
"  c black",
". c #090609",
"X c #1E0C08",
"o c #101010",
"O c #111111",
"+ c #101414",
"@ c gray8",
"# c gray11",
"$ c gray12",
"% c #232017",
"& c #181825",
"* c #13112D",
"= c #281821",
"- c #1C2222",
"; c #272727",
": c #26222D",
"> c #22282A",
", c #29292F",
"< c #2C2C2C",
"1 c #2D2D2D",
"2 c #2A3034",
"3 c gray19",
"4 c #313131",
"5 c #353535",
"6 c #31333B",
"7 c #393939",
"8 c gray23",
"9 c gray24",
"0 c #3E3E3E",
"q c #4F2313",
"w c #544C2E",
"e c #41403F",
"r c #7E4E20",
"t c #37394B",
"y c #2B225A",
"u c gray25",
"i c #4E4642",
"p c #4A5057",
"a c #DC6F35",
"s c #FF7D2C",
"d c #905E51",
"f c #A96B4C",
"g c #669344",
"h c #A49831",
"j c #809D49",
"k c #B3A84D",
"l c #D98E60",
"z c #FFC95A",
"x c #FFFF61",
"c c #402E82",
"v c #7141B2",
"b c #A966DD",
"n c #E7C7BF",
"m c #D085ED",
"M c #FFFFDF",
/* pixels */
"gjggjjjjgggggjjggjggjjjjgggggjjggjggjjjjgggggjjggjggjjjjgggggjjg",
"gjgjjgjjgjgggjjggjgjjgjjgjgggjjggjgjjgjjgjgggjjggjgjjgjjgjgggjjg",
"jjjjjgjggjggjjjjjjjjjgjggjggjjjjjjjjjgjggjggjjjjjjjjjgjggjggjjjj",
"jjjjjjgggjjjjjjjjjjjjjgggjjjjjjjjjjjjjgggjjjjjjjjjjjjjgggjjjjjjj",
"jjjjjgggjjjjgjjjjjjjjgggjjjjgj jjjjjjgggjjjjgjjjjjjjjgggjjjjgjjj",
"gjjgjgjjjjjgjjjjgjjgjgjjjjjgj # gjjgjgjjjjjgjjjjgjjgjgjjjjjgjjjj",
"jjgjjjjjjjggjjjgjjgjjjjjjjgg #0# jgjjjjjjjggjjjgjjgjjjjjjjggjjjg",
"jjjjjjjjjjjjjjggjjjjjjjjjjjj <0< jjjjjjjjjjjjjggjjjjjjjjjjjjjjgg",
"jjjjjjjjjjjjjjjjjjjjjjjjjjj #00<# jjjjjjjjjjjjjjjjjjjjjjjjjjjjjj",
"jjjjjjjgjjjjjjjjjjjjjjjgjj  <000# jjjjjgjjjjjjjjjjjjjjjgjjjjjjjj",
"jjgjjjjgjjjjggjjjjgjjjjgj #<0000<# jjjjgjjjjggjjjjgjjjjgjjjjggjj",
"jgjjjjjjjjgjgjjjjgjjjjjjj <000000<# jjjjjjgjgjjjjgjjjjjjjjgjgjjj",
"gjjjjjjjjjgjjjgggjjjjjjj #00000000<# jjjjjgjjjgggjjjjjjjjjgjjjgg",
"jjjjjjjggjjgjjggjjjjjjjg <999999999<# jggjjgjjggjjjjjjjggjjgjjgg",
"ggjjgjggjjggggjjggjjgjg #<<<<<<<<<<<< *gjjggggjjggjjgjggjjggggjj",
"gjggjjggjgggggjjgjggjj #<<<<<<<<<<<<<# *jgggggjjgjggjjggjgggggjj",
"gjggjjjjgggggjjggjggj  #<<<<<<<<<<<<<<# *ggggjjggjggjjjjgggggjjg",
"gjgjjgjjgjgggjjggjgjj ##<<<<<<<<<<<<<<<  jgggjjggjgjjgjjgjgggjjg",
"jjjjjgjggjggjjjjjjjjj ##<<<<<<<<<<<<<<<#k*ggjjjjjjjjjgjggjggjjjj",
"jjjjjjgggjjjjjjjjjjjj    <<<<<<<<<<<<  k *jjjjjjjjjjjjgggjjjjjjj",
"jjjjjgggjjjjgjjjjjj                    k h jgjjjjjjjjgggjjjjgjjj",
"gjjgjgjjjjjgjjjjgj 33                  kk33 jjjjgjjgjgjjjjjgjjjj",
"jjgjjjjjjjggjjjgj 33003                33333 jjgjjgjjjjjjjggjjjg",
"jjjjjjjjjjjjjjggj 3300003            3333333 jggjjjjjjjjjjjjjjgg",
"jjjjjjjjjjjjjjjjjj 333000000000000000033333 jjjjjjjjjjjjjjjjjjjj",
"jjjjjjjgjjjjjjjjjjj    33300000000000ei    jjjjjjjjjjjjgjjjjjjjj",
"jjgjjjjgjjjjggjjjjgjjj*                f=jjjggjjjjgjjjjgjjjjggjj",
"jgjjjjjjjjgjgjjjjgjjjj*cy*lllflyrr==lll=yjgjgjjjjgjjjjjjjjgjgjjj",
"gjjjjjjjjjgjjjgggjjjjjj*y*dyyfl*nn=wlcc=yjgjjjgggjjjjjjjjjgjjjgg",
"jjjjjjjggjjgjjggjjjjjjj*cy*vcyflln%%cmmcyjjgjjggjjjjjjjggjjgjjgg",
"ggjjgjggjjggggjjggjjgjg*ccy*vcylllllbyybyjggggjjggjjgjggjjggggjj",
"gjggjjggjgggggjjgjggjjg*ycc*vccyycccyd=c*gggggjjgjggjjggjgggggjj",
"gjggjjjjgggggjjggjggjjj*y*cy*cvvcvvccvv**ggggjjggjggjjjjgggggjjg",
"gjgjjgjjgjgggjjggjgjjg*y*,*c*vvbcvmvbm*y*jgggjjggjgjjgjjgjgggjjg",
"jjjjjgjggjggjjjjjjjjjg**ttt**vbbmvmmbm*y*jggjjjjjjjjjgjggjggjjjj",
"jjjjjjgggjjjjjjjjjjjj=*,ttt**cvbmmmmmb***jjjjjjjjjjjjjgggjjjjjjj",
"jjjjjgggjjjjgjjjjjjjj.*6tt66*cvmbmmvmc**jjjjgjjjjjjjjgggjjjjgjjj",
"gjjgjgjjjjjgjjjjgjjgj.:66666*yvvcbmvmv**jjjgjjjjgjjgjgjjjjjgjjjj",
"jjgjjjjjjjggjjjgjjgjj.6666,,O**cyvmcv**Ojjggjjjgjjgjjjjjjjggjjjg",
"jjjjjjjjjjjjjjggjjjjj.666,::O81********Ojjjjjjggjjjjjjjjjjjjjjgg",
"jjjjjjjjjjjjjjjjjjjjj.666:&O1u8111111u1Ojjjjjjjjjjjjjjjjjjjjjjjj",
"jjjjjjjgjjjjjjjjjjjjj.66t&.O$8u8111181$Ojjjjjjjjjjjjjjjgjjjjjjjj",
"jjgjjjjgjjjjggjjjjgjj.,6XXXO$118111118$XXjjjggjjjjgjjjjgjjjjggjj",
"jgjjjjjjjjgjgjjjjgjjj.:XjMzX$1111111$$XzXjgjgjjjjgjjjjjjjjgjgjjj",
"gjjjjjjjjjgjjjgggjjjj.XxjxMsX$1881$$$1XxXjgjjjgggjjjjjjjjjgjjjgg",
"jjjjjjjggjjgjjggjjjjj.XsxjaXX$$111111$XaXjjgjjggjjjjjjjggjjgjjgg",
"ggjjgjggjjggggjjggjjgjXasxxqX$$$$$$$$$XXjjggggjjggjjgjggjjggggjj",
"gjggjjggjgggggjjgjggjjgXszzaX11$$$$$$$Ogjgggggjjgjggjjggjgggggjj",
"gjggjjjjgggggjjggjggjjjjXXXX-$1111$$$1Ojgggggjjggjggjjjjgggggjjg",
"gjgjjgjjgjgggjjggjgjjgjjg+---71111111$Ojgjgggjjggjgjjgjjgjgggjjg",
"jjjjjgjggjggjjjjjjjjjgjgg+--1177711$OOOggjggjjjjjjjjjgjggjggjjjj",
"jjjjjjgggjjjjjjjjjjjjjgg+-OO$11$OOOO>>+ggjjjjjjjjjjjjjgggjjjjjjj",
"jjjjjgggjjjjgjjjjjjjjggg+->-OOOO+->>->+gjjjjgjjjjjjjjgggjjjjgjjj",
"gjjgjgjjjjjgjjjjgjjgjgjj+--->2p>+---+++jjjjgjjjjgjjgjgjjjjjgjjjj",
"jjgjjjjjjjggjjjgjjgjjjjj+-->2++++-++;Ooojjggjjjgjjgjjjjjjjggjjjg",
"jjjjjjjjjjjjjjggjjjjjjj+--+++Oo+++;44;;;ojjjjjggjjjjjjjjjjjjjjgg",
"jjjjjjjjjjjjjjjjjjjjjjj+-+;44;@oo@;44554ojjjjjjjjjjjjjjjjjjjjjjj",
"jjjjjjjgjjjjjjjjjjjjjjj++OO44444Ooooooooojjjjjjjjjjjjjjgjjjjjjjj",
"jjgjjjjgjjjjggjjjjgjjjjgjoOO;555;ogjjjjgjjjjggjjjjgjjjjgjjjjggjj",
"jgjjjjjjjjgjgjjjjgjjjjjjjjooooooogjjjjjjjjgjgjjjjgjjjjjjjjgjgjjj",
"gjjjjjjjjjgjjjgggjjjjjjjjjgjjjgggjjjjjjjjjgjjjgggjjjjjjjjjgjjjgg",
"jjjjjjjggjjgjjggjjjjjjjggjjgjjggjjjjjjjggjjgjjggjjjjjjjggjjgjjgg",
"ggjjgjggjjggggjjggjjgjggjjggggjjggjjgjggjjggggjjggjjgjggjjggggjj",
"gjggjjggjgggggjjgjggjjggjgggggjjgjggjjggjgggggjjgjggjjggjgggggjj"
};
