/* XPM */
static char *result[] = {
/* columns rows colors chars-per-pixel */
"64 64 55 1 ",
"  c black",
". c #090609",
"X c #1E0C08",
"o c #101010",
"O c #111111",
"+ c #101414",
"@ c gray8",
"# c gray11",
"$ c gray12",
"% c #232017",
"& c #181825",
"* c #13112D",
"= c #281821",
"- c #1C2222",
"; c #272727",
": c #26222D",
"> c #22282A",
", c #29292F",
"< c #2C2C2C",
"1 c #2D2D2D",
"2 c #2A3034",
"3 c gray19",
"4 c #313131",
"5 c #353535",
"6 c #31333B",
"7 c gray23",
"8 c gray24",
"9 c #3E3E3E",
"0 c #4F2313",
"q c #5A3737",
"w c #544C2E",
"e c #41403F",
"r c #7E4E20",
"t c #37394B",
"y c #2B225A",
"u c gray25",
"i c #4E4642",
"p c #4A5057",
"a c #DC6F35",
"s c #FF7D2C",
"d c #905E51",
"f c #A96B4C",
"g c #669344",
"h c #A49831",
"j c #809D49",
"k c #B3A84D",
"l c #D98E60",
"z c #FFC95A",
"x c #FFFF61",
"c c #402E82",
"v c #7141B2",
"b c #A966DD",
"n c #E7C7BF",
"m c #D085ED",
"M c #FFFFDF",
/* pixels */
"gjggjjjjgggggjjggjggjjjjgggggjjggjggjjjjgggggjjggjggjjjjgggggjjg",
"gjgjjgjjgjgggjjggjgjjgjjgjgggjjggjgjjgjjgjgggjjggjgjjgjjgjgggjjg",
"jjjjjgjggjggjjjjjjjjjgjggjggjjjjjjjjjgjggjggjjjjjjjjjgjggjggjjjj",
"jjjjjjgggjjjjjjjjjjjjjgggjjjjjjjjjjjjjgggjjjjjjjjjjjjjgggjjjjjjj",
"jjjjjgggjjjjgjjjjjjjjgggjjjjgjjjj jjjgggjjjjgjjjjjjjjgggjjjjgjjj",
"gjjgjgjjjjjgjjjjgjjgjgjjjjjgjjjj # gjgjjjjjgjjjjgjjgjgjjjjjgjjjj",
"jjgjjjjjjjggjjjgjjgjjjjjjjggjjj #9# jjjjjjggjjjgjjgjjjjjjjggjjjg",
"jjjjjjjjjjjjjjggjjjjjjjjjjjjjjg <9< jjjjjjjjjjggjjjjjjjjjjjjjjgg",
"jjjjjjjjjjjjjjjjjjjjjjjjjjjjjj #<99# jjjjjjjjjjjjjjjjjjjjjjjjjjj",
"jjjjjjjgjjjjjjjjjjjjjjjgjjjjjj #999<  jgjjjjjjjjjjjjjjjgjjjjjjjj",
"jjgjjjjgjjjjggjjjjgjjjjgjjjjg #<9999<# gjjjjggjjjjgjjjjgjjjjggjj",
"jgjjjjjjjjgjgjjjjgjjjjjjjjgj #<999999< jjjgjgjjjjgjjjjjjjjgjgjjj",
"gjjjjjjjjjgjjjgggjjjjjjjjjg #<99999999# jjgjjjgggjjjjjjjjjgjjjgg",
"jjjjjjjggjjgjjggjjjjjjjggj #<888888888< gjjgjjggjjjjjjjggjjgjjgg",
"ggjjgjggjjggggjjggjjgjggjj <<<<<<<<<<<<# jggggjjggjjgjggjjggggjj",
"gjggjjggjgggggjjgjggjjggj #<<<<<<<<<<<<<# ggggjjgjggjjggjgggggjj",
"gjggjjjjgggggjjggjggjjjj #<<<<<<<<<<<<<<#  ggjjggjggjjjjgggggjjg",
"gjgjjgjjgjgggjjggjgjjgj  <<<<<<<<<<<<<<<## ggjjggjgjjgjjgjgggjjg",
"jjjjjgjggjggjjjjjjjjjgjk#<<<<<<<<<<<<<<<## gjjjjjjjjjgjggjggjjjj",
"jjjjjjgggjjjjjjjjjjjjjg k  <<<<<<<<<<<<    jjjjjjjjjjjgggjjjjjjj",
"jjjjjgggjjjjgjjjjjjjj h k                    jjjjjjjjgggjjjjgjjj",
"gjjgjgjjjjjgjjjjgjjg 33kk                  33 jjgjjgjgjjjjjgjjjj",
"jjgjjjjjjjggjjjgjjg 33333                39933 gjjgjjjjjjjggjjjg",
"jjjjjjjjjjjjjjggjjj 3333333            3999933 gjjjjjjjjjjjjjjgg",
"jjjjjjjjjjjjjjjjjjjj 333339999999999999999333 jjjjjjjjjjjjjjjjjj",
"jjjjjjjgjjjjjjjjjjjjj    ie99999999999333    jjjjjjjjjjgjjjjjjjj",
"jjgjjjjgjjjjggjjjjgjjjj=f                c*jggjjjjgjjjjgjjjjggjj",
"jgjjjjjjjjgjgjjjjgjjjjjy=lll==rrfyfllld*yc*jgjjjjgjjjjjjjjgjgjjj",
"gjjjjjjjjjgjjjgggjjjjjjy=cclw=nnl*fyydq*y*gjjjgggjjjjjjjjjgjjjgg",
"jjjjjjjggjjgjjggjjjjjjjycmmc%%nllfycvy*yc*jgjjggjjjjjjjggjjgjjgg",
"ggjjgjggjjggggjjggjjgjgybyyblllllycvc*ycc*ggggjjggjjgjggjjggggjj",
"gjggjjggjgggggjjgjggjjgy*=dycccyyccvc*ccy*ggggjjgjggjjggjgggggjj",
"gjggjjjjgggggjjggjggjjjy**vccvvcvvcv*yc*y*gggjjggjggjjjjgggggjjg",
"gjgjjgjjgjgggjjggjgjjgjy*y*bvmvcbvvv*c*,*y*ggjjggjgjjgjjgjgggjjg",
"jjjjjgjggjggjjjjjjjjjgj**y*bmmvmbbvc**ttt**gjjjjjjjjjgjggjggjjjj",
"jjjjjjgggjjjjjjjjjjjjjg*c**mmmmmbvcc*6ttt,*=jjjjjjjjjjgggjjjjjjj",
"jjjjjgggjjjjgjjjjjjjjgggy**mvmmbmvcy*66tt6*.gjjjjjjjjgggjjjjgjjj",
"gjjgjgjjjjjgjjjjgjjgjgjj*y*mvmbcvvy*O66666:.=jjjgjjgjgjjjjjgjjjj",
"jjgjjjjjjjggjjjgjjgjjjjjj**vcmvyc**7O,,666,&.jjgjjgjjjjjjjggjjjg",
"jjjjjjjjjjjjjjggjjjjjjjjj********1177O&,666&.jggjjjjjjjjjjjjjjgg",
"jjjjjjjjjjjjjjjjjjjjjjjjjO1u1111117u1OO.,66:.jjjjjjjjjjjjjjjjjjj",
"jjjjjjjgjjjjjjjjjjjjjjjg=O$1711117u7$$O.:66,.jjjjjjjjjjgjjjjjjjj",
"jjgjjjjgjjjjggjjjjgjjjjXXO$711111711$$Og.,66.gjjjjgjjjjgjjjjggjj",
"jgjjjjjjjjgjgjjjjgjjjjXs0X$$$1111111$$OjXXXX.=jjjgjjjjjjjjgjgjjj",
"gjjjjjjjjjgjjjgggjjjjjXjsXO1$$$1771$$$OjXsgMX=gggjjjjjjjjjgjjjgg",
"jjjjjjjggjjgjjggjjjjjjXxsaX$111111$$$OOXaMjxaXggjjjjjjjggjjgjjgg",
"ggjjgjggjjggggjjggjjgjXzsaXO$$$$$$$$$OOXzjxxzXjjggjjgjggjjggggjj",
"gjggjjggjgggggjjgjggjjXa00XOO$$$$$1$O$OXXzxzaXjjgjggjjggjgggggjj",
"gjggjjjjgggggjjggjggjjjXXXOO$$$111$$O$OX0azsXjjggjggjjjjgggggjjg",
"gjgjjgjjgjgggjjggjgjjgjjgjOOOO111$$O$$OjXXXXgjjggjgjjgjjgjgggjjg",
"jjjjjgjggjggjjjjjjjjjgjggj+p2>OO$$$O$OOggjggjjjjjjjjjgjggjggjjjj",
"jjjjjjgggjjjjjjjjjjjjjgggj+2>>>>O$O$$OOggjjjjjjjjjjjjjgggjjjjjjj",
"jjjjjgggjjjjgjjjjjjjjgggj+p2>>>>>OOOOO+gjjjjgjjjjjjjjgggjjjjgjjj",
"gjjgjgjjjjjgjjjjgjjgjgjjj+2>>>>>-+-----+jjjgjjjjgjjgjgjjjjjgjjjj",
"jjgjjjjjjjggjjjgjjgjjjjo+>2>>>>>-+-----+jjggjjjgjjgjjjjjjjggjjjg",
"jjjjjjjjjjjjjjggjjjjjjjo4++>>>>--+++++++jjjjjjggjjjjjjjjjjjjjjgg",
"jjjjjjjjjjjjjjjjjjjjjjjoO45++>--+@@OOOOojjjjjjjjjjjjjjjjjjjjjjjj",
"jjjjjjjgjjjjjjjjjjjjjjjgoO455++++@@OOO@ojjjjjjjjjjjjjjjgjjjjjjjj",
"jjgjjjjgjjjjggjjjjgjjjjgjooO44;oooooooogjjjjggjjjjgjjjjgjjjjggjj",
"jgjjjjjjjjgjgjjjjgjjjjjjjjgoooojjgjjjjjjjjgjgjjjjgjjjjjjjjgjgjjj",
"gjjjjjjjjjgjjjgggjjjjjjjjjgjjjgggjjjjjjjjjgjjjgggjjjjjjjjjgjjjgg",
"jjjjjjjggjjgjjggjjjjjjjggjjgjjggjjjjjjjggjjgjjggjjjjjjjggjjgjjgg",
"ggjjgjggjjggggjjggjjgjggjjggggjjggjjgjggjjggggjjggjjgjggjjggggjj",
"gjggjjggjgggggjjgjggjjggjgggggjjgjggjjggjgggggjjgjggjjggjgggggjj"
};
