/* XPM */
static char *result[] = {
/* columns rows colors chars-per-pixel */
"64 64 55 1 ",
"  c black",
". c #090609",
"X c #1E0C08",
"o c #101010",
"O c #111111",
"+ c #101414",
"@ c gray8",
"# c gray11",
"$ c gray12",
"% c #232017",
"& c #181825",
"* c #13112D",
"= c #281821",
"- c #1C2222",
"; c #272727",
": c #26222D",
"> c #22282A",
", c #29292F",
"< c #2C2C2C",
"1 c #2D2D2D",
"2 c #2A3034",
"3 c gray19",
"4 c #313131",
"5 c #353535",
"6 c #31333B",
"7 c #393939",
"8 c gray23",
"9 c gray24",
"0 c #3E3E3E",
"q c #4F2313",
"w c #5A3737",
"e c #544C2E",
"r c #41403F",
"t c #7E4E20",
"y c #37394B",
"u c #2B225A",
"i c gray25",
"p c #4E4642",
"a c #DC6F35",
"s c #FF7D2C",
"d c #905E51",
"f c #A96B4C",
"g c #669344",
"h c #A49831",
"j c #809D49",
"k c #B3A84D",
"l c #D98E60",
"z c #FFC95A",
"x c #FFFF61",
"c c #402E82",
"v c #7141B2",
"b c #A966DD",
"n c #E7C7BF",
"m c #D085ED",
"M c #FFFFDF",
/* pixels */
"gjggjjjjgggggjjggjggjjjjgggggjjggjggjjjjgggggjjggjggjjjjgggggjjg",
"gjgjjgjjgjgggjjggjgjjgjjgjgggjjggjgjjgjjgjgggjjggjgjjgjjgjgggjjg",
"jjjjjgjggjggjjjjjjjjjgjggjggjjjjjjjjjgjggjggjjjjjjjjjgjggjggjjjj",
"jjjjjjgggjjjjjjjjjjjjjgggjjjjjjjjjjjjjgggjjjjjjjjjjjjjgggjjjjjjj",
"jjjjjgggjjjjgjjjjjjjjgggjjjjgjjjjjjjjgggjjjjgjjjjjjjjgggjjjjgjjj",
"gjjgjgjjjjjgjjjjgjjgjgjjjjjgjjjjg jgjgjjjjjgjjjjgjjgjgjjjjjgjjjj",
"jjgjjjjjjjggjjjgjjgjjjjjjjggjjjg # jjjjjjjggjjjgjjgjjjjjjjggjjjg",
"jjjjjjjjjjjjjjggjjjjjjjjjjjjjjg #0# jjjjjjjjjjggjjjjjjjjjjjjjjgg",
"jjjjjjjjjjjjjjjjjjjjjjjjjjjjjjj <0< jjjjjjjjjjjjjjjjjjjjjjjjjjjj",
"jjjjjjjgjjjjjjjjjjjjjjjgjjjjjj #<00# jjgjjjjjjjjjjjjjjjgjjjjjjjj",
"jjgjjjjgjjjjggjjjjgjjjjgjjjjgg #000<  jgjjjjggjjjjgjjjjgjjjjggjj",
"jgjjjjjjjjgjgjjjjgjjjjjjjjgjg #<0000<# jjjgjgjjjjgjjjjjjjjgjgjjj",
"gjjjjjjjjjgjjjgggjjjjjjjjjgj #<000000< jjjgjjjgggjjjjjjjjjgjjjgg",
"jjjjjjjggjjgjjggjjjjjjjggjj #<00000000# gjjgjjggjjjjjjjggjjgjjgg",
"ggjjgjggjjggggjjggjjgjggjj #<999999999< jjggggjjggjjgjggjjggggjj",
"gjggjjggjgggggjjgjggjjggjg <<<<<<<<<<<<# gggggjjgjggjjggjgggggjj",
"gjggjjjjgggggjjggjggjjjjg #<<<<<<<<<<<<<# gggjjggjggjjjjgggggjjg",
"gjgjjgjjgjgggjjggjgjjgjj #<<<<<<<<<<<<<<#  ggjjggjgjjgjjgjgggjjg",
"jjjjjgjggjggjjjjjjjjjgj  <<<<<<<<<<<<<<<## gjjjjjjjjjgjggjggjjjj",
"jjjjjjgggjjjjjjjjjjjjjgk#<<<<<<<<<<<<<<<## jjjjjjjjjjjgggjjjjjjj",
"jjjjjgggjjjjgjjjjjjjjgg k  <<<<<<<<<<<<    jgjjjjjjjjgggjjjjgjjj",
"gjjgjgjjjjjgjjjjgjjgj h k                    jjjgjjgjgjjjjjgjjjj",
"jjgjjjjjjjggjjjgjjgj 33kk                  33 jgjjgjjjjjjjggjjjg",
"jjjjjjjjjjjjjjggjjj 33333                30033 gjjjjjjjjjjjjjjgg",
"jjjjjjjjjjjjjjjjjjj 3333333            3000033 jjjjjjjjjjjjjjjjj",
"jjjjjjjgjjjjjjjjjjjj 333330000000000000000333 jjjjjjjjjgjjjjjjjj",
"jjgjjjjgjjjjggjjjjgjj    pr00000000000333    gjjjjgjjjjgjjjjggjj",
"jgjjjjjjjjgjgjjjjgjjjjj=f                c*jgjjjjgjjjjjjjjgjgjjj",
"gjjjjjjjjjgjjjgggjjjjjju=lll==ttfufllld*uc*jjjgggjjjjjjjjjgjjjgg",
"jjjjjjjggjjgjjggjjjjjjju=ccle=nnl*fuudw*u*jgjjggjjjjjjjggjjgjjgg",
"ggjjgjggjjggggjjggjjgjgucmmc%%nllfucvu*uc*ggggjjggjjgjggjjggggjj",
"gjggjjggjgggggjjgjggjjgubuublllllucvc*ucc*ggggjjgjggjjggjgggggjj",
"gjggjjjjgggggjjggjggjjju*=ducccuuccvc*ccu*gggjjggjggjjjjgggggjjg",
"gjgjjgjjgjgggjjggjgjjgju**vccvvcvvcv*uc*u*gggjjggjgjjgjjgjgggjjg",
"jjjjjgjggjggjjjjjjjjjgju*u*bvmvcbvvv*c*,*u*gjjjjjjjjjgjggjggjjjj",
"jjjjjjgggjjjjjjjjjjjjjg**u*bmmvmbbvc**yyy**jjjjjjjjjjjgggjjjjjjj",
"jjjjjgggjjjjgjjjjjjjjgg*c**mmmmmbvcc*6yyy,*=gjjjjjjjjgggjjjjgjjj",
"gjjgjgjjjjjgjjjjgjjgjgjju**mvmmbmvcu*66yy6*.jjjjgjjgjgjjjjjgjjjj",
"jjgjjjjjjjggjjjgjjgjjjjj*u*mvmbcvvu*O66666:.jjjgjjgjjjjjjjggjjjg",
"jjjjjjjjjjjjjjggjjjjjjjjj**vcmvuc**8O,,666,.jjggjjjjjjjjjjjjjjgg",
"jjjjjjjjjjjjjjjjjjjjjjjjj********11886:,666.jjjjjjjjjjjjjjjjjjjj",
"jjjjjjjgjjjjjjjjjjjjjjjgjO1i1111118i1OO:666.jjjjjjjjjjjgjjjjjjjj",
"jjgjjjjgjjjjggjjjjgjjjjgjO$1811118i8$O.:66,.ggjjjjgjjjjgjjjjggjj",
"jgjjjjjjjjgjgjjjjgjjjjjjjO$811111811$O.,66:.gjjjjgjjjjjjjjgjgjjj",
"gjjjjjjjjjgjjjgggjjjjjjjjO$$$111111XXXX666&.jjgggjjjjjjjjjgjjjgg",
"jjjjjjjggjjgjjggjjjjjjjggOO1$$$1881XsjMX6:.gjjggjjjjjjjggjjgjjgg",
"ggjjgjggjjggggjjggjjgjggjOO$111111XaMjxaX&.gggjjggjjgjggjjggggjj",
"gjggjjggjgggggjjgjggjjggjOOO$$$$$$XzjxxzX.ggggjjgjggjjggjgggggjj",
"gjggjjjjgggggjjggjggjjjjgO$O$$$$$$XXzxzaXggggjjggjggjjjjgggggjjg",
"gjgjjgjjgjgggjjggjgjjgjjgO$OO$$111XqazsXgjgggjjggjgjjgjjgjgggjjg",
"jjjjjgjggjggjjjjjjjjjgjggO$$O11111-XXXXggjggjjjjjjjjjgjggjggjjjj",
"jjjjjjgggjjjjjjjjjjjjjgggOO$OO$1777>>+gggjjjjjjjjjjjjjgggjjjjjjj",
"jjjjjgggjjjjgjjjjjjjjgggj+OOOOO$$$$$OOOgjjjjgjjjjjjjjgggjjjjgjjj",
"gjjgjgjjjjjgjjjjgjjgjgjjj+>>>--OOOOOOO+jjjjgjjjjgjjgjgjjjjjgjjjj",
"jjgjjjjjjjggjjjgjjgjjjjjj+>>>--++2>>>>+jjjggjjjgjjgjjjjjjjggjjjg",
"jjjjjjjjjjjjjjggjjjjjjjjjj+++++@+2>>>>>+jjjjjjggjjjjjjjjjjjjjjgg",
"jjjjjjjjjjjjjjjjjjjjjjjjjjjo@OO@++>>>>++jjjjjjjjjjjjjjjjjjjjjjjj",
"jjjjjjjgjjjjjjjjjjjjjjjgjjo@OOO@o@++++@ojjjjjjjjjjjjjjjgjjjjjjjj",
"jjgjjjjgjjjjggjjjjgjjjjgjjoOOO@o444444Oojjjjggjjjjgjjjjgjjjjggjj",
"jgjjjjjjjjgjgjjjjgjjjjjjjjoooooo;555;OOojjgjgjjjjgjjjjjjjjgjgjjj",
"gjjjjjjjjjgjjjgggjjjjjjjjjgjjjggooooooojjjgjjjgggjjjjjjjjjgjjjgg",
"jjjjjjjggjjgjjggjjjjjjjggjjgjjggjjjjjjjggjjgjjggjjjjjjjggjjgjjgg",
"ggjjgjggjjggggjjggjjgjggjjggggjjggjjgjggjjggggjjggjjgjggjjggggjj",
"gjggjjggjgggggjjgjggjjggjgggggjjgjggjjggjgggggjjgjggjjggjgggggjj"
};
