/* XPM */
static char *result[] = {
/* columns rows colors chars-per-pixel */
"64 64 48 1 ",
"  c black",
". c #090609",
"X c #1E0C08",
"o c #101010",
"O c #111111",
"+ c #101414",
"@ c gray8",
"# c gray11",
"$ c gray12",
"% c #181825",
"& c #13112D",
"* c #281821",
"= c #1C2222",
"- c #272727",
"; c #26222D",
": c #22282A",
"> c gray17",
", c #29292F",
"< c #2C2C2C",
"1 c #2D2D2D",
"2 c #2A3034",
"3 c gray19",
"4 c #313131",
"5 c #353535",
"6 c #31333B",
"7 c #393939",
"8 c #3A3A3A",
"9 c gray23",
"0 c gray24",
"q c #3E3E3E",
"w c #4F2313",
"e c #3F3E40",
"r c #37394B",
"t c #2B225A",
"y c #433E4A",
"u c gray25",
"i c #4A5057",
"p c #DC6F35",
"a c #FF7D2C",
"s c #669344",
"d c #809D49",
"f c #D98E60",
"g c #FFC95A",
"h c #FFFF61",
"j c #402E82",
"k c #7141B2",
"l c #A966DD",
"z c #D085ED",
/* pixels */
"sdssddddsssssddssdssddddsssssddssdssddddsssssddssdssddddsssssdds",
"sdsddsddsdsssddssdsddsddsdsssddssdsddsddsdsssddssdsddsddsdsssdds",
"dddddsdssdssdddddddddsdssdssdddddddddsdssdssdddddddddsdssdssdddd",
"ddddddsssdddddddddddddsssdddddddddddddsssdddddddddddddsssddddddd",
"dddddsssddddsddddddddsssddddsdd dddddsssddddsddddddddsssddddsddd",
"sddsdsdddddsddddsddsdsdddddsdd # ddsdsdddddsddddsddsdsdddddsdddd",
"ddsdddddddssdddsddsdddddddssd #q# sdddddddssdddsddsdddddddssddds",
"ddddddddddddddssddddddddddddd <q< ddddddddddddssddddddddddddddss",
"dddddddddddddddddddddddddddd #qq<# ddddddddddddddddddddddddddddd",
"dddddddsdddddddddddddddsddd  <qqq# ddddsdddddddddddddddsdddddddd",
"ddsddddsddddssddddsddddsdd #<qqqq<# dddsddddssddddsddddsddddssdd",
"dsddddddddsdsddddsdddddddd <qqqqqq<# dddddsdsddddsddddddddsdsddd",
"sdddddddddsdddsssdddddddd #qqqqqqqq<# ddddsdddsssdddddddddsdddss",
"dddddddssddsddssdddddddss <000000000<# ssddsddssdddddddssddsddss",
"ssddsdssddssssddssddsdss #<<<<<<<<<<<< sddssssddssddsdssddssssdd",
"sdssddssdsssssddsdssdds #<<<<<<<<<<<<<# dsssssddsdssddssdsssssdd",
"sdssddddsssssddssdssdd  #<<<<<<<<<<<<<<# ssssddssdssddddsssssdds",
"sdsddsddsdsssddssdsdds ##<<<<<<<<<<<<<<<  sssddssdsddsddsdsssdds",
"dddddsdssdssddddddddds ##<<<<<<<<<<<<<<<# ssdddddddddsdssdssdddd",
"ddddddsssddddddddddddd    <<<<<<<<<<<<    &dddddddddddsssddddddd",
"dddddsssddddsddddddd                        sddddddddsssddddsddd",
"sddsdsdddddsddddsdd 33                    33 dddsddsdsdddddsdddd",
"ddsdddddddssdddsdd 33qq3                33333 dsddsdddddddssddds",
"ddddddddddddddssdd 33qqqq3            3333333 ssddddddddddddddss",
"ddddddddddddddddddd 333qqqqqqqqqqqqqqqq33333 ddddddddddddddddddd",
"dddddddsdddddddddddd    333qqqqqqqqqqqey    dddddddddddsdddddddd",
"ddsddddsddddssddddsdd*f&                j&&dssddddsddddsddddssdd",
"dsddddddddsdsddddsddd&&&jjkjklkzjlzlkjktkj&dsddddsddddddddsdsddd",
"sdddddddddsdddsssdddd&&&&jjkkzkzjkzkktkjtj&dddsssdddddddddsdddss",
"dddddddssddsddssddddd&j&jtjkkzkktkzkkttk&tjsddssdddddddssddsddss",
"ssddsdssddssssddssddsd&ttjkjklkktkltljtj&&ksssddssddsdssddssssdd",
"sdssddssdsssssddsdssdds&tjjjkkjkjkktzjtt**&sssddsdssddssdsssssdd",
"sdssddddsssssddssdssd**.&tjtjkjkjjktjtt&...*sddssdssddddsssssdds",
"sdsddsddsdsssddssdsd*.OOOtjtjjtktjjttt&OOO%.*ddssdsddsddsdsssdds",
"dddddsdssdssddddddd*.%O<Otttjjtktjjtt&6O<Or%.ddddddddsdssdssdddd",
"ddddddsssdddddddddd.%rO9<O&tjjtktj&tt&O<9Or6.*ddddddddsssddddddd",
"dddddsssddddsddddd*.6rOu8$O&jttjtjtt&O$91O66;.dddddddsssddddsddd",
"sddsdsdddddsddddsd.;66O8u8$&t&tttt6&O$881O,;;.ddsddsdsdddddsdddd",
"ddsdddddddssdddsdd.;,6O18u><OtttOtOO<891$O;;;.dsddsdddddddssddds",
"ddddddddddddddssd*.,6;O1188888888888u88<$XXXXXssddddddddddddddss",
"ddddddddddddddddd.%66,O$<>8u7877uuuu881>$wdhhXdddddddddddddddddd",
"dddddddsddddddddd.;66,O$$<1877><88888<<$$wdhaXdddddddddsdddddddd",
"ddsddddsddddssddd.;6,;OO$>><7>>$<8777><$OhhapXddddsddddsddddssdd",
"dsddddddddsdsdddd.rr6.*O$$><>>>$>>87>>$$OpgaXddddsddddddddsdsddd",
"sdddddddddsdddsssXXXXX*O>$>>>>>$$>><><$$OXXXddsssdddddddddsdddss",
"dddddddssddsddssdXhdhwXO>$>>>>$$$$>>>>$$Oddsddssdddddddssddsddss",
"ssddsdssddssssddsXahswpX>>$>>$$$$$$>>><$Odssssddssddsdssddssssdd",
"sdssddssdsssssddsXpahhhX$9>>>$>>$$$>>><$O+ssssddsdssddssdsssssdd",
"sdssddddsssssddssdXagpwXO$9>>>>>>>>>>>>>O+sssddssdssddddsssssdds",
"sdsddsddsdsssddssdsXXXX=:O$>9>>>>>>>1<>7O+sssddssdsddsddsdsssdds",
"dddddsdssdssddddddddds+2:2OO$>>>7788998<O+ssdddddddddsdssdssdddd",
"ddddddsssddddddddddddd+++2::O$7uuuu91$$O2+ddddddddddddsssddddddd",
"dddddsssddddsddddddddso@@++==OOOOOOOOOO2i+ddsddddddddsssddddsddd",
"sddsdsdddddsddddsddsdso@O-5++++ds+=::::2i+dsddddsddsdsdddddsdddd",
"ddsdddddddssdddsddsdddoo-454Oodsd+==::2:+dssdddsddsdddddddssddds",
"ddddddddddddddssdddddddo@44-@ossd++==::+@oddddssddddddddddddddss",
"ddddddddddddddddddddddddooooodddd++==++O@odddddddddddddddddddddd",
"dddddddsdddddddddddddddsddddddddd++++54OOodddddddddddddsdddddddd",
"ddsddddsddddssddddsddddsddddssddddoO-44-Ooddssddddsddddsddddssdd",
"dsddddddddsdsddddsddddddddsdsddddso@O--@odsdsddddsddddddddsdsddd",
"sdddddddddsdddsssdddddddddsdddsssddoooooddsdddsssdddddddddsdddss",
"dddddddssddsddssdddddddssddsddssdddddddssddsddssdddddddssddsddss",
"ssddsdssddssssddssddsdssddssssddssddsdssddssssddssddsdssddssssdd",
"sdssddssdsssssddsdssddssdsssssddsdssddssdsssssddsdssddssdsssssdd"
};
