/* XPM */
static char *result[] = {
/* columns rows colors chars-per-pixel */
"64 64 48 1 ",
"  c black",
". c #090609",
"X c #1E0C08",
"o c #101010",
"O c #111111",
"+ c #101414",
"@ c gray8",
"# c gray11",
"$ c gray12",
"% c #181825",
"& c #13112D",
"* c #281821",
"= c #1C2222",
"- c #272727",
"; c #26222D",
": c #22282A",
"> c gray17",
", c #29292F",
"< c #2C2C2C",
"1 c #2D2D2D",
"2 c #2A3034",
"3 c gray19",
"4 c #313131",
"5 c #353535",
"6 c #31333B",
"7 c #393939",
"8 c #3A3A3A",
"9 c gray23",
"0 c gray24",
"q c #3E3E3E",
"w c #4F2313",
"e c #3F3E40",
"r c #37394B",
"t c #2B225A",
"y c #433E4A",
"u c gray25",
"i c #4A5057",
"p c #DC6F35",
"a c #FF7D2C",
"s c #669344",
"d c #809D49",
"f c #D98E60",
"g c #FFC95A",
"h c #FFFF61",
"j c #402E82",
"k c #7141B2",
"l c #A966DD",
"z c #D085ED",
/* pixels */
"sdssddddsssssddssdssddddsssssddssdssddddsssssddssdssddddsssssdds",
"sdsddsddsdsssddssdsddsddsdsssddssdsddsddsdsssddssdsddsddsdsssdds",
"dddddsdssdssdddddddddsdssdssdddddddddsdssdssdddddddddsdssdssdddd",
"ddddddsssdddddddddddddsssdddddd ddddddsssdddddddddddddsssddddddd",
"dddddsssddddsddddddddsssddddsd # ddddsssddddsddddddddsssddddsddd",
"sddsdsdddddsddddsddsdsdddddsd #q# dsdsdddddsddddsddsdsdddddsdddd",
"ddsdddddddssdddsddsdddddddssd <q< sdddddddssdddsddsdddddddssddds",
"ddddddddddddddssdddddddddddd #qq<# dddddddddddssddddddddddddddss",
"ddddddddddddddddddddddddddd  <qqq# ddddddddddddddddddddddddddddd",
"dddddddsdddddddddddddddsdd #<qqqq<# dddsdddddddddddddddsdddddddd",
"ddsddddsddddssddddsddddsdd <qqqqqq<# ddsddddssddddsddddsddddssdd",
"dsddddddddsdsddddsddddddd #qqqqqqqq<# ddddsdsddddsddddddddsdsddd",
"sdddddddddsdddsssdddddddd <000000000<# dddsdddsssdddddddddsdddss",
"dddddddssddsddssddddddds #<<<<<<<<<<<< ssddsddssdddddddssddsddss",
"ssddsdssddssssddssddsds #<<<<<<<<<<<<<# ddssssddssddsdssddssssdd",
"sdssddssdsssssddsdssdd  #<<<<<<<<<<<<<<# sssssddsdssddssdsssssdd",
"sdssddddsssssddssdssdd ##<<<<<<<<<<<<<<<  sssddssdssddddsssssdds",
"sdsddsddsdsssddssdsdds ##<<<<<<<<<<<<<<<# sssddssdsddsddsdsssdds",
"dddddsdssdssddddddddds    <<<<<<<<<<<<    &sdddddddddsdssdssdddd",
"ddddddsssddddddddddd                        ddddddddddsssddddddd",
"dddddsssddddsdddddd 33                    33 ddddddddsssddddsddd",
"sddsdsdddddsddddsd 33qq3                33333 ddsddsdsdddddsdddd",
"ddsdddddddssdddsdd 33qqqq3            3333333 dsddsdddddddssddds",
"ddddddddddddddssddd 333qqqqqqqqqqqqqqqq33333 dssddddddddddddddss",
"dddddddddddddddddddd    333qqqqqqqqqqqey    dddddddddddddddddddd",
"dddddddsddddddddddddd*f&                j&&ddddddddddddsdddddddd",
"ddsddddsddddssddddsdd&&&jjkjklkzjlzlkjktkj&dssddddsddddsddddssdd",
"dsddddddddsdsddddsddd&&&&jjkkzkzjkzkktkjtj&dsddddsddddddddsdsddd",
"sdddddddddsdddsssdddd&j&jtjkkzkktkzkkttk&tjdddsssdddddddddsdddss",
"dddddddssddsddssdddddd&ttjkjklkktkltljtj&&ksddssdddddddssddsddss",
"ssddsdssddssssddssdds**&tjjjkkjkjkktzjtt**&sssddssddsdssddssssdd",
"sdssddssdsssssddsdss*...&tjtjkjkjjktjtt&...*ssddsdssddssdsssssdd",
"sdssddddsssssddssds*.%OOOtjtjjtktjjttt&OOO%.*ddssdssddddsssssdds",
"sdsddsddsdsssddssds.%rO<Otttjjtktjjtt&6O<Or%.ddssdsddsddsdsssdds",
"dddddsdssdssdddddd*.6rO9<O&tjjtktj&tt&O<9Or6.*dddddddsdssdssdddd",
"ddddddsssddddddddd.;66Ou8$O&jttjtjtt&O$91O66;.ddddddddsssddddddd",
"dddddsssddddsddddd.;,6O8u8$&t&tttt6&O$881O6,;.dddddddsssddddsddd",
"sddsdsdddddsdddds*.,,;O18u><OtttOtOO<891$O;,,.*dsddsdsdddddsdddd",
"ddsdddddddssdddsd.%,,,O1188888888888u88<$O,,,%.sddsdddddddssddds",
"ddddddddddddddssd.;6,.O$<>8u7877uuuu881>$O;,6;.sddddddddddddddss",
"ddddddddddddddddd.,6,.O$$<1877><88888<<$$O.,6,.ddddddddddddddddd",
"dddddddsddddddddd.rr,.OO$>><7>>$<8777><$OO.,rr.ddddddddsdddddddd",
"ddsddddsddddssdddXXXXX*O$$><>>>$>>87>>$$O*XXXXXdddsddddsddddssdd",
"dsddddddddsdsddddXhdhwXO>$>>>>>$$>><><$$OXwdhhXddsddddddddsdsddd",
"sdddddddddsdddsssXahdwpX>$>>>>$$$$>>>>$$XpwdhaXssdddddddddsdddss",
"dddddddssddsddssdXpahhhX>$$>>$$$$$$>>><$XhhhapXsdddddddssddsddss",
"ssddsdssddssssddssXagpwX>$$>>$>>$$$>>><$XwpgaXddssddsdssddssssdd",
"sdssddssdsssssddsdsXXXXO>>>>>>>>>>>>>>>>OXXXXsddsdssddssdsssssdd",
"sdssddddsssssddssdssdd+OO7>>>>>>>>>>1<8<O+sssddssdssddddsssssdds",
"sdsddsddsdsssddssdsdd+=2O$77>>>>778899$O2=+ssddssdsddsddsdsssdds",
"dddddsdssdssddddddddd+i22O$9999uuuu91$O22i+sdddddddddsdssdssdddd",
"ddddddsssddddddddddd+i2:::OOOOOOOOOOOO:::2i+ddddddddddsssddddddd",
"dddddsssddddsdddddddd++:2::==+dddd+==::2:++dsddddddddsssddddsddd",
"sddsdsdddddsddddsddso@@+++==++ddsd++==+++@@oddddsddsdsdddddsdddd",
"ddsdddddddssdddsddsdo@@-44++++dsdd++++44-@@odddsddsdddddddssddds",
"ddddddddddddddssddddoOO454OoddssddddoO454OOoddssddddddddddddddss",
"ddddddddddddddddddddoO-454OoddddddddoO454-Oodddddddddddddddddddd",
"dddddddsdddddddddddddo@-4O@oddddddddo@O4-@oddddddddddddsdddddddd",
"ddsddddsddddssddddsdddooooodssddddsddoooooddssddddsddddsddddssdd",
"dsddddddddsdsddddsddddddddsdsddddsddddddddsdsddddsddddddddsdsddd",
"sdddddddddsdddsssdddddddddsdddsssdddddddddsdddsssdddddddddsdddss",
"dddddddssddsddssdddddddssddsddssdddddddssddsddssdddddddssddsddss",
"ssddsdssddssssddssddsdssddssssddssddsdssddssssddssddsdssddssssdd",
"sdssddssdsssssddsdssddssdsssssddsdssddssdsssssddsdssddssdsssssdd"
};
