/* XPM */
static char *result[] = {
/* columns rows colors chars-per-pixel */
"64 64 49 1 ",
"  c black",
". c #090609",
"X c #1E0C08",
"o c #101010",
"O c #111111",
"+ c #101414",
"@ c gray8",
"# c gray11",
"$ c gray12",
"% c #181825",
"& c #13112D",
"* c #281821",
"= c #1C2222",
"- c #272727",
"; c #26222D",
": c #22282A",
"> c gray17",
", c #29292F",
"< c #2C2C2C",
"1 c #2D2D2D",
"2 c #2A3034",
"3 c gray19",
"4 c #313131",
"5 c #353535",
"6 c #31333B",
"7 c gray22",
"8 c #393939",
"9 c #3A3A3A",
"0 c gray23",
"q c gray24",
"w c #3E3E3E",
"e c #4F2313",
"r c #3F3E40",
"t c #37394B",
"y c #2B225A",
"u c #433E4A",
"i c gray25",
"p c #4A5057",
"a c #DC6F35",
"s c #FF7D2C",
"d c #669344",
"f c #809D49",
"g c #D98E60",
"h c #FFC95A",
"j c #FFFF61",
"k c #402E82",
"l c #7141B2",
"z c #A966DD",
"x c #D085ED",
/* pixels */
"dfddffffdddddffddfddffffdddddffddfddffffdddddffddfddffffdddddffd",
"dfdffdffdfdddffddfdffdffdfdddffddfdffdffdfdddffddfdffdffdfdddffd",
"fffffdfddfddfffffffffdfddfddfffffffffdfddfddfffffffffdfddfddffff",
"ffffffdddfffffffffffffdddfffffffffffffdddfffffffffffffdddfffffff",
"fffffdddffffdffffffffdddffffdff fffffdddffffdffffffffdddffffdfff",
"dffdfdfffffdffffdffdfdfffffdff # ffdfdfffffdffffdffdfdfffffdffff",
"ffdfffffffddfffdffdfffffffddf #w# dfffffffddfffdffdfffffffddfffd",
"ffffffffffffffddfffffffffffff <w< ffffffffffffddffffffffffffffdd",
"ffffffffffffffffffffffffffff #ww<# fffffffffffffffffffffffffffff",
"fffffffdfffffffffffffffdfff  <www# ffffdfffffffffffffffdffffffff",
"ffdffffdffffddffffdffffdff #<wwww<# fffdffffddffffdffffdffffddff",
"fdffffffffdfdffffdffffffff <wwwwww<# fffffdfdffffdffffffffdfdfff",
"dfffffffffdfffdddffffffff #wwwwwwww<# ffffdfffdddfffffffffdfffdd",
"fffffffddffdffddfffffffdd <qqqqqqqqq<# ddffdffddfffffffddffdffdd",
"ddffdfddffddddffddffdfdd #<<<<<<<<<<<< dffddddffddffdfddffddddff",
"dfddffddfdddddffdfddffd #<<<<<<<<<<<<<# fdddddffdfddffddfdddddff",
"dfddffffdddddffddfddff  #<<<<<<<<<<<<<<# ddddffddfddffffdddddffd",
"dfdffdffdfdddffddfdffd ##<<<<<<<<<<<<<<<  dddffddfdffdffdfdddffd",
"fffffdfddfddfffffffffd ##<<<<<<<<<<<<<<<# ddfffffffffdfddfddffff",
"ffffffdddfffffffffffff    <<<<<<<<<<<<    &fffffffffffdddfffffff",
"fffffdddffffdfffffff                        dffffffffdddffffdfff",
"dffdfdfffffdffffdff 33                    33 fffdffdfdfffffdffff",
"ffdfffffffddfffdff 33ww3                33333 fdffdfffffffddfffd",
"ffffffffffffffddff 33wwww3            3333333 ddffffffffffffffdd",
"fffffffffffffffffff 333wwwwwwwwwwwwwwww33333 fffffffffffffffffff",
"fffffffdffffffffffff    333wwwwwwwwwwwru    fffffffffffdffffffff",
"ffdffffdffffddffffdff*g&                k&&fddffffdffffdffffddff",
"fdffffffffdfdffffdfff&&&kklklzlxkzxzlklylk&fdffffdffffffffdfdfff",
"dfffffffffdfffdddffff&&&&kkllxlxklxllylkyk&fffdddfffffffffdfffdd",
"fffffffddffdffddfffff&k&kykllxllylxllyyl&ykdffddfffffffddffdffdd",
"ddffdfddffddddffddffdf&yyklklzllylzyzkyk&&ldddffddffdfddffddddff",
"dfddffddfdddddffdfddf**&ykkkllklkllyxkyy*d&dddffdfddffddfdddddff",
"dfddffffdddddffddfdd*...&ykyklklkklykyy&.**ddffddfddffffdddddffd",
"dfdffdffdfdddffddfd*.%OOOykykkylykkyyy&OOO.*dffddfdffdffdfdddffd",
"fffffdfddfddfffffff.%tO<Oyyykkylykkyy&6O<O%.*ffffffffdfddfddffff",
"ffffffdddfffffffff*.6tO0<O&ykkylyk&yy&O<0Ot%.fffffffffdddfffffff",
"fffffdddffffdfffff.;66Oi9$O&kyykykyy&O$01Ot6.*fffffffdddffffdfff",
"dffdfdfffffdffffdf.;;,O9i9$&y&yyyy6&O$991O66;.ffdffdfdfffffdffff",
"ffdfffffffddfffdff.;;;O19i><OyyyOyOO<901$O6,;.fdffdfffffffddfffd",
"ffffffffffffffddffXXXXX1199999999999i99<$O;6,.*dffffffffffffffdd",
"ffffffffffffffffffXjfje$<>9i8988iiii991>$O,66%.fffffffffffffffff",
"fffffffdffffffffffXsjfe$$<1988><99999<<$$O,66;.ffffffffdffffffff",
"ffdffffdffffddffffXasjjO$>><8>>$<9888><$OO;,6;.fffdffffdffffddff",
"fdffffffffdfdffffdfXshaO$$><>>>$>>98>>$$O*.6tt.ffdffffffffdfdfff",
"dfffffffffdfffdddfffXXXO>$>>>>>$$>><><$$O*XXXXXddfffffffffdfffdd",
"fffffffddffdffddfffffffO>$>>>>$$$$>>>>$$OXedjjXdfffffffddffdffdd",
"ddffdfddffddddffddffdfdO>$$>>$$$$$$>$$<>XaedjsXfddffdfddffddddff",
"dfddffddfdddddffdfddff+O>$$>>$>>$$$>$>8>XjjjsaXfdfddffddfdddddff",
"dfddffffdddddffddfddff+O>>>>>>>>>>>>>8$OXeahsXfddfddffffdddddffd",
"dfdffdffdfdddffddfdffd+O7>>>>>>>>>>8>$O:=XXXXffddfdffdffdfdddffd",
"fffffdfddfddfffffffffd+:O888>>>>889$$O2:2+ddfffffffffdfddfddffff",
"ffffffdddfffffffffffff+2O$$0000iii$OO:2+++ffffffffffffdddfffffff",
"fffffdddffffdffffffffd+p2OOOOOOOOOO==++@@offdffffffffdddffffdfff",
"dffdfdfffffdffffdffdfd+p2::::=+fd++++--O@ofdffffdffdfdfffffdffff",
"ffdfffffffddfffdffdffff+:2::==+dffoO454-ooddfffdffdfffffffddfffd",
"ffffffffffffffddffffffo@+::==++dffo@-44@offfffddffffffffffffffdd",
"ffffffffffffffffffffffo@O++==++ffffoooooffffffffffffffffffffffff",
"fffffffdffffffffffffffoOO45++++ffffffffdfffffffffffffffdffffffff",
"ffdffffdffffddffffdfffoO-45-Ooffffdffffdffffddffffdffffdffffddff",
"fdffffffffdfdffffdfffffo@--O@offfdffffffffdfdffffdffffffffdfdfff",
"dfffffffffdfffdddfffffffooooofdddfffffffffdfffdddfffffffffdfffdd",
"fffffffddffdffddfffffffddffdffddfffffffddffdffddfffffffddffdffdd",
"ddffdfddffddddffddffdfddffddddffddffdfddffddddffddffdfddffddddff",
"dfddffddfdddddffdfddffddfdddddffdfddffddfdddddffdfddffddfdddddff"
};
