/* XPM */
static char *result[] = {
/* columns rows colors chars-per-pixel */
"64 64 11 1 ",
"  c #24161A",
". c #381C24",
"X c #1A2731",
"o c #243D34",
"O c #452A2F",
"+ c #663F39",
"@ c #2F5538",
"# c #40713C",
"$ c #55864A",
"% c #669344",
"& c #809D49",
/* pixels */
"%&%%&&&&%%%%%&&%%&%%&&&&%%%%%&&%%&%%&&&&%%%%%&&%%&%%&&&&%%%%%&&%",
"%&%&&%&&%&%%%&&%%&%&&%&&%&%%%&&%%&%&&%&&%&%%%&&%%&%&&%&&%&%%%&&%",
"&&&&&%&%%&%%&&&&&&&&&%&%%&%%&&&&&&&&&%&%%&%%&&&&&&&&&%&%%&%%&&&&",
"&&&&&&%%%&&&&&%#&&&&&&%%%&&&&&&&&&&&&&%%%&&&&&&&&&&&&&%%%&&&&&&&",
"&&&&&%%%&&&&%%#$@&&&&%%%&&&&%&#&@&&&&%%%&&&&%&#&&&&&&%%%&&&&%&&&",
"%&&%&%&&&&&%%#%%$@&%&#&&&&&%&#$#$@&%&#&&&&&%&#$#&&&%&%&&&&&%&&&&",
"&&%&&&&&&&%%@$%%$%@&#$#%&&%%@$%$$%@&#$#%&&%%@$%$#%%&&&&&&&%%&&&%",
"&&&&&&&&&&$@$%%%%$%#$%%#%%&@$$%%%$%#$%%#%%&@$$%%$#&&&&&&&&&&&&%%",
"&&&&&&&&&&#$$%%%%$%$$%%%#%%#$%%%%$%$$%%%#%%#$%%%%%#%#%&&&&&&&&&&",
"&&&&&&&%&&$#$%%%$@$#$%%%%##@$$$$$@$#$%%%%##@$$$$$#@#%#%&&&&&&&&&",
"&&%&&&&%&&$@@###o@#$$%%%%$#@o@@@o@#$$%%%%$#@o@@@##@#%%#&&&&&%%&&",
"&%&&&&&&&&##$$$####$$%%%%#@####$###$$%%%%#@####$#@#$%%$#&&%&%&&&",
"%&&&&&&&&$@#$$$@#%%@@#@@@@@#$$$$#%%@@#@@@@@#$$$$###%%%%#&&%&&&%%",
"&&&&&&&%%#@##o@#$%%$@#@@##@@#$$#$%%$@#@@##@@#$$#$@#%%%%$%&&%&&%%",
"%%&&%&%%%@@@o@##%%%%$@@@#%@@@@@#%%%%$@@@#%@@@@@#$o#$%$#@#&%%%%&&",
"%&%%&&%%&%@o#$@$%%%%$#@#%%$o@@#$%%%%$#@#%%$o@@#$$o@####@$#%%%%&&",
"%&%%%%%%##@$$$#$$%%%$#@$%%%#oo#$$%%%$#@$%%%#oo#$@@###%%$#@%%%&&%",
"%&%&&%%$$@@#$$$#$$%$#@#$%%%%@o@#$$%$#@#$%%%%@o@#@oo@@@@@@#%%%&&%",
"&&&&&%%$#@o@@@@@@@@@@#$$%%%%#@o@@@@@@#$$%%%%#@o@@@@@#$$$$$#%&&&&",
"&&&&&&%#@%#@@##@#@###@$%%%%%#@oo#@###@$%%%%%#@oo@@###$$$$$@%&&&&",
"&&&&&%%@#%%##$$#@####oo@###@o@@@@####oo@###@o@@@@@####$$$#@&%&&&",
"%&&%&%$@$%%$#$%%@@##@@#@#$$#@@##@@##@@#@#$$#@@##@o@@oo+@##$%&&&&",
"&&%&&$@#%%%%##%%#@o@o#$#@$$##@###@o@o#$#@$$##@##@oo@  . o#%%&&&%",
"&&&&&$@#%%%%$@@@@@oo@$%##@@@@ooo@@oo@$%##@@@@oooooo@@@#o#&&&&&%%",
"&&&&&%o#$%$#@O+ oooo#%%%##oo@#oooooo#%%%##oo@#ooooo@@#%@#&&&&&&&",
"&&&&&#@o@##@@o  ooo#$%%%%@o@$$@oooo#$%%%%@o@$$@o@o@@#%%%@&&&&&&&",
"&&%&&o#$$$$$##@ooo@#$%%%%$@$$$#@oo@#$%%%%$@$$$#@@@@#$%%%$@&&%%&&",
"&%&&&@#$$%%$$#oo#@#$$%%%%#$$$$$##@#$$%%%%#$$$$$#@@##$%%%%$@&%&&&",
"%&&&&@##$%%##o@@@%$@#$$$#@#$$###@%$@#$$$#@#$$####@@@$%%%$#@&&&%%",
"&&&&%#@XOOOXo@@##%%$@@@@##@o@@o@#%%$@@@@##@o@@o@##@@@@##@@%%&&%%",
"%%&&$#@  . @@@#$$%%%#####$o@##@#$%%%#####$o@##@#$$$####$$#@%%%&&",
"%&%%$$#@oo@@@##%$%%%$###%%o@##@#$%%%$###%%o@##@#$%%$##$%%%$@%%&&",
"%&%%%%%%##@$$$#$$%%%$#@$%%%#oo#$$%%%$#@$%%%#oo#$@@###%%$#@%%%&&%",
"%&%&&%%$$@@#$$$#$$%$#@#$%%%%@o@#$$%$#@#$%%%%@o@#@oo@@@@@@#%%%&&%",
"&&&&&%%$#@o@@@@@@@@@@#$$%%%%#@o@@@@@@#$$%%%%#@o@@@@@#$$$$$#%&&&&",
"&&&&&&%#@%#@@##@#@###@$%%%%%#@oo#@###@$%%%%%#@oo@@###$$$$$@%&&&&",
"&&&&&%%@#%%##$$#@####oo@###@o@@@@####oo@###@o@@@@@####$$$#@&%&&&",
"%&&%&%$@$%%$#$%%@@##@@#@#$$#@@##@@##@@#@#$$#@@##@o@@oo+@##$%&&&&",
"&&%&&$@#%%%%##%%#@o@o#$#@$$##@###@o@o#$#@$$##@##@oo@  . o#%%&&&%",
"&&&&&$@#%%%%$@@@@@oo@$%##@@@@ooo@@oo@$%##@@@@oooooo@@@#o#&&&&&%%",
"&&&&&%o#$%$#@O+ oooo#%%%##oo@#oooooo#%%%##oo@#ooooo@@#%@#&&&&&&&",
"&&&&&#@o@##@@o  ooo#$%%%%@o@$$@oooo#$%%%%@o@$$@o@o@@#%%%@&&&&&&&",
"&&%&&o#$$$$$##@ooo@#$%%%%$@$$$#@oo@#$%%%%$@$$$#@@@@#$%%%$@&&%%&&",
"&%&&&@#$$%%$$#oo#@#$$%%%%#$$$$$##@#$$%%%%#$$$$$#@@##$%%%%$@&%&&&",
"%&&&&@##$%%##o@@@%$@#$$$#@#$$###@%$@#$$$#@#$$####@@@$%%%$#@&&&%%",
"&&&&%#@XOOOXo@@##%%$@@@@##@o@@o@#%%$@@@@##@o@@o@##@@@@##@@%%&&%%",
"%%&&$#@  . @@@#$$%%%#####$o@##@#$%%%#####$o@##@#$$$####$$#@%%%&&",
"%&%%$$#@oo@@@##%$%%%$###%%o@##@#$%%%$###%%o@##@#$%%$##$%%%$@%%&&",
"%&%%%%###@@@o#$$%%%%%#@#%%%#$%#$%%%%%#@#%%%#$%#$%%%%%#$$$#@%%&&%",
"%&%%%%$##@@@@o##%%%%#@#$%%%$$%@$%%%%#@#$%%%$$%@$%%%%$@####@%%&&%",
"&&&&%%%$$$#@@@oo@@@@o@$%%%%%##@o@@@@o@$%%%%%##@o@@#@@@OO#$%%&&&&",
"&&&&&%%%$$##@##$$$$##@$%%%%%$###$$$##@$%%%%%$###$$$$$$o #&&&&&&&",
"&&&&&%%%%%$#@##$$$$$# @$%%$#@@##$$$$# @$%%$#@@##$$$$$$@#$&&&%&&&",
"%&&%&%%%%%$$@@#$$$$$@@#@#@@##@##$$$$@@#@#@@##@##$$$%$###%&&%&&&&",
"&&%&&&&&%%$$$@@@###@o##$$$$$$##@###@o##$$$$$$##@####@o$&&&%%&&&%",
"&&&&&&&&%%%$$o  .++O@#$$$$$$$@  .++O@#$$$$$$$@  .++@##&&&&&&&&%%",
"&&&&&&&&%%%$##X  .  @##$$$$#@oX  .  @##$$$$#@oX  .  #&&&&&&&&&&&",
"&&&&&&&%&%%$####@@@#X@oo@@@  @##@@@#X@oo@@@  @##@@@#$&&%&&&&&&&&",
"&&%&&&&%&%%#########@   OO.  @######@   OO.  @######%&&%&&&&%%&&",
"&%&&&&&&&&%$##########o    o##########o    o######$%&&&&&&%&%&&&",
"%&&&&&&&&&%&&%%$%%##########%%$$%%##########%%$$%&&&&&&&&&%&&&%%",
"&&&&&&&%%&&%&&%%&&$#######$$&&%%&&$#######$$&&%%&&&&&&&%%&&%&&%%",
"%%&&%&%%&&%%%%&&%%&%####$$%%%%&&%%&%####$$%%%%&&%%&&%&%%&&%%%%&&",
"%&%%&&%%&%%%%%&&%&%%&&%%&%%%%%&&%&%%&&%%&%%%%%&&%&%%&&%%&%%%%%&&"
};
